<svg id="_лой_3" data-name="—лой_3" xmlns="http://www.w3.org/2000/svg" viewBox="0 0 89.96 764.54"><defs><style>.cls-1,.cls-2{fill:#faa61a;}.cls-1,.cls-3{fill-rule:evenodd;}.cls-3{fill:#fff;stroke:#fff;stroke-miterlimit:10;}</style></defs><title>icon-sprite-1</title><path class="cls-1" d="M29.84,20.25v0ZM25.93,46.91l4.87-8.2-1.05-.38-1.1-.41a1.51,1.51,0,0,0-.95,0h0a1.52,1.52,0,0,0-.67.45l-.55.81-3.38,5a1.84,1.84,0,0,0,0,.6,1.62,1.62,0,0,0,.25.55,1.34,1.34,0,0,0,.45.4l2.13,1.23ZM74.72,0H89a1,1,0,0,1,1,1V40a1,1,0,0,1-1,1H74.72a1,1,0,0,1-1-1V38.28l-4.42,2.93,0,0a3.32,3.32,0,0,1,.36,1,3.37,3.37,0,0,1-.23,1.89l-.3.72a22.82,22.82,0,0,1-7.35,9.62l-6.84,5.31a3.37,3.37,0,0,1-3.81.24l-6.34-3.75a3.15,3.15,0,0,1-.74.84l0,0a3.47,3.47,0,0,1-1.18.58,3.34,3.34,0,0,1-1.34.1,3.14,3.14,0,0,1-1.25-.43h0l-17.38-10a3.2,3.2,0,0,1-1.05-.93,3.58,3.58,0,0,1-.58-1.27,3.67,3.67,0,0,1,0-1.4,2.2,2.2,0,0,1,.15-.51l-5.12-4.55V40a1,1,0,0,1-1,1H1a1,1,0,0,1-1-1V1A1,1,0,0,1,1,0H15.25a1,1,0,0,1,1,1v.79L23.31,4a3.39,3.39,0,0,1,2.22,4.26l-.06.16,8.41.72H34l16.31,1.94c1.33-.39,2.71-.74,4.2-1.07l10.29-2.3a3.39,3.39,0,0,1,.33-2.2,3.35,3.35,0,0,1,2-1.67l6.66-2.09V1a1,1,0,0,1,1-1ZM68.08,39.73a1.37,1.37,0,0,1,.17-.14l5.16-3.41a1.07,1.07,0,0,1,.25-.11L65.32,9.58,54.88,11.91c-1.46.33-2.84.68-4.21,1.08h0l-.06,0h0l-1,.3c-1.7.53-3.36,1.14-5.12,1.86L32,20.32l.51,1.08A4.8,4.8,0,0,0,38.17,24l12-3.22a1,1,0,0,1,1,.3L68.08,39.73Zm-35.44-.32.71.3a19.05,19.05,0,0,1,1.74.87c.55.31,1.09.65,1.63,1L31.5,50.12l-3.88-2.24,5-8.47Zm.54,11.68,4.1,2.37L42,45.7l-3.71-2.92-5.09,8.31ZM39,54.43l2.22,1.28h0a1.33,1.33,0,0,0,.52.19,1.54,1.54,0,0,0,1.09-.29h0a1.48,1.48,0,0,0,.34-.42l2.73-4.82a1.48,1.48,0,0,0,.16-1,1.43,1.43,0,0,0-.52-.86l-2-1.6L39,54.43ZM16.67,36.49l5.71,5.08,3-4.24h0A3.35,3.35,0,0,1,27.11,36h0a3.31,3.31,0,0,1,2.2.07l3.37,1.25A24.65,24.65,0,0,1,36,38.89a22.87,22.87,0,0,1,2.47,1.62h0a1,1,0,0,1,.16.13c.14.1.27.2.4.31l7.66,6a3.19,3.19,0,0,1,.87,1l10.23,7.08,2.72-2.12c.34-.27.67-.54,1-.82L47,41a1,1,0,0,1,1.17-1.55L63,50.78A19.66,19.66,0,0,0,64.55,49c.4-.53.78-1.08,1.13-1.66L52.62,35.7a1,1,0,0,1,1.29-1.45L66.65,45.59c.24-.47.46-1,.67-1.48l.3-.72a1.38,1.38,0,0,0-.26-1.54l-17.26-19L38.67,25.89a6.73,6.73,0,0,1-7.89-3.68l-.93-2,0-.07a1,1,0,0,1,.54-1.26l13.43-5.52c.74-.31,1.48-.6,2.19-.86L33.74,11.08h0l-8.81-.77h0L16.67,36.49ZM47.91,50.55a2.87,2.87,0,0,1-.32.77l-1.87,3.28,6.36,3.77a1.52,1.52,0,0,0,.84.2,1.35,1.35,0,0,0,.79-.31l2.51-1.95-8.33-5.76ZM16.22,31.43,23.69,7.68a1.49,1.49,0,0,0-.95-1.83L16.22,3.79V31.43ZM14.28,1.94H1.94V39H14.28V1.94Zm59.46,28V3.8L67.66,5.71a1.43,1.43,0,0,0-.86.71,1.5,1.5,0,0,0-.09,1.12l7,22.36Zm1.95,6.32V39H88V1.94H75.68V36.22Z"/><path class="cls-1" d="M9,252.7H21.93V241.79H9V252.7Zm14.68,8.75H66.25V207.79H23.72v53.66Zm43.42,1.78H12l-.06,0H11.8l-.06,0h-.08l-.06,0h-.07l-.06,0h-.13l-.06,0h-.12l-.06,0h0L11,263h-.24l-.06,0h0l0,0-.06,0h0l0,0h0l0,0h0l0,0h-.06l-.06,0h0l-.06,0h0l0,0h0l0,0h0l-.05,0h0l0,0h0l0,0-.06,0h0l0,0h0l0,0h0l0,0h0l0,0h0l0,0h0l0,0,0,0h0l0,0h0l0,0h0l0,0h0l0,0h0l0,0h0l0,0h0l0-.05h0l0,0h0l-.05,0h0l0,0H9l0,0H9l0,0h0l0,0h0l0,0h0l0,0h0l0,0h0l0,0h0l0,0h0l0,0h0l0,0h0l0,0h0l0,0h0l0,0h0l0,0h0l0,0h0l0,0h0l0,0h0l0,0v0l0,0h0l0,0h0l0,0h0l0,0h0l0,0v0l0,0H8l0,0H8l0,0v0l0,0h0l0,0h0l0-.06h0l0-.05h0l0,0h0l0-.06h0l0,0h0v-.07l0,0h0l0,0h0l0-.06h0l0,0v0l0,0h0l0,0h0v-.06h0v-.06h0l0,0h0l0-.07h0v0h0l0-.06h0v-.06h0l0,0h0v-.07h0v-.06h0l0-.06h0v-.07h0v-.06h0v-.06h0v-.06h0v-.07h0v-.06h0v-.06h0v-.07h0v-.07h0v-.06h0v-.07h0v-.06h0v-.07h0v-.07h0V258h0V211.36A5.37,5.37,0,0,1,12.61,206H77.36a5.33,5.33,0,0,1,3.78,1.57h0a5.31,5.31,0,0,1,1.57,3.79v46.52a5.37,5.37,0,0,1-5.35,5.35ZM34.81,220.66l25.74,12.68a.9.9,0,0,1,0,1.61l-25.77,12.7a.89.89,0,0,1-1.2-.4.91.91,0,0,1-.1-.39h0V221.44a.9.9,0,0,1,.9-.9.94.94,0,0,1,.44.12Zm23.33,13.48L35.26,245.42V222.87l22.88,11.28Zm19.21-26.35H68v7H80.93v-3.45a3.57,3.57,0,0,0-1.05-2.53h0a3.51,3.51,0,0,0-2.52-1ZM68,216.6v10.84H80.93V216.6Zm0,12.63V240H80.93V229.23Zm0,12.56V252.7H80.93V241.79Zm0,12.69v7h9.32a3.6,3.6,0,0,0,3.57-3.57v-3.4Zm-46.11,0H9v3.4a3.58,3.58,0,0,0,1,2.52h0a3.53,3.53,0,0,0,2.52,1.05h9.31v-7Zm0-46.69H12.61A3.57,3.57,0,0,0,9,211.36v3.45H21.93v-7ZM9,216.6v10.84H21.93V216.6Zm0,12.63V240H21.93V229.23Z"/><path class="cls-1" d="M37.51,479.09a.84.84,0,0,1,0,1.68H13.24a.84.84,0,0,1,0-1.68Zm18.71,14.69a5,5,0,0,0,5-5v-3.26h5l16.29,12.36a.84.84,0,0,0,1.33-.82h0l-2.15-11.54H82a5,5,0,0,0,5-5v-34a5,5,0,0,0-1.47-3.54h0A5,5,0,0,0,82,441.42H33.74a5.05,5.05,0,0,0-5,5v3.27H8a5,5,0,0,0-5,5v34a5,5,0,0,0,1.47,3.54h0A5,5,0,0,0,8,493.78h.3L6.13,505.31h0a.83.83,0,0,0,1.32.82l16.27-12.35ZM23.46,492.1H56.22a3.38,3.38,0,0,0,2.37-1,3.32,3.32,0,0,0,1-2.37v-34a3.36,3.36,0,0,0-1-2.39h0a3.38,3.38,0,0,0-2.37-1H8a3.36,3.36,0,0,0-2.38,1,3.42,3.42,0,0,0-1,2.39v34a3.41,3.41,0,0,0,1,2.37h0a3.31,3.31,0,0,0,2.38,1H9.42a.82.82,0,0,1,.67,1L8.16,503.49l14.73-11.18a.84.84,0,0,1,.57-.21Zm37.79-8.31h5.24a.78.78,0,0,1,.56.23L81.79,495.2l-1.92-10.41a.84.84,0,0,1,.67-1l.16,0H82a3.34,3.34,0,0,0,3.35-3.35v-34a3.33,3.33,0,0,0-1-2.36v0a3.37,3.37,0,0,0-2.37-1H33.74a3.37,3.37,0,0,0-3.36,3.35v3.27H56.22a5,5,0,0,1,3.56,1.47h0l0,0h0l0,0h0l0,0,0,0h0l0,0h0l0,0h0l0,0,0,0h0l0,0h0v0l0,0h0l0,0,0,0v0l0,0h0l0,0v0h0l0,0h0l0,0h0l0,0v0h0l0,0h0v0l0,0h0l0,0h0v0l0,0h0l0,0v0h0l0,0h0v.06l0,0h0v0h0v.06h0v.06h0v0h0l0,0v0h0l0,0v.06h0l0,0v0h0l0,0h0v0l0,.07h0l0,0v0h0v0h0l0,0v0l0,0h0v.07h0v.05l0,0H76.47a.84.84,0,0,1,0,1.68H61.25v7H73.62a.84.84,0,1,1,0,1.68H61.25v7.53H76.46a.84.84,0,1,1,0,1.67H61.25v11ZM46.54,461.24a.84.84,0,0,1,.84.83.83.83,0,0,1-.84.83H13.24a.83.83,0,0,1-.84-.83.84.84,0,0,1,.84-.83Zm4.37,8.66a.84.84,0,1,1,0,1.68H13.24a.84.84,0,1,1,0-1.68Z"/><circle class="cls-2" cx="45.14" cy="724.27" r="40.27"/><path class="cls-3" d="M40.4,727.67a.54.54,0,0,1,0,1.09H24.67a.54.54,0,1,1,0-1.09Zm12.13,9.52a3.26,3.26,0,0,0,3.26-3.27V731.8H59l10.56,8a.55.55,0,0,0,.86-.53h0L69,731.8h.21a3.26,3.26,0,0,0,3.26-3.26v-22a3.25,3.25,0,0,0-1-2.3h0a3.27,3.27,0,0,0-2.3-1H38a3.28,3.28,0,0,0-3.27,3.26v2.12H21.24A3.27,3.27,0,0,0,18,711.89v22a3.24,3.24,0,0,0,1,2.3h0a3.26,3.26,0,0,0,2.3,1h.2l-1.38,7.47h0a.54.54,0,0,0,.86.53l10.55-8ZM31.29,736.1H52.53a2.19,2.19,0,0,0,1.54-.64,2.15,2.15,0,0,0,.64-1.54v-22a2.18,2.18,0,0,0-.64-1.55h0a2.19,2.19,0,0,0-1.54-.63H21.24a2.18,2.18,0,0,0-1.54.63,2.22,2.22,0,0,0-.64,1.55v22a2.22,2.22,0,0,0,.63,1.54h0a2.15,2.15,0,0,0,1.54.64h.95a.53.53,0,0,1,.43.63l-1.25,6.75,9.55-7.25a.55.55,0,0,1,.37-.14Zm24.49-5.39h3.4a.51.51,0,0,1,.37.15l9.55,7.25-1.25-6.75a.54.54,0,0,1,.44-.63l.1,0h.85a2.17,2.17,0,0,0,2.17-2.17v-22a2.16,2.16,0,0,0-.64-1.53h0a2.18,2.18,0,0,0-1.54-.63H38a2.18,2.18,0,0,0-2.18,2.17v2.12H52.53a3.27,3.27,0,0,1,2.3,1h0v0h0v0h0v0h0l0,0h0l0,0H55l0,0h0l0,0h0l0,0h0l0,0h0l0,0h0v0h0l0,0h0v0h0v0h0v0h0l0,0h0v0h0v0h0v0h0v0h0v0h0l0,0v0h0l0,0v0h0l0,0h0v0h0v0l0,0h0v0h0v0h0l0,0h0v0h0v0h10a.54.54,0,0,1,0,1.09H55.78v4.52h8a.54.54,0,1,1,0,1.09h-8v4.88h9.86a.54.54,0,1,1,0,1.08H55.78v7.15Zm-9.53-14.61a.54.54,0,1,1,0,1.08H24.67a.54.54,0,1,1,0-1.08Zm2.84,5.61a.54.54,0,1,1,0,1.09H24.67a.54.54,0,1,1,0-1.09Z"/></svg>