<svg id="_лой_3" data-name="—лой_3" xmlns="http://www.w3.org/2000/svg" viewBox="0 0 84.11 64.87"><defs><style>.cls-1{fill:#faa61a;fill-rule:evenodd;}</style></defs><title>icon-3</title><path class="cls-1" d="M34.59,37.67a.84.84,0,0,1,0,1.68H10.32a.84.84,0,0,1,0-1.68ZM53.3,52.36a5,5,0,0,0,5-5V44h5L79.59,56.41a.84.84,0,0,0,1.33-.82h0L78.77,44h.32a5,5,0,0,0,5-5V5a5,5,0,0,0-1.47-3.54h0A5,5,0,0,0,79.09,0H30.82a5.05,5.05,0,0,0-5,5V8.3H5a5,5,0,0,0-5,5v34a5,5,0,0,0,1.47,3.54h0A5,5,0,0,0,5,52.36h.3L3.21,63.88h0a.83.83,0,0,0,1.32.82L20.8,52.36ZM20.54,50.68H53.3a3.38,3.38,0,0,0,2.37-1,3.32,3.32,0,0,0,1-2.37v-34a3.36,3.36,0,0,0-1-2.39h0a3.38,3.38,0,0,0-2.37-1H5a3.36,3.36,0,0,0-2.38,1,3.42,3.42,0,0,0-1,2.39v34a3.41,3.41,0,0,0,1,2.37h0a3.31,3.31,0,0,0,2.38,1H6.5a.82.82,0,0,1,.67,1L5.24,62.07,20,50.89a.84.84,0,0,1,.57-.21Zm37.79-8.31h5.24a.78.78,0,0,1,.56.23L78.87,53.77,76.94,43.36a.84.84,0,0,1,.67-1l.16,0h1.31A3.34,3.34,0,0,0,82.44,39V5a3.33,3.33,0,0,0-1-2.36v0a3.37,3.37,0,0,0-2.37-1H30.82A3.37,3.37,0,0,0,27.46,5V8.3H53.3a5,5,0,0,1,3.56,1.47h0l0,0h0l0,0h0l0,0,0,0h0l0,0h0l0,0h0l0,0,0,0h0l0,0h0v0l0,0h0l0,0,0,0v0l0,0h0l0,0v0h0l0,0h0l0,0h0l0,0v0h0l0,0h0v0l0,0h0l0,0h0v0l0,0h0l0,0v0h0l0,0h0v.06l0,0h0v0h0v.06h0V11h0v0h0l0,0v0h0l0,0v.06h0l0,0v0h0l0,0h0v0l0,.07h0l0,0v0h0v0h0l0,0v0l0,0h0v.07h0v.05l0,0H73.55a.84.84,0,0,1,0,1.68H58.33v7H70.7a.84.84,0,1,1,0,1.68H58.33v7.53H73.53a.84.84,0,1,1,0,1.67H58.33v11ZM43.62,19.82a.84.84,0,0,1,.84.83.83.83,0,0,1-.84.83H10.32a.83.83,0,0,1-.84-.83.84.84,0,0,1,.84-.83ZM48,28.47a.84.84,0,1,1,0,1.68H10.32a.84.84,0,1,1,0-1.68Z"/></svg>