<svg id="_лой_3" data-name="—лой_3" xmlns="http://www.w3.org/2000/svg" viewBox="0 0 75.45 57.23"><defs><style>.cls-1{fill:#faa61a;fill-rule:evenodd;}</style></defs><title>icon-2</title><path class="cls-1" d="M1.79,46.7H14.68V35.79H1.79V46.7Zm14.68,8.75H59V1.79H16.47V55.45Zm43.42,1.78H4.74l-.06,0H4.55l-.06,0H4.41l-.06,0H4.28l-.06,0H4.09l-.06,0H3.91l-.06,0h0l-.06,0H3.53l-.06,0h0l0,0-.06,0h0l0,0h0l0,0h0l0,0H3.11l-.06,0H3l-.06,0H3l0,0h0l0,0h0l-.05,0h0l0,0h0l0,0-.06,0h0l0,0h0l0,0h0l0,0h0l0,0h0l0,0h0l0,0,0,0h0l0,0h0l0,0h0l0,0h0l0,0h0l0,0H2l0,0H2l0-.05h0l0,0h0l-.05,0h0l0,0h0l0,0h0l0,0h0l0,0h0l0,0h0l0,0h0l0,0h0l0,0h0l0,0h0l0,0h0l0,0h0l0,0h0l0,0h0l0,0h0l0,0h0l0,0h0l0,0h0l0,0H1l0,0v0l0,0H1l0,0h0l0,0h0l0,0h0l0,0v0l0,0h0l0,0h0l0,0v0l0,0h0l0,0h0l0-.06h0l0-.05h0l0,0h0l0-.06h0l0,0h0v-.07l0,0h0l0,0h0l0-.06h0l0,0v0l0,0h0l0,0h0v-.06h0v-.06h0l0,0h0l0-.07h0v0h0l0-.06h0v-.06h0l0,0h0v-.07h0v-.06h0l0-.06h0v-.07h0v-.06h0v-.06h0v-.06h0v-.07h0v-.06H0v-.06H0v-.07H0v-.07H0v-.06H0v-.07H0v-.06H0v-.07H0v-.07H0V52H0V5.36A5.37,5.37,0,0,1,5.36,0H70.1a5.33,5.33,0,0,1,3.78,1.57h0a5.31,5.31,0,0,1,1.57,3.79V51.88a5.37,5.37,0,0,1-5.35,5.35ZM27.56,14.66,53.3,27.35a.9.9,0,0,1,0,1.61L27.51,41.66a.89.89,0,0,1-1.2-.4.91.91,0,0,1-.1-.39h0V15.44a.9.9,0,0,1,.9-.9.94.94,0,0,1,.44.12ZM50.89,28.14,28,39.42V16.87L50.89,28.14ZM70.1,1.79H60.79v7H73.67V5.36a3.57,3.57,0,0,0-1.05-2.53h0a3.51,3.51,0,0,0-2.52-1ZM60.79,10.6V21.44H73.67V10.6Zm0,12.63V34H73.67V23.23Zm0,12.56V46.7H73.67V35.79Zm0,12.69v7H70.1a3.6,3.6,0,0,0,3.57-3.57v-3.4Zm-46.11,0H1.79v3.4a3.58,3.58,0,0,0,1,2.52h0a3.53,3.53,0,0,0,2.52,1.05h9.31v-7Zm0-46.69H5.36A3.57,3.57,0,0,0,1.79,5.36V8.81H14.68v-7ZM1.79,10.6V21.44H14.68V10.6Zm0,12.63V34H14.68V23.23Z"/></svg>