<svg id="_лой_3" data-name="—лой_3" xmlns="http://www.w3.org/2000/svg" with="89.96" height="1185.2" viewBox="0 0 89.96 1185.2"><defs><style>.cls-1,.cls-2{fill:#faa61a;}.cls-1,.cls-3{fill-rule:evenodd;}.cls-3{fill:#fff;stroke:#fff;stroke-miterlimit:10;}</style></defs><title>icon-sprite</title><path class="cls-1" d="M29.84,20.25v0ZM25.93,46.91l4.87-8.2-1.05-.38-1.1-.41a1.51,1.51,0,0,0-.95,0h0a1.52,1.52,0,0,0-.67.45l-.55.81-3.38,5a1.84,1.84,0,0,0,0,.6,1.62,1.62,0,0,0,.25.55,1.34,1.34,0,0,0,.45.4l2.13,1.23ZM74.72,0H89a1,1,0,0,1,1,1V40a1,1,0,0,1-1,1H74.72a1,1,0,0,1-1-1V38.28l-4.42,2.93,0,0a3.32,3.32,0,0,1,.36,1,3.37,3.37,0,0,1-.23,1.89l-.3.72a22.82,22.82,0,0,1-7.35,9.62l-6.84,5.31a3.37,3.37,0,0,1-3.81.24l-6.34-3.75a3.15,3.15,0,0,1-.74.84l0,0a3.47,3.47,0,0,1-1.18.58,3.34,3.34,0,0,1-1.34.1,3.14,3.14,0,0,1-1.25-.43h0l-17.38-10a3.2,3.2,0,0,1-1.05-.93,3.58,3.58,0,0,1-.58-1.27,3.67,3.67,0,0,1,0-1.4,2.2,2.2,0,0,1,.15-.51l-5.12-4.55V40a1,1,0,0,1-1,1H1a1,1,0,0,1-1-1V1A1,1,0,0,1,1,0H15.25a1,1,0,0,1,1,1v.79L23.31,4a3.39,3.39,0,0,1,2.22,4.26l-.06.16,8.41.72H34l16.31,1.94c1.33-.39,2.71-.74,4.2-1.07l10.29-2.3a3.39,3.39,0,0,1,.33-2.2,3.35,3.35,0,0,1,2-1.67l6.66-2.09V1a1,1,0,0,1,1-1ZM68.08,39.73a1.37,1.37,0,0,1,.17-.14l5.16-3.41a1.07,1.07,0,0,1,.25-.11L65.32,9.58,54.88,11.91c-1.46.33-2.84.68-4.21,1.08h0l-.06,0h0l-1,.3c-1.7.53-3.36,1.14-5.12,1.86L32,20.32l.51,1.08A4.8,4.8,0,0,0,38.17,24l12-3.22a1,1,0,0,1,1,.3L68.08,39.73Zm-35.44-.32.71.3a19.05,19.05,0,0,1,1.74.87c.55.31,1.09.65,1.63,1L31.5,50.12l-3.88-2.24,5-8.47Zm.54,11.68,4.1,2.37L42,45.7l-3.71-2.92-5.09,8.31ZM39,54.43l2.22,1.28h0a1.33,1.33,0,0,0,.52.19,1.54,1.54,0,0,0,1.09-.29h0a1.48,1.48,0,0,0,.34-.42l2.73-4.82a1.48,1.48,0,0,0,.16-1,1.43,1.43,0,0,0-.52-.86l-2-1.6L39,54.43ZM16.67,36.49l5.71,5.08,3-4.24h0A3.35,3.35,0,0,1,27.11,36h0a3.31,3.31,0,0,1,2.2.07l3.37,1.25A24.65,24.65,0,0,1,36,38.89a22.87,22.87,0,0,1,2.47,1.62h0a1,1,0,0,1,.16.13c.14.1.27.2.4.31l7.66,6a3.19,3.19,0,0,1,.87,1l10.23,7.08,2.72-2.12c.34-.27.67-.54,1-.82L47,41a1,1,0,0,1,1.17-1.55L63,50.78A19.66,19.66,0,0,0,64.55,49c.4-.53.78-1.08,1.13-1.66L52.62,35.7a1,1,0,0,1,1.29-1.45L66.65,45.59c.24-.47.46-1,.67-1.48l.3-.72a1.38,1.38,0,0,0-.26-1.54l-17.26-19L38.67,25.89a6.73,6.73,0,0,1-7.89-3.68l-.93-2,0-.07a1,1,0,0,1,.54-1.26l13.43-5.52c.74-.31,1.48-.6,2.19-.86L33.74,11.08h0l-8.81-.77h0L16.67,36.49ZM47.91,50.55a2.87,2.87,0,0,1-.32.77l-1.87,3.28,6.36,3.77a1.52,1.52,0,0,0,.84.2,1.35,1.35,0,0,0,.79-.31l2.51-1.95-8.33-5.76ZM16.22,31.43,23.69,7.68a1.49,1.49,0,0,0-.95-1.83L16.22,3.79V31.43ZM14.28,1.94H1.94V39H14.28V1.94Zm59.46,28V3.8L67.66,5.71a1.43,1.43,0,0,0-.86.71,1.5,1.5,0,0,0-.09,1.12l7,22.36Zm1.95,6.32V39H88V1.94H75.68V36.22Z"/><path class="cls-1" d="M9,220.6H21.93V209.68H9V220.6Zm14.68,8.75H66.25V175.68H23.72v53.66Zm43.42,1.78H12l-.06,0H11.8l-.06,0h-.08l-.06,0h-.07l-.06,0h-.13l-.06,0h-.12l-.06,0h0l-.06,0h-.24l-.06,0h0l0,0-.06,0h0l0,0h0l0,0h0l0,0h-.06l-.06,0h0l-.06,0h0l0,0h0l0,0h0l-.05,0h0l0,0h0l0,0-.06,0h0l0,0h0l0,0h0l0,0h0l0,0h0l0,0h0l0,0,0,0h0l0,0h0l0,0h0l0,0h0l0,0h0l0,0h0l0,0h0l0-.05h0l0,0h0l-.05,0h0l0,0H9l0,0H9l0,0h0l0,0h0l0,0h0l0,0h0l0,0h0l0,0h0l0,0h0l0,0h0l0,0h0l0,0h0l0,0h0l0,0h0l0,0h0l0,0h0l0,0h0l0,0h0l0,0v0l0,0h0l0,0h0l0,0h0l0,0h0l0,0v0l0,0H8l0,0H8l0,0v0l0,0h0l0,0h0l0-.06h0l0-.05h0l0,0h0l0-.06h0l0,0h0V228l0,0h0l0,0h0l0-.06h0l0,0v0l0,0h0l0,0h0v-.06h0v-.06h0l0,0h0l0-.07h0v0h0l0-.06h0v-.06h0l0,0h0V227h0V227h0l0-.06h0v-.07h0v-.06h0v-.06h0v-.06h0v-.07h0v-.06h0v-.06h0v-.07h0v-.07h0v-.06h0v-.07h0v-.06h0V226h0V226h0v-.06h0V179.25a5.37,5.37,0,0,1,5.36-5.36H77.36a5.33,5.33,0,0,1,3.78,1.57h0a5.31,5.31,0,0,1,1.57,3.79v46.52a5.37,5.37,0,0,1-5.35,5.35ZM34.81,188.56l25.74,12.68a.9.9,0,0,1,0,1.61l-25.77,12.7a.89.89,0,0,1-1.2-.4.91.91,0,0,1-.1-.39h0V189.33a.9.9,0,0,1,.9-.9.94.94,0,0,1,.44.12ZM58.14,202,35.26,213.31V190.76L58.14,202Zm19.21-26.35H68v7H80.93v-3.45a3.57,3.57,0,0,0-1.05-2.53h0a3.51,3.51,0,0,0-2.52-1ZM68,184.49v10.84H80.93V184.49Zm0,12.63v10.77H80.93V197.12Zm0,12.56V220.6H80.93V209.68Zm0,12.69v7h9.32a3.6,3.6,0,0,0,3.57-3.57v-3.4Zm-46.11,0H9v3.4a3.58,3.58,0,0,0,1,2.52h0a3.53,3.53,0,0,0,2.52,1.05h9.31v-7Zm0-46.69H12.61A3.57,3.57,0,0,0,9,179.25v3.45H21.93v-7ZM9,184.49v10.84H21.93V184.49Zm0,12.63v10.77H21.93V197.12Z"/><path class="cls-1" d="M37.51,382.18a.84.84,0,0,1,0,1.68H13.24a.84.84,0,0,1,0-1.68Zm18.71,14.69a5,5,0,0,0,5-5v-3.26h5l16.29,12.36a.84.84,0,0,0,1.33-.82h0l-2.15-11.54H82a5,5,0,0,0,5-5v-34A5,5,0,0,0,85.56,346h0A5,5,0,0,0,82,344.51H33.74a5.05,5.05,0,0,0-5,5v3.27H8a5,5,0,0,0-5,5v34a5,5,0,0,0,1.47,3.54h0A5,5,0,0,0,8,396.87h.3L6.13,408.39h0a.83.83,0,0,0,1.32.82l16.27-12.35Zm-32.76-1.68H56.22a3.38,3.38,0,0,0,2.37-1,3.32,3.32,0,0,0,1-2.37v-34a3.36,3.36,0,0,0-1-2.39h0a3.38,3.38,0,0,0-2.37-1H8a3.36,3.36,0,0,0-2.38,1,3.42,3.42,0,0,0-1,2.39v34a3.41,3.41,0,0,0,1,2.37h0a3.31,3.31,0,0,0,2.38,1H9.42a.82.82,0,0,1,.67,1L8.16,406.58,22.89,395.4a.84.84,0,0,1,.57-.21Zm37.79-8.31h5.24a.78.78,0,0,1,.56.23l14.74,11.18-1.92-10.41a.84.84,0,0,1,.67-1l.16,0H82a3.34,3.34,0,0,0,3.35-3.35v-34a3.33,3.33,0,0,0-1-2.36v0a3.37,3.37,0,0,0-2.37-1H33.74a3.37,3.37,0,0,0-3.36,3.35v3.27H56.22a5,5,0,0,1,3.56,1.47h0l0,0h0l0,0h0l0,0,0,0h0l0,0h0l0,0h0l0,0,0,0h0l0,0h0v0l0,0h0l0,0,0,0v0l0,0h0l0,0v0h0l0,0h0l0,0h0l0,0v0h0l0,0h0v0l0,0h0l0,0h0v0l0,0h0l0,0v0h0l0,0h0v.06l0,0h0v0h0v.06h0v.06h0v0h0l0,0v0h0l0,0v.06h0l0,0v0h0l0,0h0v0l0,.07h0l0,0v0h0v0h0l0,0v0l0,0h0v.07h0v.05l0,0H76.47a.84.84,0,0,1,0,1.68H61.25v7H73.62a.84.84,0,1,1,0,1.68H61.25v7.53H76.46a.84.84,0,1,1,0,1.67H61.25v11ZM46.54,364.33a.84.84,0,0,1,.84.83.83.83,0,0,1-.84.83H13.24a.83.83,0,0,1-.84-.83.84.84,0,0,1,.84-.83ZM50.92,373a.84.84,0,1,1,0,1.68H13.24a.84.84,0,1,1,0-1.68Z"/><circle class="cls-2" cx="45.41" cy="563.04" r="40.27"/><path class="cls-3" d="M40.14,566.43a.54.54,0,0,1,0,1.09H24.41a.54.54,0,1,1,0-1.09ZM52.27,576a3.26,3.26,0,0,0,3.26-3.27v-2.12h3.22l10.56,8a.55.55,0,0,0,.86-.53h0l-1.39-7.48H69a3.26,3.26,0,0,0,3.26-3.26v-22a3.25,3.25,0,0,0-1-2.3h0a3.27,3.27,0,0,0-2.3-1H37.7a3.28,3.28,0,0,0-3.27,3.26v2.12H21a3.27,3.27,0,0,0-3.26,3.27v22a3.24,3.24,0,0,0,1,2.3h0a3.26,3.26,0,0,0,2.3,1h.2l-1.38,7.47h0a.54.54,0,0,0,.86.53l10.55-8ZM31,574.86H52.27a2.19,2.19,0,0,0,1.54-.64,2.15,2.15,0,0,0,.64-1.54v-22a2.18,2.18,0,0,0-.64-1.55h0a2.19,2.19,0,0,0-1.54-.63H21a2.18,2.18,0,0,0-1.54.63,2.22,2.22,0,0,0-.64,1.55v22a2.22,2.22,0,0,0,.63,1.54h0a2.15,2.15,0,0,0,1.54.64h.95a.53.53,0,0,1,.43.63l-1.25,6.75L30.66,575a.55.55,0,0,1,.37-.14Zm24.49-5.39h3.4a.51.51,0,0,1,.37.15l9.55,7.25-1.25-6.75a.54.54,0,0,1,.44-.63l.1,0H69a2.17,2.17,0,0,0,2.17-2.17v-22a2.16,2.16,0,0,0-.64-1.53h0A2.18,2.18,0,0,0,69,543.1H37.7a2.18,2.18,0,0,0-2.18,2.17v2.12H52.27a3.27,3.27,0,0,1,2.3,1h0v0h0v0h0v0h0l0,0h0l0,0h.06l0,0h0l0,0h0l0,0h0l0,0h0l0,0h0v0h0l0,0h0v0h0v0h0v0h0l0,0h0v0h0v0h0v0h0v0h0v0h0l0,0v0h0l0,0v0h0l0,0h0v0h0v0l0,0h0v0h0v0h0l0,0h0v0h0v0h10a.54.54,0,0,1,0,1.09H55.52v4.52h8a.54.54,0,1,1,0,1.09h-8v4.88h9.86a.54.54,0,1,1,0,1.08H55.52v7.15ZM46,554.86a.54.54,0,1,1,0,1.08H24.41a.54.54,0,1,1,0-1.08Zm2.84,5.61a.54.54,0,1,1,0,1.09H24.41a.54.54,0,1,1,0-1.09Z"/><circle class="cls-2" cx="45.41" cy="756.97" r="40.27"/><path class="cls-3" d="M33.5,764.35a3.35,3.35,0,0,1,2.37,5.71l0,0a3.34,3.34,0,1,1-2.33-5.74Zm10.1-19.1v-.09a.57.57,0,0,0-.58-.57H24a3.49,3.49,0,0,0-3.48,3.47v24.29A3.48,3.48,0,0,0,24,775.82H43a.57.57,0,0,0,.58-.57v-.53h13a12.81,12.81,0,0,0,12.79-12.79V750.52a3.47,3.47,0,0,0-1-2.45h0A3.46,3.46,0,0,0,66,747H56.43L58.24,734a3.51,3.51,0,0,0-2-3.65h0a3.44,3.44,0,0,0-1.44-.3H53.64a3.44,3.44,0,0,0-3.09,1.87l-7,13.38Zm8-12.85a2.24,2.24,0,0,1,2.06-1.25H54.8a2.33,2.33,0,0,1,1,.2h0a2.29,2.29,0,0,1,.78.59,2.23,2.23,0,0,1,.55,1.84l-1.9,13.75a.58.58,0,0,0,.5.65H66a2.32,2.32,0,0,1,1.64.68h0a2.32,2.32,0,0,1,.68,1.64v11.41a11.65,11.65,0,0,1-11.63,11.63h-13V747.77l8-15.36Zm-9.14,13.32H24a2.33,2.33,0,0,0-2.32,2.32v24.29A2.32,2.32,0,0,0,24,774.68H42.45V745.73ZM35,766.15a2.18,2.18,0,1,0,0,3.12l0,0a2.18,2.18,0,0,0,0-3.09Z"/><circle class="cls-2" cx="45.41" cy="950.9" r="40.27"/><path class="cls-3" d="M21.51,962.71h8.41v-7.12H21.51v7.13Zm9.58,5.71H58.87v-35H31.1v35Zm28.35,1.16h-36l0,0h-.09l0,0h-.13l0,0H23l0,0H22.9l0,0h0l0,0H22.6l0,0h0l0,0h0l0,0h0l0,0h-.08l0,0h0l0,0h0l0,0h0l0,0h0l0,0h0l0,0h0l0,0h0l0,0h0l0,0,0,0h0l0,0h0l0,0h0l0,0h0l0,0h0l0,0h0l0,0h0l0,0h0l0,0h0l0,0h0l0,0h0l0,0h0l0,0h0l0,0h0l0,0h0l0,0h0l0,0h0l0,0h0l0,0h0l0,0h0l0,0h0l0,0h0l0,0h0v0h0l0,0h0l0,0h0l0,0h0l0,0h0l0,0h0l0,0h0l0,0h0l0,0v0l0,0h0v0h0l0,0v0l0,0h0l0,0h0l0,0h0v0h0l0,0h0v0h0l0,0h0v0l0,0h0l0,0h0l0,0h0l0,0v0l0,0h0v0h0v0h0v0h0v0h0l0,0h0v0h0l0,0h0v0h0v0h0v0h0v0h0l0,0h0v0h0v0h0v0h0v0h0v0h0v0h0v0h0v0h0v0h0v0h0v0h0v0h0v0h0v0h0v0h0V935.72a3.51,3.51,0,0,1,3.5-3.5H66.12a3.48,3.48,0,0,1,2.47,1h0a3.46,3.46,0,0,1,1,2.47v30.38a3.51,3.51,0,0,1-3.49,3.49ZM38.34,941.79l16.8,8.28a.58.58,0,0,1,.26.78.56.56,0,0,1-.27.27l-16.83,8.29a.58.58,0,0,1-.84-.51h0V942.3a.59.59,0,0,1,.58-.59.61.61,0,0,1,.29.08Zm15.23,8.8L38.63,958V943.23l14.94,7.36Zm12.54-17.2H60V938h8.41v-2.25a2.33,2.33,0,0,0-.69-1.65h0a2.29,2.29,0,0,0-1.64-.68ZM60,939.14v7.08h8.41v-7.08Zm0,8.25v7h8.41v-7Zm0,8.2v7.13h8.41v-7.12Zm0,8.29v4.55h6.08a2.35,2.35,0,0,0,2.33-2.33v-2.22Zm-30.11,0H21.51v2.22a2.34,2.34,0,0,0,.68,1.64h0a2.3,2.3,0,0,0,1.64.69h6.08v-4.55Zm0-30.48H23.85a2.33,2.33,0,0,0-2.33,2.33V938h8.41v-4.58Zm-8.41,5.75v7.08h8.41v-7.08Zm0,8.25v7h8.41v-7Z"/><circle class="cls-2" cx="45.41" cy="1144.83" r="40.27"/><path class="cls-3" d="M35,1142.08v0Zm-2.58,17.62,3.22-5.41-.7-.25-.73-.27a1,1,0,0,0-.62,0h0a1,1,0,0,0-.45.3l-.37.54-2.23,3.29a1.17,1.17,0,0,0,0,.4,1,1,0,0,0,.16.37.9.9,0,0,0,.3.26l1.41.81Zm32.24-31h9.43a.64.64,0,0,1,.63.64v25.78a.64.64,0,0,1-.63.64H64.63a.65.65,0,0,1-.65-.64V1154l-2.92,1.93h0a2.19,2.19,0,0,1,.24.67,2.23,2.23,0,0,1-.15,1.25l-.2.48a15.09,15.09,0,0,1-4.86,6.36l-4.52,3.51a2.23,2.23,0,0,1-2.52.16l-4.19-2.48a2,2,0,0,1-.49.55l0,0a2.28,2.28,0,0,1-.78.38,2.2,2.2,0,0,1-.89.06,2,2,0,0,1-.82-.29h0L30.35,1160a2.12,2.12,0,0,1-.7-.62,2.37,2.37,0,0,1-.38-.84,2.46,2.46,0,0,1,0-.93,1.44,1.44,0,0,1,.1-.33l-3.38-3v.86a.64.64,0,0,1-.64.64H15.9a.64.64,0,0,1-.64-.64v-25.78a.64.64,0,0,1,.64-.64h9.44a.64.64,0,0,1,.64.64v.52l4.69,1.47a2.24,2.24,0,0,1,1.47,2.82l0,.11,5.56.48h.05L48.48,1136c.88-.26,1.79-.49,2.77-.71l6.8-1.52a2.25,2.25,0,0,1,1.53-2.55l4.4-1.38v-.52a.65.65,0,0,1,.65-.64ZM60.24,1155l.11-.09,3.41-2.26a.67.67,0,0,1,.17-.07L58.42,1135l-6.89,1.54c-1,.22-1.87.45-2.78.72h-.06l-.63.2c-1.12.35-2.22.76-3.38,1.23l-8.26,3.4.34.71a3.17,3.17,0,0,0,3.73,1.73l7.94-2.12a.63.63,0,0,1,.65.2L60.24,1155Zm-23.42-.21.47.2a12.38,12.38,0,0,1,1.15.58c.37.21.72.43,1.08.67l-3.45,5.62-2.56-1.48,3.32-5.6Zm.36,7.72,2.71,1.56,3.1-5.13L40.54,1157l-3.36,5.49Zm3.81,2.2,1.47.85h0a.87.87,0,0,0,.35.13,1,1,0,0,0,.72-.2h0a1,1,0,0,0,.23-.28L45.6,1162a1,1,0,0,0,.1-.66,1,1,0,0,0-.35-.57L44,1159.69l-3,5Zm-14.73-11.85,3.78,3.36,2-2.8h0a2.2,2.2,0,0,1,1.17-.86h0a2.18,2.18,0,0,1,1.45,0l2.23.83a16.18,16.18,0,0,1,2.22,1,14.9,14.9,0,0,1,1.63,1.07h0l.1.09.26.2,5.06,4a2.11,2.11,0,0,1,.57.67l6.76,4.68,1.8-1.4.66-.54-9.66-7.38a.64.64,0,0,1,.77-1l9.83,7.51a12.92,12.92,0,0,0,1-1.19c.26-.35.51-.71.74-1.09L50,1152.29a.64.64,0,0,1,.85-1l8.42,7.5c.16-.31.3-.64.45-1l.2-.48a.92.92,0,0,0-.17-1l-11.4-12.57-7.56,2a4.45,4.45,0,0,1-5.21-2.43l-.62-1.3,0,0a.65.65,0,0,1,.36-.83l8.88-3.65c.49-.21,1-.4,1.44-.57l-8.07-1h0l-5.82-.51h0l-5.44,17.3Zm20.64,9.29a1.89,1.89,0,0,1-.21.51l-1.23,2.16,4.21,2.49a1,1,0,0,0,.56.13.89.89,0,0,0,.52-.2l1.66-1.29-5.5-3.81ZM26,1149.47l4.94-15.7a1,1,0,0,0-.63-1.21L26,1131.21v18.27ZM24.69,1130H16.54v24.5h8.15V1130ZM64,1148.46v-17.25l-4,1.27a.94.94,0,0,0-.57.47,1,1,0,0,0-.06.74L64,1148.46Zm1.29,4.18v1.85h8.15V1130H65.27v22.65Z"/></svg>