<svg id="_лой_3" data-name="—лой_3" xmlns="http://www.w3.org/2000/svg" viewBox="0 0 89.96 60.51"><defs><style>.cls-1{fill:#faa61a;fill-rule:evenodd;}</style></defs><title>icon-1</title><path class="cls-1" d="M29.84,20.25v0ZM25.93,46.91l4.87-8.2-1.05-.38-1.1-.41a1.51,1.51,0,0,0-.95,0h0a1.52,1.52,0,0,0-.67.45l-.55.81-3.38,5a1.84,1.84,0,0,0,0,.6,1.62,1.62,0,0,0,.25.55,1.34,1.34,0,0,0,.45.4l2.13,1.23ZM74.72,0H89a1,1,0,0,1,1,1V40a1,1,0,0,1-1,1H74.72a1,1,0,0,1-1-1V38.28l-4.42,2.93,0,0a3.32,3.32,0,0,1,.36,1,3.37,3.37,0,0,1-.23,1.89l-.3.72a22.82,22.82,0,0,1-7.35,9.62l-6.84,5.31a3.37,3.37,0,0,1-3.81.24l-6.34-3.75a3.15,3.15,0,0,1-.74.84l0,0a3.47,3.47,0,0,1-1.18.58,3.34,3.34,0,0,1-1.34.1,3.14,3.14,0,0,1-1.25-.43h0l-17.38-10a3.2,3.2,0,0,1-1.05-.93,3.58,3.58,0,0,1-.58-1.27,3.67,3.67,0,0,1,0-1.4,2.2,2.2,0,0,1,.15-.51l-5.12-4.55V40a1,1,0,0,1-1,1H1a1,1,0,0,1-1-1V1A1,1,0,0,1,1,0H15.25a1,1,0,0,1,1,1v.79L23.31,4a3.39,3.39,0,0,1,2.22,4.26l-.06.16,8.41.72H34l16.31,1.94c1.33-.39,2.71-.74,4.2-1.07l10.29-2.3a3.39,3.39,0,0,1,.33-2.2,3.35,3.35,0,0,1,2-1.67l6.66-2.09V1a1,1,0,0,1,1-1ZM68.08,39.73a1.37,1.37,0,0,1,.17-.14l5.16-3.41a1.07,1.07,0,0,1,.25-.11L65.32,9.58,54.88,11.91c-1.46.33-2.84.68-4.21,1.08h0l-.06,0h0l-1,.3c-1.7.53-3.36,1.14-5.12,1.86L32,20.32l.51,1.08A4.8,4.8,0,0,0,38.17,24l12-3.22a1,1,0,0,1,1,.3L68.08,39.73Zm-35.44-.32.71.3a19.05,19.05,0,0,1,1.74.87c.55.31,1.09.65,1.63,1L31.5,50.12l-3.88-2.24,5-8.47Zm.54,11.68,4.1,2.37L42,45.7l-3.71-2.92-5.09,8.31ZM39,54.43l2.22,1.28h0a1.33,1.33,0,0,0,.52.19,1.54,1.54,0,0,0,1.09-.29h0a1.48,1.48,0,0,0,.34-.42l2.73-4.82a1.48,1.48,0,0,0,.16-1,1.43,1.43,0,0,0-.52-.86l-2-1.6L39,54.43ZM16.67,36.49l5.71,5.08,3-4.24h0A3.35,3.35,0,0,1,27.11,36h0a3.31,3.31,0,0,1,2.2.07l3.37,1.25A24.65,24.65,0,0,1,36,38.89a22.87,22.87,0,0,1,2.47,1.62h0a1,1,0,0,1,.16.13c.14.1.27.2.4.31l7.66,6a3.19,3.19,0,0,1,.87,1l10.23,7.08,2.72-2.12c.34-.27.67-.54,1-.82L47,41a1,1,0,0,1,1.17-1.55L63,50.78A19.66,19.66,0,0,0,64.55,49c.4-.53.78-1.08,1.13-1.66L52.62,35.7a1,1,0,0,1,1.29-1.45L66.65,45.59c.24-.47.46-1,.67-1.48l.3-.72a1.38,1.38,0,0,0-.26-1.54l-17.26-19L38.67,25.89a6.73,6.73,0,0,1-7.89-3.68l-.93-2,0-.07a1,1,0,0,1,.54-1.26l13.43-5.52c.74-.31,1.48-.6,2.19-.86L33.74,11.08h0l-8.81-.77h0L16.67,36.49ZM47.91,50.55a2.87,2.87,0,0,1-.32.77l-1.87,3.28,6.36,3.77a1.52,1.52,0,0,0,.84.2,1.35,1.35,0,0,0,.79-.31l2.51-1.95-8.33-5.76ZM16.22,31.43,23.69,7.68a1.49,1.49,0,0,0-.95-1.83L16.22,3.79V31.43ZM14.28,1.94H1.94V39H14.28V1.94Zm59.46,28V3.8L67.66,5.71a1.43,1.43,0,0,0-.86.71,1.5,1.5,0,0,0-.09,1.12l7,22.36Zm1.95,6.32V39H88V1.94H75.68V36.22Z"/></svg>