<?xml version="1.0" encoding="utf-8"?>
<!-- Generator: Adobe Illustrator 20.0.0, SVG Export Plug-In . SVG Version: 6.00 Build 0)  -->
<svg version="1.1" id="_x2014_лой_x5F_3" xmlns="http://www.w3.org/2000/svg" xmlns:xlink="http://www.w3.org/1999/xlink"
	 x="0px" y="0px" viewBox="0 0 193 702.9" style="enable-background:new 0 0 193 702.9;" xml:space="preserve">
<style type="text/css">
	.st0{fill:none;stroke:#3FBCA6;stroke-width:3;stroke-linecap:round;stroke-miterlimit:10;}
</style>
<g>
	<polygon class="st0" points="129.5,76.1 1.5,76.1 1.5,29.6 65.5,3.6 129.5,29.6 	"/>
</g>
<g>
	<polygon class="st0" points="129.5,204.5 1.5,204.5 1.5,158 65.5,132 129.5,158 	"/>
	<polygon class="st0" points="130.5,173.2 161.5,180.5 161.5,204.4 130.5,204.4 	"/>
</g>
<g>
	<polygon class="st0" points="104.5,282.5 104.5,267.4 92.5,267.4 92.5,276.2 65.3,262 1.5,295.4 1.5,362.4 129.5,362.4 
		129.5,295.4 	"/>
</g>
<g>
	<polygon class="st0" points="129.5,478.3 160.5,490.9 160.5,526.4 129.5,526.4 	"/>
	<polygon class="st0" points="104.5,446.2 104.5,431.4 92.5,431.4 92.5,439.9 65.3,425.7 1.5,459 1.5,526.4 129.5,526.4 129.5,459 	
		"/>
</g>
<g>
	<polygon class="st0" points="135.5,604.2 135.5,589.4 123.5,589.4 123.5,597.9 96.3,583.7 32.5,617 32.5,699.4 160.5,699.4 
		160.5,617 	"/>
	<polygon class="st0" points="1.5,699.4 32.5,699.4 32.5,637.7 1.5,649.2 	"/>
	<polygon class="st0" points="191.5,699.4 160.5,699.4 160.5,656.7 191.5,668.2 	"/>
</g>
</svg>
