<svg id="_лой_3" data-name="—лой_3" xmlns="http://www.w3.org/2000/svg" viewBox="0 0 57.4 57.39"><defs><style>.cls-1{fill:#faa61a;}.cls-2{fill:#fff;}</style></defs><title>kl-icon-3</title><circle class="cls-1" cx="28.7" cy="28.7" r="28.7"/><path class="cls-2" d="M30.59,15.43a.54.54,0,0,1-.11-1.06c.2,0,4.81-1,4.81-5.45a.54.54,0,0,1,.54-.54h0a.54.54,0,0,1,.54.54c0,5.3-5.61,6.49-5.67,6.5Z"/><path class="cls-2" d="M41.22,15.43h-.11c-.06,0-5.67-1.2-5.67-6.5A.54.54,0,0,1,36,8.38h0a.54.54,0,0,1,.54.54c0,4.43,4.76,5.44,4.81,5.45a.54.54,0,0,1-.1,1.06Z"/><path class="cls-2" d="M35.83,21.66h0a.54.54,0,0,1-.54-.54c0-4.43-4.76-5.44-4.81-5.45a.54.54,0,0,1,.21-1.05c.06,0,5.67,1.2,5.67,6.5A.54.54,0,0,1,35.83,21.66Z"/><path class="cls-2" d="M36,21.66a.54.54,0,0,1-.54-.54c0-5.3,5.61-6.49,5.67-6.5a.54.54,0,0,1,.21,1.05c-.2,0-4.81,1-4.81,5.45A.54.54,0,0,1,36,21.66Z"/><path class="cls-2" d="M41.41,24.07A.54.54,0,0,1,41.3,23c.1,0,2.58-.56,2.58-2.91a.54.54,0,0,1,.54-.54h0a.54.54,0,0,1,.54.54,4.17,4.17,0,0,1-3.44,4Z"/><path class="cls-2" d="M47.53,24.07h-.11a4.17,4.17,0,0,1-3.44-4,.53.53,0,0,1,.54-.54h0a.54.54,0,0,1,.54.54c0,2.37,2.48,2.89,2.58,2.91a.54.54,0,0,1-.1,1.06Z"/><path class="cls-2" d="M44.42,27.66h0a.54.54,0,0,1-.54-.54c0-2.37-2.48-2.89-2.58-2.91a.54.54,0,0,1,.21-1.05,4.17,4.17,0,0,1,3.44,4A.54.54,0,0,1,44.42,27.66Z"/><path class="cls-2" d="M44.52,27.66a.54.54,0,0,1-.54-.54,4.17,4.17,0,0,1,3.44-4,.54.54,0,0,1,.21,1.05c-.1,0-2.58.56-2.58,2.91a.54.54,0,0,1-.54.54Z"/><path class="cls-2" d="M40.34,23.3a.54.54,0,0,1-.5-.33,15.87,15.87,0,0,0-2-3.57.54.54,0,0,1,.85-.65,17,17,0,0,1,2.18,3.81.53.53,0,0,1-.29.7A.54.54,0,0,1,40.34,23.3Z"/><path class="cls-2" d="M25.12,46a17,17,0,1,1,5.82-33,.54.54,0,0,1-.37,1,15.91,15.91,0,1,0,.08,29.88A.54.54,0,1,1,31,45,16.92,16.92,0,0,1,25.12,46Z"/><path class="cls-2" d="M34.27,23.48a.54.54,0,0,1-.45-.24c-.13-.2-.27-.4-.42-.59a.54.54,0,0,1,.85-.65c.16.21.32.43.46.65a.54.54,0,0,1-.45.83Z"/><path class="cls-2" d="M22.75,40.1h-.12A11.43,11.43,0,1,1,32.92,20.54a.54.54,0,0,1-.72.79A10.35,10.35,0,1,0,22.87,39a.54.54,0,0,1-.12,1.06Z"/><path class="cls-2" d="M25.19,40.38h-.46a.54.54,0,0,1,0-1.07,10.88,10.88,0,0,0,1.3,0,.54.54,0,1,1,.09,1.07C25.84,40.37,25.52,40.38,25.19,40.38Z"/><path class="cls-2" d="M36.35,46.21A10.65,10.65,0,1,1,47,35.55,10.66,10.66,0,0,1,36.35,46.21Zm0-20.23a9.58,9.58,0,1,0,9.58,9.58A9.59,9.59,0,0,0,36.35,26Z"/><path class="cls-2" d="M36.39,42.74a7.23,7.23,0,1,1,7.23-7.23A7.24,7.24,0,0,1,36.39,42.74Zm0-13.39a6.16,6.16,0,1,0,6.16,6.16A6.17,6.17,0,0,0,36.39,29.35Z"/></svg>