<svg id="_лой_3" data-name="—лой_3" xmlns="http://www.w3.org/2000/svg" viewBox="0 0 57.64 57.64"><defs><style>.cls-1{fill:#faa61a;}.cls-2{fill:#fff;}</style></defs><title>kl-icon-2</title><circle class="cls-1" cx="28.82" cy="28.82" r="28.82"/><path class="cls-2" d="M20.81,53A3.11,3.11,0,0,1,18.44,52a3.72,3.72,0,0,1-.74-3.39,13.59,13.59,0,0,1,1.24-2.84,11.78,11.78,0,0,0,1.31-3.2.55.55,0,0,1,.61-.44L21,42a.55.55,0,0,1,.68.38,18.82,18.82,0,0,0,.83,2c1,2.33,2.34,5.23,1.32,7.06A3.16,3.16,0,0,1,21.28,53,3.5,3.5,0,0,1,20.81,53ZM21,43.85a17.28,17.28,0,0,1-1.11,2.39,12.75,12.75,0,0,0-1.14,2.61,2.6,2.6,0,0,0,.5,2.38,2,2,0,0,0,1.87.66A2.12,2.12,0,0,0,22.84,51c.75-1.35-.47-4.08-1.36-6.07Z"/><path class="cls-2" d="M41.33,32.18h-.1A2.31,2.31,0,0,1,38.85,30v-3.2a.55.55,0,0,1,1.1,0V30a1.23,1.23,0,0,0,1.28,1.12h.1A1.19,1.19,0,0,0,42.58,30V18.16a1.34,1.34,0,0,0-1.25-1.3h-.1A1.38,1.38,0,0,0,40,18.16v2.55a.55.55,0,0,1-1.1,0V18.16a2.49,2.49,0,0,1,2.38-2.4h.1a2.44,2.44,0,0,1,2.35,2.4V30A2.29,2.29,0,0,1,41.33,32.18Z"/><path class="cls-2" d="M39.4,24.21a.55.55,0,0,1-.55-.55V23A.55.55,0,0,1,40,23v.62A.55.55,0,0,1,39.4,24.21Z"/><path class="cls-2" d="M26.18,40.66H14.53a2.25,2.25,0,0,1-2.17-2.27v-.13A2.23,2.23,0,0,1,14.53,36h6.56a.55.55,0,1,1,0,1.1H14.53a1.11,1.11,0,0,0-1.07,1.13v.13a1.15,1.15,0,0,0,1.07,1.16H26.18a1.17,1.17,0,0,0,1.08-1.16v-.13a1.13,1.13,0,0,0-1.08-1.12H24A.55.55,0,1,1,24,36h2.2a2.23,2.23,0,0,1,2.18,2.23v.13A2.26,2.26,0,0,1,26.18,40.66Z"/><path class="cls-2" d="M15.39,35.59a.55.55,0,0,1-.55-.55V25.17c0-3.93,2.94-6.68,7.5-7,4.19-.32,15.07-.21,15.54-.2a.55.55,0,0,1,0,1.1c-.11,0-11.3-.12-15.44.2s-6.48,2.57-6.48,5.93V35A.55.55,0,0,1,15.39,35.59Z"/><path class="cls-2" d="M27.81,17.37a.55.55,0,0,1-.55-.55V13.3a.55.55,0,0,1,1.1,0v3.52A.55.55,0,0,1,27.81,17.37Z"/><path class="cls-2" d="M21.48,14.84h-.23a2.79,2.79,0,0,1-2-1.16A5.43,5.43,0,0,1,18.87,8a3.24,3.24,0,0,1,3.34-1.68,4.61,4.61,0,0,1,2.86,1.52l.53.48A4.68,4.68,0,0,0,29,9.19a.55.55,0,0,1,0,1.1,5.7,5.7,0,0,1-4.08-1.12l-.56-.5a3.58,3.58,0,0,0-2.24-1.23,2.17,2.17,0,0,0-2.26,1.14A4.39,4.39,0,0,0,20.09,13a1.69,1.69,0,0,0,1.25.72,3,3,0,0,0,2.19-.94c1.63-1.59,2.76-2.22,5.12-1.74a.55.55,0,0,1-.22,1.08c-1.87-.38-2.68,0-4.13,1.45A4.17,4.17,0,0,1,21.48,14.84Z"/><path class="cls-2" d="M36.87,14.84A4.17,4.17,0,0,1,34,13.58c-1.46-1.42-2.26-1.83-4.14-1.45A.55.55,0,1,1,29.7,11c2.37-.47,3.49.16,5.12,1.74a3,3,0,0,0,2.19.94A1.68,1.68,0,0,0,38.26,13a4.39,4.39,0,0,0,.26-4.44,2.17,2.17,0,0,0-2.26-1.14A3.58,3.58,0,0,0,34,8.67l-.56.5a5.7,5.7,0,0,1-4.08,1.12.55.55,0,0,1,0-1.1,4.68,4.68,0,0,0,3.36-.85l.53-.48a4.6,4.6,0,0,1,2.86-1.52A3.24,3.24,0,0,1,39.48,8a5.43,5.43,0,0,1-.34,5.64,2.78,2.78,0,0,1-2,1.16Z"/><path class="cls-2" d="M30.09,17.58a.55.55,0,0,1-.55-.55V13.51a.55.55,0,1,1,1.1,0V17A.55.55,0,0,1,30.09,17.58Z"/><path class="cls-2" d="M25.74,35.59a.55.55,0,0,1-.55-.55V31a2.05,2.05,0,0,1,2.08-2.16h12a.55.55,0,1,1,0,1.1h-12a1,1,0,0,0-1,1.06V35A.55.55,0,0,1,25.74,35.59Z"/><path class="cls-2" d="M37,27.41H35.37a.55.55,0,1,1,0-1.1H37a.55.55,0,1,1,0,1.1Z"/><path class="cls-2" d="M22.22,30h0a.55.55,0,0,1-.54-.57,3.15,3.15,0,0,1,3.12-3.12h6a.55.55,0,1,1,0,1.1h-6a2,2,0,0,0-2,2A.55.55,0,0,1,22.22,30Z"/><path class="cls-2" d="M22.22,33.11a.55.55,0,0,1-.55-.55v-.83a.55.55,0,1,1,1.1,0v.83A.55.55,0,0,1,22.22,33.11Z"/></svg>