<svg id="_лой_3" data-name="—лой_3" xmlns="http://www.w3.org/2000/svg" viewBox="0 0 57.4 57.39"><defs><style>.cls-1{fill:#faa61a;}.cls-2{fill:#fff;}</style></defs><title>kl-icon-1</title><circle class="cls-1" cx="28.7" cy="28.7" r="28.7"/><path class="cls-2" d="M25,38a.54.54,0,0,1-.54-.54V33.75a.54.54,0,0,1,1.07,0V37.5A.54.54,0,0,1,25,38Z"/><path class="cls-2" d="M39.59,35.24a.54.54,0,0,1-.54-.53c0-.44,0-.85,0-1.2a.54.54,0,0,1,1.07.07c0,.32,0,.71,0,1.12a.53.53,0,0,1-.53.54Z"/><path class="cls-2" d="M41.47,42.24a.53.53,0,0,1-.39-.17c-1.19-1.27-1.68-3.58-1.88-5.29a.54.54,0,0,1,1.06-.13,8.72,8.72,0,0,0,1.6,4.68.54.54,0,0,1-.39.9Z"/><path class="cls-2" d="M36.51,35h0a.54.54,0,0,1-.51-.56c0-.16,0-.31,0-.45a.54.54,0,0,1,1.07.09c0,.13,0,.26,0,.41A.54.54,0,0,1,36.51,35Z"/><path class="cls-2" d="M38,42.15a.53.53,0,0,1-.4-.18c-1.26-1.41-1.58-4.18-1.66-5.7A.54.54,0,1,1,37,36.22c.12,2.36.63,4.19,1.39,5a.54.54,0,0,1-.4.89Z"/><path class="cls-2" d="M34.6,42.06a.54.54,0,0,1-.41-.19c-1.52-1.8-1.42-6.06-1.26-7.41a.54.54,0,0,1,1.07.12c-.22,1.92-.05,5.34,1,6.6a.54.54,0,0,1-.06.76A.53.53,0,0,1,34.6,42.06Z"/><path class="cls-2" d="M31.16,42a.53.53,0,0,1-.42-.2c-1.32-1.66-1.09-5.5-.89-6.84a.54.54,0,1,1,1.06.16c-.26,1.76-.23,4.88.67,6a.54.54,0,0,1-.09.75A.53.53,0,0,1,31.16,42Z"/><path class="cls-2" d="M43,32.14H15.8a1.45,1.45,0,0,1-1.4-1.43V24.77a.54.54,0,0,1,1.07,0v5.94a.38.38,0,0,0,.33.36H43a.38.38,0,0,0,.33-.36V27.86a3.51,3.51,0,0,0-3.78-3.63H25.8a.54.54,0,0,1,0-1.07H39.58a4.57,4.57,0,0,1,4.85,4.7v2.85A1.45,1.45,0,0,1,43,32.14Z"/><path class="cls-2" d="M14.95,25.28a.54.54,0,0,1-.53-.49c0-.2,0-1,0-2,0-.49,0-.94,0-1.05-.13-3,.29-6.2,4.38-7.92a18.07,18.07,0,0,1,5.56-1c2.28-.08,16.48-.05,17.41,0A2.54,2.54,0,0,1,44,14.93a2.28,2.28,0,0,1-1.09,2.59,4.63,4.63,0,0,1-2.42.32l-.57,0H39.7c-3.28,0-11.23-.12-14.28.12-1.26.1-2,.42-2.37,1.08a3.1,3.1,0,0,0-.33,2.21,2.73,2.73,0,0,0,2.59,1.95.54.54,0,1,1-.1,1.07,3.73,3.73,0,0,1-3.54-2.78,4.15,4.15,0,0,1,.46-3,3.8,3.8,0,0,1,3.2-1.59c3.1-.24,11.08-.17,14.38-.12h.17l.61,0a3.71,3.71,0,0,0,1.87-.2,1.24,1.24,0,0,0,.53-1.42,1.48,1.48,0,0,0-1.27-1.25c-.92-.06-15-.09-17.31,0a17.3,17.3,0,0,0-5.18.88C16.34,16,15.26,18,15.42,21.67c0,.12,0,.49,0,1.08s0,1.78,0,2a.54.54,0,0,1-.49.58Z"/><path class="cls-2" d="M13.81,42.54a.54.54,0,0,1-.46-.81s2.52-4.41,2.09-8.75a.54.54,0,0,1,1.07-.1,17.06,17.06,0,0,1-1.81,8.58l29.59-.27A17.76,17.76,0,0,1,42.12,33a.54.54,0,0,1,1.07,0c.23,5.61,2.48,8.44,2.5,8.47a.54.54,0,0,1,.07.57.53.53,0,0,1-.48.31l-31.47.29Z"/><path class="cls-2" d="M20.2,41.59h-.05a.54.54,0,0,1-.48-.59l.48-4.75a.54.54,0,1,1,1.07.11l-.48,4.75A.53.53,0,0,1,20.2,41.59Z"/><path class="cls-2" d="M7.21,38.68a2,2,0,1,1,2-2A2,2,0,0,1,7.21,38.68Zm0-2.88a.91.91,0,1,0,.91.91A.91.91,0,0,0,7.21,35.8Z"/><path class="cls-2" d="M12.47,35.85a1.41,1.41,0,1,1,1.41-1.41A1.41,1.41,0,0,1,12.47,35.85Zm0-1.74a.34.34,0,1,0,.34.34A.34.34,0,0,0,12.47,34.1Z"/><circle class="cls-2" cx="10.5" cy="40.13" r="0.65"/><path class="cls-2" d="M41.31,29.89a.54.54,0,0,1-.54-.54c0-.28,0-.54,0-.8.07-.83.09-1.36-.32-1.83a1.08,1.08,0,0,0-.48-.34.54.54,0,0,1,.34-1,2.13,2.13,0,0,1,.95.65,3.24,3.24,0,0,1,.58,2.62c0,.25,0,.48,0,.71A.54.54,0,0,1,41.31,29.89Z"/><path class="cls-2" d="M38.88,26.28h0l-.27,0a.54.54,0,1,1,.11-1.07l.22,0a.54.54,0,0,1,0,1.07Z"/><path class="cls-2" d="M20,23.27a.54.54,0,0,1-.47-.27,5.51,5.51,0,0,1-.26-4.89.54.54,0,0,1,1,.48,4.48,4.48,0,0,0,.24,3.89.54.54,0,0,1-.21.73A.53.53,0,0,1,20,23.27Z"/><path class="cls-2" d="M20.64,17.86a.54.54,0,0,1-.31-1,3.27,3.27,0,0,1,.39-.23.54.54,0,0,1,.48,1l-.26.15A.53.53,0,0,1,20.64,17.86Z"/></svg>