<svg id="_лой_3" data-name="—лой_3" xmlns="http://www.w3.org/2000/svg" viewBox="0 0 57.4 57.39"><defs><style>.cls-1{fill:#faa61a;}.cls-2{fill:#fff;}</style></defs><title>kl-icon-6</title><circle class="cls-1" cx="28.7" cy="28.7" r="28.7"/><path class="cls-2" d="M43.77,41.74a.69.69,0,0,0,.48-.2.69.69,0,0,0,.2-.48.68.68,0,0,0-.2-.48.7.7,0,0,0-1,0,.68.68,0,0,0-.2.48.68.68,0,0,0,.68.68Z"/><path class="cls-2" d="M50.14,35.4h0a.63.63,0,0,0,.59-.7h0a.64.64,0,0,0-.23-.54h0a.68.68,0,0,0-1.11.54.54.54,0,0,0,0,.06A.74.74,0,0,0,50.14,35.4Z"/><path class="cls-2" d="M47.19,38.64h0a.63.63,0,0,0,.59-.7h0a.64.64,0,0,0-.23-.54h0a.68.68,0,0,0-1.11.54.57.57,0,0,0,0,.06A.74.74,0,0,0,47.19,38.64Z"/><path class="cls-2" d="M47.45,41.66h0A.63.63,0,0,0,48,41h0a.64.64,0,0,0-.23-.54h0a.68.68,0,0,0-.47-.14.68.68,0,0,0-.63.68s0,0,0,.06A.74.74,0,0,0,47.45,41.66Z"/><path class="cls-2" d="M50,37.61a.7.7,0,0,0,.16.44.81.81,0,0,0,.57.28h0c.37,0,.58-.34.58-.71h0a.63.63,0,0,0-.43-.63h0a.68.68,0,0,0-.67.12A.69.69,0,0,0,50,37.61Z"/><path class="cls-2" d="M51.52,41a.7.7,0,0,0-.5-.64h0a.68.68,0,0,0-.92.64.66.66,0,0,0,.11.36.74.74,0,0,0,.62.33h0a.71.71,0,0,0,.72-.67Z"/><path class="cls-2" d="M21.3,30.41a4.93,4.93,0,1,0,4.93,4.93A4.94,4.94,0,0,0,21.3,30.41Zm0,8.49a3.56,3.56,0,1,1,3.56-3.56A3.57,3.57,0,0,1,21.3,38.91Z"/><path class="cls-2" d="M29.34,29.51v0a11.85,11.85,0,0,1-1.09-1.25h0A10,10,0,1,0,15,43.25a8.45,8.45,0,0,1-7.72-8.41c0-3.38,3.32-7.12,5.08-8.62.18-.16.47-.46.91-.93a39.55,39.55,0,0,1,5.34-4.92A.69.69,0,0,0,19.1,20a6.69,6.69,0,0,1,3.41-1.31c2.5,0,4.38.25,5.38,1.48.86,1.05,1.11,2.92.77,5.67a.49.49,0,0,1,.08.16,2.14,2.14,0,0,0,.19.46.46.46,0,0,1,.27.08.78.78,0,0,0,.32.13,1.48,1.48,0,0,0,.47-.45c.43-3.24.11-5.44-1-6.84l.33-1A2.76,2.76,0,0,0,27.67,15l-1.4-.49a2.68,2.68,0,0,0-3.35,1.73l-.25.73a.69.69,0,0,0,0,.41h-.13a8.1,8.1,0,0,0-4.22,1.58l-1.2,0c-2.37-.08-3.56-.13-4.79.77A56,56,0,0,0,8,23.51l-.25.24a6,6,0,0,0-1.2,3.15.64.64,0,0,0,0,.15c0,.08.24,2,.35,2.8a.68.68,0,0,0,.29.46,9.57,9.57,0,0,0-1.34,4.53,9.82,9.82,0,0,0,9.81,9.81,7.57,7.57,0,0,0,.89-.05.66.66,0,0,0,.32-.13,10,10,0,0,0,12.45-15ZM24.2,16.65a1.31,1.31,0,0,1,1.61-.89l1.4.49A1.39,1.39,0,0,1,28,18l-.14.41a8.1,8.1,0,0,0-3.94-1ZM8.72,24.74,9,24.5c.91-.88,3-2.94,4.14-3.74.77-.56,1.59-.57,3.37-.51a47.69,47.69,0,0,0-4.24,4.09c-.36.39-.68.72-.81.83A20.38,20.38,0,0,0,8.17,28.8c-.09-.72-.2-1.57-.23-1.83A4.54,4.54,0,0,1,8.72,24.74ZM21.23,44.09a8.67,8.67,0,1,1,8.67-8.67A8.68,8.68,0,0,1,21.23,44.09Z"/><path class="cls-2" d="M21,34.79a.69.69,0,0,0-.2.48.7.7,0,0,0,.2.48.69.69,0,0,0,1,0,.7.7,0,0,0,.2-.48.69.69,0,0,0-.2-.48A.7.7,0,0,0,21,34.79Z"/><path class="cls-2" d="M27.1,14.59a.68.68,0,0,0,.89-.37,4,4,0,0,1,4-2.78A5.47,5.47,0,0,1,36.7,15.9c.77,3.17.58,10.78.41,17.5C37,35.63,37,37.16,37,39a.68.68,0,0,0,.68.69h0a.68.68,0,0,0,.68-.67c0-1.83.07-3.35.12-5.59.17-6.8.37-14.51-.45-17.86a6.85,6.85,0,0,0-5.88-5.49,5.34,5.34,0,0,0-5.42,3.62A.68.68,0,0,0,27.1,14.59Z"/><path class="cls-2" d="M34.06,41.16a.68.68,0,0,0,.68.68H40.4a.68.68,0,1,0,0-1.37H34.74A.68.68,0,0,0,34.06,41.16Z"/><path class="cls-2" d="M30.35,43.89a.68.68,0,0,0,.68.68H45.28a.68.68,0,0,0,0-1.37H31A.68.68,0,0,0,30.35,43.89Z"/></svg>