<svg id="_лой_3" data-name="—лой_3" xmlns="http://www.w3.org/2000/svg" viewBox="0 0 57.47 57.47"><defs><style>.cls-1{fill:#faa61a;}.cls-2{fill:#fff;}</style></defs><title>kl-icon-9</title><circle class="cls-1" cx="28.73" cy="28.73" r="28.73"/><path class="cls-2" d="M30.12,38.28H30a.61.61,0,0,1-.47-.72c.08-.37.15-.74.22-1.1,0-.13,0-.26.07-.38a.61.61,0,1,1,1.19.25l-.07.35c-.07.38-.14.76-.23,1.14A.61.61,0,0,1,30.12,38.28Z"/><path class="cls-2" d="M23.75,45.73a16.61,16.61,0,0,1-5.32-1c-4-1.49-6.77-4.29-7.68-7.68a9.32,9.32,0,0,1,2.06-8.45A9.69,9.69,0,0,1,16,26.17a16.17,16.17,0,0,0,1.76-1l.6-.42a15.52,15.52,0,0,0,3.48-3,13.64,13.64,0,0,0,1.78-4.64c.06-.25.13-.5.19-.73a10.27,10.27,0,0,1,6.31-7,8.79,8.79,0,0,1,5.7.27A18.84,18.84,0,0,1,41.61,14c1.62,2.06,2.92,4,2.48,7a8.17,8.17,0,0,1-2.64,4.49,29.83,29.83,0,0,1-3.08,2,20.54,20.54,0,0,0-3,2.05,16.47,16.47,0,0,0-3.15,3.76.61.61,0,1,1-1.05-.61,17.65,17.65,0,0,1,3.37-4,20.93,20.93,0,0,1,3.25-2.21,29.15,29.15,0,0,0,2.94-1.92,7,7,0,0,0,2.2-3.72c.37-2.51-.75-4.17-2.24-6.07a17.84,17.84,0,0,0-5.27-3.9,7.51,7.51,0,0,0-4.86-.26A9,9,0,0,0,25,16.68l-.19.71a14.33,14.33,0,0,1-2,5.1,16.75,16.75,0,0,1-3.72,3.22l-.59.41a17.46,17.46,0,0,1-1.89,1.12,8.62,8.62,0,0,0-2.84,2.07,8.14,8.14,0,0,0-1.82,7.37c.8,3,3.39,5.53,6.93,6.86a14.32,14.32,0,0,0,5.48.95,4.77,4.77,0,0,0,4.39-3.81v0a.61.61,0,1,1,1.16.36v0a6,6,0,0,1-5.45,4.68Z"/><path class="cls-2" d="M35.86,22.92a.61.61,0,0,1-.28-1.15,1.1,1.1,0,0,0,.38-.28,1,1,0,0,0,.19-.73,1,1,0,1,0-1.74.83.61.61,0,1,1-.91.8,2.22,2.22,0,1,1,3.84-1.81,2.2,2.2,0,0,1-.41,1.63,2.26,2.26,0,0,1-.8.64A.58.58,0,0,1,35.86,22.92Z"/><path class="cls-2" d="M38.62,18.81a1.44,1.44,0,0,1-1.16-2.31,1.44,1.44,0,1,1,1.16,2.31Zm0-1.67a.23.23,0,0,0-.18.09.22.22,0,0,0,0,.17.23.23,0,0,0,.23.2.22.22,0,0,0,.18-.09.22.22,0,0,0,0-.17.23.23,0,0,0-.09-.15A.21.21,0,0,0,38.62,17.14Z"/><path class="cls-2" d="M18.94,37.48a1.44,1.44,0,1,1,1.16-.58A1.44,1.44,0,0,1,18.94,37.48Zm0-1.67a.23.23,0,0,0-.23.26.23.23,0,0,0,.09.15.22.22,0,0,0,.13,0,.23.23,0,0,0,.18-.09.22.22,0,0,0,0-.17.22.22,0,0,0-.09-.15A.22.22,0,0,0,18.94,35.81Z"/><path class="cls-2" d="M39.91,21.85a1.15,1.15,0,0,1-1.13-1A1.14,1.14,0,0,1,39,20a1.15,1.15,0,0,1,.91-.46,1.14,1.14,0,0,1,1.13,1,1.11,1.11,0,0,1-.21.85A1.14,1.14,0,0,1,39.91,21.85Zm0-1.21a.07.07,0,0,0-.05,0,.06.06,0,0,0,0,.05.07.07,0,0,0,0,0,.08.08,0,0,0,.1,0,.09.09,0,0,0,0-.05.07.07,0,0,0,0,0Z"/><path class="cls-2" d="M16.8,34a2.2,2.2,0,1,1,1.26-4,.61.61,0,0,1-.7,1,1,1,0,1,0,.23,1.4,1,1,0,0,0,.18-.42.61.61,0,0,1,1.2.21A2.2,2.2,0,0,1,16.8,34Z"/><path class="cls-2" d="M14.48,36.84h0a1.07,1.07,0,0,1-.65-.22,1.09,1.09,0,1,1,1.52-.22A1.1,1.1,0,0,1,14.48,36.84Zm0-1.21a.13.13,0,0,0-.08.23.13.13,0,0,0,.18,0,.13.13,0,0,0,0-.18.12.12,0,0,0-.08,0Z"/><path class="cls-2" d="M26.59,48.43A12.63,12.63,0,0,1,23,47.84a17.72,17.72,0,0,1-4.55-2.55c-.5-.35-1-.7-1.55-1a.61.61,0,0,1,.66-1c.54.35,1.06.71,1.58,1.06a17.11,17.11,0,0,0,4.21,2.39,9,9,0,0,0,6.45-.12c3.25-1.43,3.91-4.44,4.62-7.62.23-1,.47-2.11.8-3.12.95-2.88,2.77-4.07,4.71-5.32.67-.44,1.37-.89,2.07-1.43a7.65,7.65,0,0,0,2.69-4.32c.77-3.46-1.06-6-3-8.74-.32-.46-.66-.93-1-1.41a.61.61,0,1,1,1-.68c.32.46.65.93,1,1.38,2,2.81,4.08,5.73,3.2,9.71a8.87,8.87,0,0,1-3.13,5c-.74.58-1.46,1-2.15,1.49-1.9,1.23-3.4,2.2-4.21,4.67-.31,1-.54,2-.77,3-.74,3.34-1.5,6.8-5.31,8.47A9,9,0,0,1,26.59,48.43Z"/><path class="cls-2" d="M41.87,27.57a.61.61,0,0,1-.58-.8.68.68,0,0,1,.72-.48.63.63,0,0,1,.54.61.61.61,0,0,1-.39.6A.62.62,0,0,1,41.87,27.57Z"/><path class="cls-2" d="M43.83,25.51h-.06a.61.61,0,0,1-.41-.22.63.63,0,0,1-.23-.41.61.61,0,0,1,.54-.67.68.68,0,0,1,.77.77A.61.61,0,0,1,43.83,25.51Z"/><path class="cls-2" d="M40.24,29.51a.72.72,0,0,1,.19-1.43.62.62,0,0,1,.51.68.46.46,0,0,1,0,.11c-.11.48-.39.61-.61.63Z"/><path class="cls-2" d="M43.89,42.05a3.24,3.24,0,0,1-3.09-1.46c-1.33-2.39,1-7,2.68-9.69a.61.61,0,0,1,1.11-.47c1.31,2.49,3.4,7.83,1.91,10.3A2.83,2.83,0,0,1,43.89,42.05Zm.22-9.85c-2.09,3.6-3,6.53-2.25,7.79.32.57,1,.84,2,.84a1.68,1.68,0,0,0,1.58-.73C46.42,38.52,45.3,34.83,44.12,32.21Z"/></svg>