<svg id="_лой_3" data-name="—лой_3" xmlns="http://www.w3.org/2000/svg" viewBox="0 0 57.4 57.39"><defs><style>.cls-1{fill:#faa61a;}.cls-2{fill:#fff;}</style></defs><title>kl-icon-4</title><circle class="cls-1" cx="28.7" cy="28.7" r="28.7"/><path class="cls-2" d="M27.15,41a17,17,0,0,1-3.54-.36c-3.3-.71-5.54-2.39-6.32-4.73-.92-2.79.38-6,3.57-8.9a.54.54,0,1,1,.72.8c-2.82,2.52-4,5.42-3.27,7.75.65,2,2.61,3.39,5.52,4a20,20,0,0,0,10.22-.84,23.76,23.76,0,0,0,2.49-1,.54.54,0,0,1,.45,1,25.07,25.07,0,0,1-2.6,1A23.33,23.33,0,0,1,27.15,41Z"/><path class="cls-2" d="M39.94,37a.54.54,0,0,1-.3-1c.28-.19.56-.39.83-.59a.54.54,0,1,1,.65.86c-.28.21-.58.43-.88.63A.54.54,0,0,1,39.94,37Z"/><path class="cls-2" d="M43.92,33.24a.53.53,0,0,1-.32-.1.54.54,0,0,1-.12-.75c1.43-2,1.89-3.92,1.32-5.62-1.25-3.78-7.27-5.36-14-3.68a.54.54,0,1,1-.26-1,19.72,19.72,0,0,1,9.69-.17c2.9.79,4.89,2.41,5.61,4.56S46,30.79,44.36,33A.54.54,0,0,1,43.92,33.24Z"/><path class="cls-2" d="M28.09,46.75c-4.93,0-8.77-1.92-9.67-4a31.73,31.73,0,0,1-1.35-7.7.54.54,0,1,1,1.08.06,32.32,32.32,0,0,0,1.26,7.2c.42.94,2.08,2.2,4.85,2.87a18.09,18.09,0,0,0,9.8-.53A23.5,23.5,0,0,0,43.38,39c2.28-2.37,3.23-4.82,2.61-6.71-.11-.33-.33-1.49-.64-3.08l-.2-1A.54.54,0,0,1,46.21,28l.2,1c.21,1.12.5,2.65.6,2.94.77,2.32-.25,5.09-2.86,7.8a24.56,24.56,0,0,1-9.75,5.94A20.12,20.12,0,0,1,28.09,46.75Z"/><path class="cls-2" d="M24.67,30.3a.54.54,0,0,1-.34-1c4.47-3.64,11.29-5.85,16.47-2.59a.54.54,0,0,1-.58.91c-4.72-3-11-.89-15.21,2.51A.54.54,0,0,1,24.67,30.3Z"/><path class="cls-2" d="M22.2,32.84a.54.54,0,0,1-.44-.86c.14-.19.29-.38.45-.57a.54.54,0,1,1,.83.69c-.14.17-.28.35-.41.52A.54.54,0,0,1,22.2,32.84Z"/><path class="cls-2" d="M24.48,27.14a4.92,4.92,0,1,1,4.92-4.92A4.93,4.93,0,0,1,24.48,27.14Zm0-8.76a3.84,3.84,0,1,0,3.84,3.84A3.84,3.84,0,0,0,24.48,18.38Z"/><path class="cls-2" d="M32.25,18.93a4.14,4.14,0,1,1,4.14-4.14A4.15,4.15,0,0,1,32.25,18.93Zm0-7.21a3.06,3.06,0,1,0,3.06,3.06A3.07,3.07,0,0,0,32.25,11.73Z"/><path class="cls-2" d="M14.29,21.37A3.71,3.71,0,1,1,18,17.66,3.71,3.71,0,0,1,14.29,21.37Zm0-6.33a2.63,2.63,0,1,0,2.62,2.63A2.63,2.63,0,0,0,14.29,15Z"/><path class="cls-2" d="M12.83,30.55a2.7,2.7,0,1,1,2.7-2.7A2.7,2.7,0,0,1,12.83,30.55Zm0-4.31a1.61,1.61,0,1,0,1.62,1.61A1.62,1.62,0,0,0,12.83,26.24Z"/></svg>