<svg id="_лой_3" data-name="—лой_3" xmlns="http://www.w3.org/2000/svg" viewBox="0 0 57.39 57.39"><defs><style>.cls-1{fill:#faa61a;}.cls-2{fill:#fff;}</style></defs><title>kl-icon-5</title><circle class="cls-1" cx="28.7" cy="28.7" r="28.7"/><path class="cls-2" d="M44,46.16H13.42a.53.53,0,0,1-.54-.54V9.7a.54.54,0,0,1,.54-.54H44a.54.54,0,0,1,.54.54V45.62A.54.54,0,0,1,44,46.16ZM14,45.09H43.44V10.24H14Z"/><path class="cls-2" d="M35.23,37.45a2,2,0,0,1-1.41-.6c-.66-.63-13.48-13-13.92-13.53a2.2,2.2,0,0,1-.36-1.77.53.53,0,0,1,.15-.27l1-1a.54.54,0,0,1,.75,0L36.94,35.57a.54.54,0,0,1,0,.74l-.73.82a.57.57,0,0,1-.14.11A1.84,1.84,0,0,1,35.23,37.45ZM20.57,21.92a1,1,0,0,0,.14.69c.42.47,12.69,12.35,13.85,13.46a1,1,0,0,0,.67.3.88.88,0,0,0,.28,0l.31-.35L21.07,21.43Z"/><path class="cls-2" d="M36.84,36.19a.54.54,0,0,1-.38-.91l1.88-1.93L23.73,18.85l-2.17,2.07a.54.54,0,0,1-.74-.78l2.55-2.43a.54.54,0,0,1,.75,0L39.47,33a.54.54,0,0,1,0,.75L37.22,36A.54.54,0,0,1,36.84,36.19Z"/><path class="cls-2" d="M29.23,46.16a.54.54,0,0,1-.54-.54V32.35a.54.54,0,0,1,1.07,0V45.62A.54.54,0,0,1,29.23,46.16Z"/><path class="cls-2" d="M29.23,23.78a.54.54,0,0,1-.54-.54V9.7a.54.54,0,0,1,1.07,0V23.24A.54.54,0,0,1,29.23,23.78Z"/><path class="cls-2" d="M18.76,40.27a1.52,1.52,0,0,1-.83-.2A4.48,4.48,0,0,1,16.78,39,1.8,1.8,0,0,1,17,36.74c.23-.24,7.3-6.62,8.71-7.89a.54.54,0,0,1,.72.8c-3.36,3-8.43,7.61-8.66,7.84-.05.05-.36.51-.1.86a3.47,3.47,0,0,0,.88.82,1.68,1.68,0,0,0,.94-.13l8.15-8.45a.54.54,0,1,1,.77.74L20.22,39.8A2.26,2.26,0,0,1,18.76,40.27Z"/><path class="cls-2" d="M31.86,20.25a.54.54,0,0,1-.38-.91L36,14.74a.54.54,0,0,1,.76.75l-4.56,4.6A.54.54,0,0,1,31.86,20.25Z"/><path class="cls-2" d="M37.35,24.67a.54.54,0,0,1-.39-.91l3.55-3.69a.54.54,0,0,1,.77.74l-3.55,3.69A.53.53,0,0,1,37.35,24.67Z"/><path class="cls-2" d="M32.93,24.14a.53.53,0,0,1-.38-.92L40.86,15a.54.54,0,0,1,.75.76L33.31,24A.53.53,0,0,1,32.93,24.14Z"/></svg>