<svg id="_лой_3" data-name=" лой 3" xmlns="http://www.w3.org/2000/svg" width="30.98mm" height="253.23mm" viewBox="0 0 87.82 717.82"><defs><style>.cls-1,.cls-3{fill:#fff;}.cls-1,.cls-2,.cls-6{stroke:#5fbb28;}.cls-1,.cls-2,.cls-3,.cls-4{stroke-linecap:round;stroke-width:3px;}.cls-1,.cls-2,.cls-3,.cls-4,.cls-6{stroke-miterlimit:10;}.cls-2,.cls-4{fill:none;}.cls-3,.cls-4{stroke:#c7c8ca;}.cls-5,.cls-6{fill:#c7c8ca;}</style></defs><title>per-comp-icon-sprite-green</title><circle class="cls-1" cx="43.91" cy="43.91" r="42.41"/><path class="cls-2" d="M28.23,27.45c0-9.69,7-17.55,15.69-17.55s15.69,7.86,15.69,17.55S50.42,50.63,43.92,50.63C36.43,50.63,28.23,37.14,28.23,27.45Z" transform="translate(0 0)"/><path class="cls-2" d="M51.1,46.55A40.45,40.45,0,0,1,79.43,67" transform="translate(0 0)"/><path class="cls-2" d="M8.38,67a40.46,40.46,0,0,1,28-20.44" transform="translate(0 0)"/><path class="cls-2" d="M57.12,48.12a13.74,13.74,0,0,1-26.44,0" transform="translate(0 0)"/><circle class="cls-3" cx="43.91" cy="233.91" r="42.41"/><path class="cls-3" d="M28.23,217.45c0-9.69,7-17.55,15.69-17.55s15.69,7.86,15.69,17.55-9.19,23.18-15.69,23.18C36.43,240.63,28.23,227.14,28.23,217.45Z" transform="translate(0 0)"/><path class="cls-3" d="M51.1,236.55a40.45,40.45,0,0,1,28.33,20.51" transform="translate(0 0)"/><path class="cls-3" d="M8.38,257a40.46,40.46,0,0,1,28-20.44" transform="translate(0 0)"/><path class="cls-3" d="M57.12,238.12a13.74,13.74,0,0,1-26.44,0" transform="translate(0 0)"/><circle class="cls-3" cx="43.91" cy="449.91" r="42.41"/><path class="cls-4" d="M28.23,433.45c0-9.69,7-17.55,15.69-17.55s15.69,7.86,15.69,17.55-9.19,23.18-15.69,23.18C36.43,456.63,28.23,443.14,28.23,433.45Z" transform="translate(0 0)"/><polyline class="cls-4" points="31.96 456.66 43.92 488.52 55.87 456.66"/><circle class="cls-5" cx="43.92" cy="463.25" r="2.01"/><circle class="cls-5" cx="43.92" cy="470.25" r="2.01"/><polyline class="cls-4" points="26.59 459.36 26.46 471.36 31.99 473.44 29.16 478.75 39.49 492"/><polyline class="cls-4" points="61.59 459.74 61.46 471.74 56.02 473.7 58.8 479.07 48.08 492.09"/><line class="cls-4" x1="50.69" y1="454.19" x2="82.15" y2="468.24"/><line class="cls-4" x1="37.15" y1="454.19" x2="5.69" y2="468.24"/><circle class="cls-1" cx="43.91" cy="673.91" r="42.41"/><path class="cls-2" d="M28.23,657.45c0-9.69,7-17.55,15.69-17.55s15.69,7.86,15.69,17.55-9.19,23.18-15.69,23.18C36.43,680.63,28.23,667.14,28.23,657.45Z" transform="translate(0 0)"/><polyline class="cls-2" points="31.96 680.66 43.92 712.52 55.87 680.66"/><circle class="cls-6" cx="43.92" cy="687.25" r="2.01"/><circle class="cls-6" cx="43.92" cy="694.25" r="2.01"/><polyline class="cls-2" points="26.59 683.36 26.46 695.36 31.99 697.45 29.16 702.75 39.49 716"/><polyline class="cls-2" points="61.59 683.74 61.46 695.74 56.02 697.7 58.8 703.07 48.08 716.09"/><line class="cls-2" x1="50.69" y1="678.19" x2="82.15" y2="692.24"/><line class="cls-2" x1="37.15" y1="678.19" x2="5.69" y2="692.24"/></svg>