<svg id="Layer_1" data-name="Layer 1" xmlns="http://www.w3.org/2000/svg" width="31.64mm" height="14.01mm" viewBox="0 0 89.7 39.7"><defs><style>.cls-1{fill:#1fb8ea;}.cls-1,.cls-2{stroke:#1fb8ea;stroke-miterlimit:10;}.cls-2{fill:none;stroke-linecap:round;stroke-width:3px;}</style></defs><title>icon-cash-blue</title><path class="cls-1" d="M48.6,19.1a5.24,5.24,0,0,1-1.8,4.3,7.87,7.87,0,0,1-5.2,1.5H39.8v8.9H36.9v-20H42a7.84,7.84,0,0,1,5,1.4A4.89,4.89,0,0,1,48.6,19.1Zm-8.9,3.3h1.5a5.71,5.71,0,0,0,3.3-.8,2.72,2.72,0,0,0,1-2.4,2.87,2.87,0,0,0-.9-2.3,4.56,4.56,0,0,0-2.9-.8h-2Z" transform="translate(0 0)"/><rect class="cls-1" x="33.6" y="22.4" width="6.2" height="2.4"/><rect class="cls-1" x="33.6" y="27.1" width="12.2" height="2.4"/><rect class="cls-2" x="1.5" y="9" width="79.2" height="29.2"/><polyline class="cls-2" points="9 9 9 1.5 88.2 1.5 88.2 30.8 80.7 30.8"/></svg>