<?xml version="1.0" encoding="utf-8"?>
<!-- Generator: Adobe Illustrator 20.0.0, SVG Export Plug-In . SVG Version: 6.00 Build 0)  -->
<svg version="1.1" id="Layer_1" xmlns="http://www.w3.org/2000/svg" xmlns:xlink="http://www.w3.org/1999/xlink" x="0px" y="0px"
	 viewBox="0 0 791.1 204.5" style="enable-background:new 0 0 791.1 204.5;" xml:space="preserve">
<style type="text/css">
	.st0{fill:#CC2030;}
	.st1{fill:#E9B03F;}
	.st2{fill:#1A3771;}
	.st3{fill:#FFFFFF;}
	.st4{fill:#23589C;}
	.st5{fill:#E5A42F;}
</style>
<g>
	<g>
		<g>
			<g>
				<circle class="st0" cx="551.6" cy="102.3" r="102.3"/>
				<g>
					<path class="st1" d="M688.9,0c-26.4,0-50.5,10-68.7,26.5c-3.7,3.4-7.1,7-10.3,10.8h20.7c2.8,3.4,5.4,7,7.8,10.8h-36.3
						c-2.2,3.5-4.1,7.1-5.9,10.8h48c1.6,3.5,3.1,7.1,4.3,10.8h-56.7c-1.2,3.5-2.2,7.1-3,10.8h62.6c1.5,7,2.3,14.2,2.3,21.7
						c0,11.4-1.8,22.3-5.3,32.5h-56.7c1.2,3.7,2.7,7.3,4.3,10.8h48c-1.8,3.7-3.7,7.3-5.9,10.8h-36.2c2.4,3.8,5,7.4,7.8,10.8h20.7
						c-3.2,3.9-6.6,7.5-10.3,10.8c18.2,16.4,42.2,26.5,68.6,26.5c56.5,0,102.3-45.8,102.3-102.3C791.1,45.8,745.3,0,688.9,0z"/>
				</g>
			</g>
			<path class="st1" d="M777.5,159.3c0-1.8,1.5-3.3,3.3-3.3c1.8,0,3.3,1.5,3.3,3.3c0,1.8-1.5,3.3-3.3,3.3
				C779,162.6,777.5,161.1,777.5,159.3z M780.8,161.8c1.4,0,2.5-1.1,2.5-2.5c0-1.4-1.1-2.5-2.5-2.5c-1.4,0-2.5,1.1-2.5,2.5
				C778.3,160.6,779.4,161.8,780.8,161.8z M780.4,160.7h-0.7v-2.9h1.2c0.3,0,0.5,0,0.7,0.1c0.2,0.2,0.4,0.4,0.4,0.7
				c0,0.3-0.2,0.6-0.5,0.8l0.5,1.3h-0.8l-0.4-1.1h-0.5V160.7z M780.4,159.1h0.4c0.1,0,0.3,0,0.4-0.1c0.1-0.1,0.2-0.2,0.2-0.3
				c0-0.1-0.1-0.2-0.2-0.3c-0.1-0.1-0.3-0.1-0.4-0.1h-0.4V159.1z"/>
		</g>
		<g>
			<g>
				<path class="st2" d="M527.7,113.5c-1.2-0.1-1.7-0.2-2.5-0.2c-6.3,0-9.5,2.2-9.5,6.4c0,2.6,1.6,4.3,4,4.3
					C524.2,124,527.5,119.7,527.7,113.5z M535.8,132.2c-1.5,0-9.2,0-9.2,0l0.2-4.4c-2.8,3.5-6.5,5.1-11.6,5.1
					c-6,0-10.1-4.7-10.1-11.5c0-10.3,7.2-16.3,19.5-16.3c1.3,0,2.9,0.1,4.5,0.3c0.3-1.4,0.4-2,0.4-2.7c0-2.8-1.9-3.8-7.1-3.8
					c-5.4-0.1-9.9,1.3-11.8,1.9c0.1-0.7,1.5-9.5,1.5-9.5c5.5-1.6,9.2-2.2,13.3-2.2c9.5,0,14.6,4.3,14.6,12.4c0,2.2-0.3,4.8-0.9,8.4
					C538.1,116,536.1,129.1,535.8,132.2z"/>
				<polygon class="st2" points="500.4,132.2 489.3,132.2 495.6,92.4 481.4,132.2 473.9,132.2 472.9,92.6 466.2,132.2 455.8,132.2 
					464.5,80.4 480.5,80.4 481.5,109.4 491.2,80.4 508.9,80.4 				"/>
				<path class="st2" d="M702.6,113.5c-1.2-0.1-1.7-0.2-2.5-0.2c-6.3,0-9.5,2.2-9.5,6.4c0,2.6,1.5,4.3,4,4.3
					C699.1,124,702.4,119.7,702.6,113.5z M710.7,132.2c-1.5,0-9.2,0-9.2,0l0.2-4.4c-2.8,3.5-6.6,5.1-11.6,5.1
					c-6,0-10.1-4.7-10.1-11.5c0-10.3,7.2-16.3,19.5-16.3c1.3,0,2.9,0.1,4.5,0.3c0.3-1.4,0.4-2,0.4-2.7c0-2.8-1.9-3.8-7.1-3.8
					c-5.4-0.1-9.9,1.3-11.8,1.9c0.1-0.7,1.5-9.5,1.5-9.5c5.5-1.6,9.2-2.2,13.3-2.2c9.5,0,14.6,4.3,14.6,12.4c0,2.2-0.3,4.8-0.9,8.4
					C713,116,710.9,129.1,710.7,132.2z"/>
				<path class="st2" d="M585.1,131.6c-3,1-5.4,1.4-8,1.4c-5.7,0-8.8-3.3-8.8-9.3c-0.1-1.9,0.8-6.8,1.5-11.2
					c0.6-3.9,4.8-28.8,4.8-28.8h11l-1.3,6.4h6.7l-1.5,10.1h-6.7c-1.3,8-3.1,18-3.1,19.3c0,2.2,1.2,3.1,3.8,3.1c1.3,0,2.2-0.1,3-0.4
					L585.1,131.6z"/>
				<path class="st2" d="M618.9,131.3c-3.8,1.2-7.4,1.7-11.3,1.7c-12.4,0-18.8-6.5-18.8-18.8c0-14.4,8.2-25,19.3-25
					c9.1,0,14.9,5.9,14.9,15.3c0,3.1-0.4,6.1-1.4,10.4h-22c-0.7,6.1,3.2,8.7,9.6,8.7c3.9,0,7.5-0.8,11.5-2.7L618.9,131.3z
					 M612.7,106.3c0.1-0.9,1.2-7.5-5.1-7.5c-3.5,0-6,2.7-7,7.5H612.7z"/>
				<path class="st2" d="M542.4,103.4c0,5.3,2.6,9,8.5,11.8c4.5,2.1,5.2,2.7,5.2,4.7c0,2.6-2,3.8-6.4,3.8c-3.3,0-6.4-0.5-9.9-1.7
					c0,0-1.5,9.3-1.5,9.7c2.5,0.5,4.8,1.1,11.6,1.2c11.7,0,17.1-4.5,17.1-14.1c0-5.8-2.3-9.2-7.8-11.8c-4.7-2.1-5.2-2.6-5.2-4.6
					c0-2.3,1.8-3.4,5.4-3.4c2.2,0,5.2,0.2,8,0.6l1.6-9.8c-2.9-0.5-7.2-0.8-9.8-0.8C546.7,89.1,542.4,95.6,542.4,103.4z"/>
				<path class="st2" d="M672.9,90.2c3.1,0,6,0.8,9.9,2.8l1.8-11.3c-1.6-0.6-7.4-4.4-12.2-4.4c-7.4,0-13.7,3.7-18.1,9.8
					c-6.4-2.1-9.1,2.2-12.3,6.5l-2.9,0.7c0.2-1.4,0.4-2.8,0.4-4.2h-10.2c-1.4,13.1-3.9,26.3-5.8,39.3l-0.5,2.8h11.1
					c1.9-12,2.9-19.8,3.5-25l4.2-2.3c0.6-2.3,2.6-3.1,6.5-3c-0.5,2.8-0.8,5.6-0.8,8.6c0,13.8,7.5,22.4,19.4,22.4
					c3.1,0,5.7-0.4,9.8-1.5l1.9-11.8c-3.7,1.8-6.7,2.7-9.4,2.7c-6.5,0-10.4-4.8-10.4-12.6C658.8,98.2,664.6,90.2,672.9,90.2z"/>
				<path class="st2" d="M766.9,80.4l-2.5,15c-3-4-6.3-6.9-10.6-6.9c-5.6,0-10.7,4.2-14,10.5c-4.6-1-9.5-2.6-9.5-2.6l0,0
					c0.4-3.5,0.5-5.6,0.5-6.4h-10.2c-1.4,13.1-3.9,26.3-5.8,39.3l-0.5,2.8h11.1c1.5-9.7,2.6-17.8,3.5-24.2c3.8-3.4,5.7-6.4,9.5-6.2
					c-1.7,4.1-2.7,8.8-2.7,13.7c0,10.5,5.3,17.5,13.4,17.5c4.1,0,7.2-1.4,10.2-4.7l-0.5,3.9h10.5l8.5-51.9H766.9z M753,122.5
					c-3.8,0-5.7-2.8-5.7-8.3c0-8.3,3.6-14.2,8.6-14.2c3.8,0,5.9,2.9,5.9,8.3C761.8,116.6,758.2,122.5,753,122.5z"/>
			</g>
			<g>
				<polygon class="st3" points="503.6,129.2 492.5,129.2 498.8,89.3 484.6,129.2 477,129.2 476.1,89.5 469.4,129.2 459,129.2 
					467.7,77.3 483.7,77.3 484.1,109.4 494.9,77.3 512.1,77.3 				"/>
				<path class="st3" d="M530.9,110.4c-1.2-0.1-1.7-0.2-2.5-0.2c-6.3,0-9.5,2.2-9.5,6.4c0,2.6,1.6,4.3,4,4.3
					C527.4,120.9,530.7,116.6,530.9,110.4z M539,129.2c-1.5,0-9.2,0-9.2,0l0.2-4.4c-2.8,3.4-6.5,5.1-11.6,5.1
					c-6,0-10.1-4.7-10.1-11.5c0-10.3,7.2-16.3,19.5-16.3c1.3,0,2.9,0.1,4.5,0.3c0.3-1.4,0.4-2,0.4-2.7c0-2.8-1.9-3.8-7.1-3.8
					c-5.4-0.1-9.9,1.3-11.8,1.9c0.1-0.7,1.5-9.5,1.5-9.5c5.5-1.6,9.2-2.2,13.3-2.2c9.5,0,14.6,4.3,14.6,12.4c0,2.2-0.3,4.9-0.9,8.4
					C541.3,112.9,539.2,126,539,129.2z"/>
				<path class="st3" d="M687.9,78.7L686,90c-4-2-6.8-2.8-9.9-2.8c-8.3,0-14.1,8-14.1,19.4c0,7.9,3.9,12.6,10.4,12.6
					c2.7,0,5.8-0.8,9.4-2.7l-2,11.8c-4.1,1.1-6.7,1.5-9.8,1.5c-12,0-19.4-8.6-19.4-22.4c0-18.5,10.3-31.5,25-31.5
					C680.5,76,686.2,78.1,687.9,78.7z"/>
				<path class="st3" d="M705.8,110.4c-1.2-0.1-1.7-0.2-2.5-0.2c-6.3,0-9.5,2.2-9.5,6.4c0,2.6,1.6,4.3,4,4.3
					C702.3,120.9,705.6,116.6,705.8,110.4z M713.9,129.2c-1.5,0-9.2,0-9.2,0l0.2-4.4c-2.8,3.4-6.6,5.1-11.6,5.1
					c-6,0-10.1-4.7-10.1-11.5c0-10.3,7.2-16.3,19.5-16.3c1.3,0,2.9,0.1,4.5,0.3c0.3-1.4,0.4-2,0.4-2.7c0-2.8-1.9-3.8-7.1-3.8
					c-5.4-0.1-9.9,1.3-11.8,1.9c0.1-0.7,1.5-9.5,1.5-9.5c5.5-1.6,9.2-2.2,13.3-2.2c9.5,0,14.6,4.3,14.6,12.4c0,2.2-0.3,4.9-0.9,8.4
					C716.2,112.9,714.1,126,713.9,129.2z"/>
				<path class="st3" d="M588.3,128.5c-3,1-5.4,1.4-8,1.4c-5.7,0-8.8-3.3-8.8-9.3c-0.1-1.9,0.8-6.8,1.5-11.2
					c0.6-3.9,4.8-28.8,4.8-28.8h11l-1.3,6.4h5.7l-1.5,10.1h-5.7c-1.3,8-3.1,18-3.1,19.3c0,2.2,1.2,3.1,3.8,3.1c1.3,0,2.2-0.1,3-0.4
					L588.3,128.5z"/>
				<path class="st3" d="M622.1,128.2c-3.8,1.2-7.5,1.7-11.3,1.7c-12.4,0-18.8-6.5-18.8-18.8c0-14.4,8.2-25,19.3-25
					c9.1,0,14.9,5.9,14.9,15.3c0,3.1-0.4,6.1-1.4,10.4h-22c-0.7,6.1,3.2,8.7,9.6,8.7c4,0,7.5-0.8,11.5-2.7L622.1,128.2z
					 M615.9,103.2c0.1-0.9,1.2-7.5-5.1-7.5c-3.5,0-6,2.7-7.1,7.5H615.9z"/>
				<path class="st3" d="M545.6,100.3c0,5.3,2.6,9,8.5,11.8c4.5,2.1,5.2,2.7,5.2,4.7c0,2.6-2,3.8-6.4,3.8c-3.3,0-6.4-0.5-9.9-1.7
					c0,0-1.5,9.3-1.5,9.7c2.5,0.6,4.8,1.1,11.6,1.3c11.7,0,17.1-4.5,17.1-14.1c0-5.8-2.3-9.2-7.8-11.8c-4.7-2.1-5.2-2.6-5.2-4.6
					c0-2.3,1.8-3.5,5.4-3.5c2.2,0,5.2,0.2,8,0.6l1.6-9.8c-2.9-0.5-7.2-0.8-9.8-0.8C549.9,86,545.6,92.5,545.6,100.3z"/>
				<path class="st3" d="M772.6,129.2h-10.5l0.5-3.9c-3,3.3-6.2,4.7-10.2,4.7c-8.1,0-13.4-7-13.4-17.5c0-14,8.3-25.9,18.1-25.9
					c4.3,0,7.6,1.8,10.6,5.8l2.5-15h10.9L772.6,129.2z M756.2,119.4c5.2,0,8.8-5.9,8.8-14.2c0-5.4-2.1-8.3-5.9-8.3
					c-5,0-8.6,5.9-8.6,14.2C750.5,116.6,752.5,119.4,756.2,119.4z"/>
				<path class="st3" d="M723.9,87c-1.4,13.1-3.9,26.3-5.8,39.3l-0.5,2.8h11.1c4-25.8,4.9-30.8,11.2-30.2c1-5.3,2.8-9.9,4.2-12.2
					c-4.7-1-7.2,1.7-10.7,6.7c0.3-2.2,0.8-4.3,0.7-6.4H723.9z"/>
				<path class="st3" d="M632.5,87c-1.4,13.1-3.9,26.3-5.8,39.3l-0.5,2.8h11.1c4-25.8,4.9-30.8,11.2-30.2c1-5.3,2.8-9.9,4.2-12.2
					c-4.6-1-7.2,1.7-10.6,6.7c0.3-2.2,0.8-4.3,0.7-6.4H632.5z"/>
				<g>
					<path class="st3" d="M777.5,125.9c0-1.8,1.5-3.3,3.3-3.3c1.8,0,3.3,1.5,3.3,3.3c0,1.8-1.5,3.3-3.3,3.3
						C779,129.2,777.5,127.7,777.5,125.9z M780.8,128.4c1.4,0,2.5-1.1,2.5-2.5c0-1.4-1.1-2.5-2.5-2.5c-1.4,0-2.5,1.1-2.5,2.5
						C778.3,127.3,779.4,128.4,780.8,128.4z M780.3,127.3h-0.7v-2.9h1.2c0.3,0,0.5,0,0.7,0.1c0.2,0.2,0.4,0.4,0.4,0.7
						c0,0.3-0.2,0.6-0.5,0.8l0.5,1.3h-0.8l-0.4-1.1h-0.5V127.3z M780.3,125.7h0.4c0.1,0,0.3,0,0.4-0.1c0.1-0.1,0.2-0.2,0.2-0.3
						c0-0.1-0.1-0.2-0.2-0.3c-0.1-0.1-0.3,0-0.4,0h-0.4V125.7z"/>
				</g>
			</g>
		</g>
	</g>
	<g>
		<polygon class="st4" points="133.7,155.4 153,42.6 183.7,42.6 164.5,155.4 		"/>
		<path class="st4" d="M276,45.4c-6.1-2.3-15.6-4.7-27.5-4.7c-30.4,0-51.8,15.3-51.9,37.2c-0.2,16.2,15.3,25.2,26.9,30.6
			c12,5.5,16,9.1,15.9,14c-0.1,7.6-9.6,11-18.4,11c-12.3,0-18.8-1.7-28.9-5.9l-4-1.8l-4.3,25.2c7.2,3.2,20.5,5.9,34.2,6
			c32.3,0,53.3-15.1,53.5-38.5c0.1-12.8-8.1-22.6-25.8-30.6c-10.7-5.2-17.3-8.7-17.3-14c0-4.7,5.6-9.7,17.6-9.7
			c10.1-0.2,17.3,2,23,4.3l2.8,1.3L276,45.4"/>
		<path class="st4" d="M354.8,42.7H331c-7.4,0-12.9,2-16.1,9.4l-45.6,103.3h32.3c0,0,5.3-13.9,6.5-16.9c3.5,0,34.9,0,39.4,0
			c0.9,3.9,3.7,16.9,3.7,16.9h28.5L354.8,42.7 M316.9,115.4c2.5-6.5,12.2-31.5,12.2-31.5c-0.2,0.3,2.5-6.5,4.1-10.8l2.1,9.7
			c0,0,5.9,26.9,7.1,32.6H316.9z"/>
		<path class="st4" d="M108,42.7l-30.1,76.9L74.7,104c-5.6-18-23.1-37.5-42.6-47.3l27.5,98.6l32.5,0l48.4-112.6H108"/>
		<path class="st5" d="M50,42.6H0.4L0,45c38.6,9.3,64.1,31.9,74.7,59L63.9,52.1C62,45,56.6,42.9,50,42.6"/>
	</g>
</g>
</svg>
