<?xml version="1.0" encoding="utf-8"?>
<!-- Generator: Adobe Illustrator 20.0.0, SVG Export Plug-In . SVG Version: 6.00 Build 0)  -->
<svg version="1.1" id="Layer_1" xmlns="http://www.w3.org/2000/svg" xmlns:xlink="http://www.w3.org/1999/xlink" x="0px" y="0px"
	width="113.6" height ="185.9" viewBox="0 0 113.6 185.9" style="enable-background:new 0 0 113.6 185.9;" xml:space="preserve">
<style type="text/css">
	.st0{fill-rule:evenodd;clip-rule:evenodd;fill:#DF8E2F;}
	.st1{fill-rule:evenodd;clip-rule:evenodd;fill:#3C69AF;}
</style>
<g>
	<path class="st0" d="M95,80.4c-1-4.5-3.1-8-6-10.5c-1-1.1-2.2-1.8-3.6-2.6c-0.7-0.4-1.2-0.7-2.1-1c-1.5-0.6-3.5-1.3-6-1
		c1.2-0.6,3.1-0.7,5-0.6c1.6,0.2,2.9,0.6,4.3,1c1.1,0.6,2.3,1.2,3.4,1.9c2.8-8.2,1.7-19.5-1.4-26.7c-3-7.6-7.3-13.9-12.9-18.8
		c-5.5-5.1-12.2-9-21-10.8c-4.3-0.9-9.8-0.8-13.8,0.1c-4.2,1.1-7.6,2.9-10.7,5.1c-2.8,2.5-5.5,5.1-7.4,8.5c-0.7,0.7-1,1.7-1.5,2.5
		c-0.4,1-0.8,1.9-1.3,2.8c-0.6,2-1.4,3.9-1.8,6.1c-1,4.1-1.2,9.8-0.5,14.2c0.5,4.8,1.9,8.6,3.4,12.4c0.9,1.8,1.7,3.6,2.8,5.3
		c1,1.7,2.2,3.1,3.3,4.6c2.5,2.7,5.2,5.3,8.4,7.4c6.4,4.2,13.8,7.4,23.8,7.9c0.2-0.4-0.3-1.2-0.4-1.8c-0.2-0.6-0.2-1.3-0.4-1.9
		c-0.1-1.4-0.2-2.9,0-4.3c0.4,0.1,0.4,0.6,0.6,0.9c0.2,0.2,0.3,0.6,0.6,0.8c0.3,0.7,0.8,1.1,1.1,1.8c0.9,1,1.7,2.2,2.9,2.9
		c1,1,2.2,1.6,3.4,2.4c1.2,0.6,2.3,1.5,3.8,1.9c2.5,1.3,5.8,1.8,9.2,2.3c3.4,0.5,6.6,1,9.7,1.8c2.8,1,5.7,1.9,8,3.4
		c1.2,0.7,2.4,1.4,3.5,2.3c0.5,0.4,1.2,0.7,1.6,1.3c0.7,0.3,1,0.9,1.6,1.1c1.9,1.9,3.9,3.7,5.5,5.9c0.7,1.2,1.6,2.2,2.1,3.6
		c0.5,0.5,0.6,1.3,1,1.9c0,0.7,0.7,1.6,0.1,2.1c-0.9,0.1-0.7-0.8-1.1-1.3c-0.3-0.5-0.7-0.9-0.9-1.5c-1.5-1.5-2.8-3.2-4.4-4.6
		c-1.6-1.4-3.2-2.8-5-3.9c-3.5-2.5-7.6-4.4-12.3-5.6c-4.7-1.3-9.9-1.9-15.9-1.5c-2.7,0.3-5.2,0.8-7.4,1.6c-2.4,0.6-5,0.9-7.7,1.3
		C48.4,101.5,37,99,29.3,95.3c-4.1-1.9-7.8-4.1-11-6.9c-1.7-1.3-3.2-2.9-4.6-4.4c-1.3-1.6-2.8-3.2-3.8-5.1c-1.3-1.7-2.1-3.9-3.3-5.8
		c-0.7-2.2-1.8-4.2-2.3-6.6c-0.8-2.2-1.2-4.8-1.5-7.5c0-0.8-0.4-2.2-0.4-3.4c0-0.1,0.1-0.2,0.1-0.4c-0.1-1.1-0.3-2.7,0-3.6
		C2.6,49,3,46,3.5,43.6c0.4-2.5,1.1-4.8,1.9-7c0.7-2.3,1.7-4.3,2.6-6.4c0.6-0.9,1.1-1.9,1.6-2.9c0.5-1,1.2-1.7,1.6-2.8
		c0.5-0.3,0.6-0.9,1-1.3c0.2-0.6,0.7-0.8,0.9-1.4c0.4-0.3,0.7-0.8,1-1.3c0.4-0.4,0.8-0.7,1-1.3c1.5-1.5,2.8-3.1,4.4-4.5
		c1.6-1.5,3.3-2.7,4.9-4.1c1-0.5,1.8-1.3,2.8-1.8c0.8-0.7,1.9-1.1,2.6-1.8c2.1-0.9,3.9-2.1,6.1-2.9c2-1,4.3-1.6,6.5-2.4
		c4.8-1.2,9.7-2.1,15.7-1.9c0.2,0,0.3-0.2,0.4,0c11.4,0.3,19.7,3.8,26.7,8.4c7,4.7,12.4,10.9,16.3,18.7c3.8,7.7,5.9,18.2,4.1,29.2
		c-0.9,5-2.4,9.4-4.1,13.4c-1,1.9-1.9,3.9-3.1,5.6c-0.5,0.9-1.1,1.8-1.8,2.6c-0.2,0.5-0.5,0.9-0.9,1.3c-0.1,0.2-0.3,0.4-0.5,0.6
		c-0.1,0.1-0.1,0.2-0.3,0.3C95.1,80.5,95,80.5,95,80.4z"/>
	<path class="st0" d="M91.9,83.7c-1.5-0.6-1.7-2.4-2.4-3.8c-0.1-0.5-0.2-1.3,0-1.8c0.1,0,0.1-0.1,0.3-0.1c0.4-0.2,0.7,0.1,1.3,0.3
		c0.7,0.8,1.2,1.9,1.5,3.1C92.6,82.4,92.7,83.4,91.9,83.7z"/>
	<path class="st0" d="M80.9,81.5c0-0.1,0.1-0.1,0.1,0c2.2,0.3,3.2,1.8,3.4,4.1c-0.2,1.3-0.9,2.1-2.1,2.4c-3,0.1-4.7-2.7-3.6-5.5
		C79.2,82,79.7,81.4,80.9,81.5z"/>
	<path class="st1" d="M20.7,165.1c0.4,1.5,1.1,2.6,2,3.6c0.9,1,1.9,1.9,3.1,2.5c1.2,0.7,2.4,1.3,3.9,1.8c0.7,0.3,1.4,0.5,2.3,0.6
		c0.6,0.3,1.3,0.5,1.4,1.4c0,1.1-0.7,1.4-1.6,1.6c-0.9-0.2-2-0.2-2.8-0.5c-1.9-0.2-3.4-0.8-5-1.4c-3.1-1.2-5.6-2.9-7.8-5
		c-0.4-0.7-1-1.3-1.5-2c-0.5-0.7-0.8-1.6-1.3-2.3c-3.7-0.5-6.3-2.2-8.5-4.1c-2.1-2.4-3.7-5.2-4.4-8.9c-0.8-3.6-0.5-8.1,0.4-11.5
		c2.1-6.7,6.4-11.2,14.6-11.8c2.3,0.1,4.2,0.3,6,1c1.8,0.7,3.5,1.9,4.9,3.1c0.1,0.1,0.2,0.1,0.2,0.3c0.3,0.4,1,1,1.4,1.5
		c0.1,0.1,0,0.3,0.1,0.4c0.2,0.2,0.4,0.3,0.5,0.5c0.1,0.1,0.1,0.3,0.1,0.4c0.1,0.2,0.2,0.4,0.4,0.6c0.1,0.1,0.2,0.2,0.2,0.3
		c0.2,0.4,0.3,0.9,0.5,1.4c0.2,0.5,0.5,0.9,0.6,1.4c0.5,1.4,0.8,3.1,1,4.9c0.5,5.1-0.5,9.6-2.4,12.9c-0.9,1.8-2.1,3.2-3.5,4.4
		C24.2,163.4,22.4,164.2,20.7,165.1z M14.7,133.5c-1.1,0.1-1.7,0.6-2.6,0.9c-0.6,0.5-1.3,0.9-1.8,1.6c-0.7,0.4-0.9,1.3-1.5,1.9
		c-0.5,1.2-1,2.6-1.3,4.1c-0.3,1.5-0.5,3.3-0.5,5c0,4.3,0.9,8.6,2.6,11.2c1,1.2,2.2,2.3,3.8,3c0.9,0.1,1.6,0.4,2.5,0.4
		c0.5-0.2,1.4,0,1.8-0.4c0.8,0.1,1-0.5,1.6-0.5c0.4-0.4,0.8-0.7,1.3-0.9c0.4-0.5,0.9-1,1.4-1.5c0.3-0.4,0.4-0.9,0.8-1.1
		c2.2-4.2,2.4-11.8,1-16.7c-0.5-1.8-1.3-3.2-2.1-4.4c-0.9-1-2-1.8-3.3-2.4c-1-0.2-1.9-0.5-3.3-0.4c-0.1,0-0.1,0-0.1,0.1
		C14.8,133.5,14.7,133.5,14.7,133.5z"/>
	<path class="st1" d="M41.1,129.9c2,0.1,4.3-0.2,6,0.1c0.4,0.6,0.2,1.3,0.3,2c0.1,9.2,0,19.1,0,28.5c0,0.8,0,1.5,0,2.3
		c0,0.6,0.1,1.3-0.3,1.9c-0.9,0.2-2.1,0.1-3.3,0.1c-1.2,0-2.4,0.2-3.1-0.3c-0.2-11.1-0.2-23.1,0-34.3C40.8,130.1,41,130,41.1,129.9z
		"/>
	<path class="st1" d="M56.2,129.9c2,0,3.9,0,5.9,0c0.5,0.7,0.7,1.8,0.9,2.9c1.8,6.8,3.5,13.5,5.1,20.5c0.4,0,0.3-0.4,0.4-0.6
		c0.2-0.2,0.1-0.6,0.3-0.8c0.1-0.6,0.4-0.8,0.4-1.5c0.4-0.8,0.6-2,1-2.9c0.5-2,1.2-3.9,1.8-5.9c0.6-2,1.3-3.9,1.8-6
		c0.8-1.7,1-4.1,2-5.6c0.8,0,1.7,0,2.5,0c0.9,1.7,1.2,4,2,5.8c0.5,2,1.2,3.9,1.8,5.9c1.2,3.9,2.5,7.8,3.6,11.8
		c0.5-0.8,0.5-2,0.9-2.9c0.2-1,0.4-2,0.8-2.9c1-4,1.9-8,3-11.8c0.4-2,0.8-4,1.5-5.8c1.5-0.2,3.7-0.2,5.1,0c0.1,1.5-0.6,3.1-1,4.4
		c-0.2,1.6-0.8,2.8-1.1,4.4c-0.9,2.8-1.6,5.9-2.5,8.7c-0.7,3-1.7,5.8-2.4,8.8c-0.5,1.4-0.8,2.9-1.3,4.4c-0.5,1.4-0.7,3-1.4,4.1
		c-1.2,0-2.3,0-3.5,0c-0.9-1.6-1.2-3.7-2-5.4c-1.7-5.5-3.7-10.9-5.4-16.4c-0.6,0.6-0.6,1.8-1,2.6c-0.3,0.9-0.5,1.9-0.9,2.8
		c-0.5,1.9-1.2,3.6-1.6,5.5c-0.7,1.7-1.2,3.6-1.8,5.5c-0.7,1.6-1,3.8-1.9,5.3c-0.9,0.3-2.4,0-3.5,0.1c-0.9-1-1-2.8-1.5-4.1
		c-0.4-1.4-0.7-3-1.3-4.3c-0.7-3.1-1.7-5.8-2.4-8.8c-0.9-2.8-1.7-5.8-2.5-8.7c-0.4-1.4-0.8-2.9-1.3-4.3c-0.2-1.5-1.2-2.9-0.9-4.5
		C55.9,130.1,56,130,56.2,129.9z"/>
	<path class="st1" d="M105.7,129.9c2,0.1,4.3-0.2,6,0.1c0.4,1.3,0.3,2.7,0.3,4.1c0,8.5,0,17.6,0,26.3c0,1.4,0.2,2.8-0.3,4.1
		c-1.4,0.2-3.4,0.2-5,0.1c-0.5,0-1.1,0.1-1.4-0.3c-0.4-1.3-0.2-2.7-0.2-4.1c0-8.5,0-17.2,0-26.1c0-1.6-0.1-3.1,0.2-4.1
		C105.5,130.1,105.6,130,105.7,129.9z"/>
	<path class="st1" d="M70.5,179.3c0.8,0.4,1.6,0.8,2.1,1.4c0.5,0.7,0.7,2.1,0.4,3.1c-1.1,2.3-5,2.5-7.9,1.8c0-3.8,0-7.6,0-11.4
		c0.9-0.4,2.2-0.4,3.5-0.4c0.8,0.1,1.7,0.2,2.4,0.5c0.9,0.6,1.7,1.8,1.3,3.4C71.8,178.3,71.4,179,70.5,179.3z M70.5,177.5
		c0.3-2.4-1.6-2.8-3.6-2.5c0,1.3,0,2.7,0,4C68.7,179.2,69.9,178.7,70.5,177.5z M71.1,183.4c0.6-2.6-1.7-3.8-4.1-3.3
		c-0.3,1.3,0,3.1-0.1,4.5C68.7,184.8,70.4,184.7,71.1,183.4z"/>
	<path class="st1" d="M42.3,173.9c0.3,1.4,0.1,3.2,0.1,4.8c0.1,0.2,0.5-0.2,0.5-0.5c0.2-0.2,0.5-0.3,0.5-0.6c0.4-0.3,0.8-0.7,1-1.3
		c0.8-0.7,1.3-1.7,2.1-2.4c0.5,0,1.1-0.1,1.4,0.1c-0.4,1.1-1.3,1.7-1.9,2.6c-0.6,0.9-1.4,1.6-1.9,2.5c0.7,1.2,1.6,2.1,2.3,3.3
		c0.8,1,1.7,2,2.3,3.3c-0.5,0.3-1.4,0.1-2,0.1c-0.8-0.9-1.4-2-2.1-2.9c-0.6-1.1-1.5-1.9-2-3c-0.3,1.7,0,3.9-0.1,5.8
		c-0.4,0.3-1.2,0.1-1.8,0.1c-0.2-3.6-0.2-8.7,0-11.9C41.2,173.9,41.7,173.9,42.3,173.9z"/>
	<path class="st1" d="M59.3,177.3C59.5,177.2,59.3,177.1,59.3,177.3c-2.2,2.8-4.1,5.8-6.3,8.5c-0.5,0-1,0-1.5,0
		c-0.2-3.7-0.2-8.2,0-11.9c0.5,0,0.9,0,1.4,0c0,3,0,6,0,9c0.1,0.3,0.3-0.3,0.4-0.4c0.2-0.2,0.4-0.4,0.5-0.6c0.3-0.5,0.6-0.8,0.9-1.3
		c0.6-0.8,1.3-1.6,1.8-2.5c0.7-0.7,1.1-1.7,1.9-2.4c0.2-0.5,0.5-0.9,0.9-1.2c0-0.7,0.9-0.7,1.6-0.6c-0.1,3.9,0.2,8.2-0.1,11.9
		c-0.4,0-0.8,0-1.3,0C59.2,183.2,59.4,180.1,59.3,177.3z"/>
	<path class="st1" d="M78.1,174c0,2.8,0,5.5,0,8.3c0.1,0.3,0.3-0.3,0.4-0.4c0.3,0,0.3-0.3,0.4-0.5c0.3-0.3,0.5-0.8,0.9-1
		c0.4-0.9,1-1.5,1.5-2.3c1.1-1.4,2.1-2.9,3.1-4.3c0.5,0,1,0,1.5,0c0.2,3.7,0.2,8.2,0,11.9c-0.4,0-0.8,0-1.3,0c-0.3-2.8,0-6.1-0.1-9
		c-0.1-0.2-0.1,0.1-0.2,0.1c-0.1,0.1-0.1,0.2-0.3,0.3c0,0.3-0.2,0.4-0.4,0.6c-0.3,0.4-0.6,0.9-0.9,1.3c-0.6,0.9-1.2,1.6-1.8,2.5
		c-0.6,0.8-1.3,1.6-1.8,2.5c-0.9,0.6-0.8,2.1-2.5,1.8c-0.2-3.7-0.2-8.2,0-11.9C77.2,173.9,77.9,173.8,78.1,174z"/>
</g>
</svg>
