<?xml version="1.0" encoding="utf-8"?>
<!-- Generator: Adobe Illustrator 20.0.0, SVG Export Plug-In . SVG Version: 6.00 Build 0)  -->
<svg version="1.1" id="Layer_1" xmlns="http://www.w3.org/2000/svg" xmlns:xlink="http://www.w3.org/1999/xlink" x="0px" y="0px"
	width="89.8" height ="39.8" viewBox="0 0 89.8 39.8" style="enable-background:new 0 0 89.7 39.8;" xml:space="preserve">
<style type="text/css">
	.st0{fill:#75BCA6;}
	.st1{fill:none;stroke:#75BCA6;stroke-width:3;stroke-linecap:round;stroke-miterlimit:10;}
</style>
<g>
	<g>
		<path class="st0" d="M48.6,19.1c0,1.9-0.6,3.3-1.8,4.3c-1.2,1-2.9,1.5-5.2,1.5h-1.8v8.9h-2.9v-20h5.1c2.2,0,3.9,0.5,5,1.4
			C48,16,48.6,17.4,48.6,19.1z M39.7,22.4h1.5c1.5,0,2.6-0.3,3.3-0.8c0.7-0.5,1-1.3,1-2.4c0-1-0.3-1.8-0.9-2.3
			c-0.6-0.5-1.6-0.8-2.9-0.8h-2V22.4z"/>
	</g>
	<rect x="33.6" y="22.4" class="st0" width="6.2" height="2.4"/>
	<rect x="33.6" y="27.1" class="st0" width="12.2" height="2.4"/>
</g>
<rect x="1.5" y="9" class="st1" width="79.2" height="29.2"/>
<polyline class="st1" points="9,9 9,1.5 88.2,1.5 88.2,30.8 80.7,30.8 "/>
</svg>
