<?xml version="1.0" encoding="utf-8"?>
<!-- Generator: Adobe Illustrator 20.0.0, SVG Export Plug-In . SVG Version: 6.00 Build 0)  -->
<svg version="1.1" id="svg3052" xmlns="http://www.w3.org/2000/svg" xmlns:xlink="http://www.w3.org/1999/xlink" x="0px" y="0px"
	 viewBox="49.5 39 193 87" style="enable-background:new 49.5 39 193 87;" xml:space="preserve">
<style type="text/css">
	.st0{fill:url(#rect3369_1_);}
	.st1{fill:url(#rect3067_1_);}
	.st2{fill:url(#rect5308_1_);}
	.st3{fill:url(#path5337_1_);}
	.st4{fill:#FFFFFF;}
</style>
<g id="layer5">
	
		<radialGradient id="rect3369_1_" cx="144.1691" cy="-196.0647" r="150.0022" gradientTransform="matrix(0.6433 0 0 -0.29 53.2558 25.6412)" gradientUnits="userSpaceOnUse">
		<stop  offset="0" style="stop-color:#E73431"/>
		<stop  offset="1" style="stop-color:#D71C19"/>
	</radialGradient>
	<rect id="rect3369" x="49.5" y="39" class="st0" width="193" height="87"/>
</g>
<g id="layer1">
	
		<linearGradient id="rect3067_1_" gradientUnits="userSpaceOnUse" x1="72.354" y1="96.8355" x2="103.6711" y2="65.5072" gradientTransform="matrix(0.975 0 0 -0.975 2.802 153.7308)">
		<stop  offset="0" style="stop-color:#FF6053"/>
		<stop  offset="1" style="stop-color:#920003"/>
	</linearGradient>
	<path id="rect3067" class="st1" d="M76.2,59.3h47.3c1.6,0,2.9,1.3,2.9,2.9v47.3c0,1.6-1.3,2.9-2.9,2.9H76.2c-1.6,0-2.9-1.3-2.9-2.9
		V62.2C73.3,60.6,74.6,59.3,76.2,59.3z"/>
</g>
<g id="layer2">
	
		<linearGradient id="rect5308_1_" gradientUnits="userSpaceOnUse" x1="74.9576" y1="103.0989" x2="115.1399" y2="62.6272" gradientTransform="matrix(1 0 0 -1 3.760000e-02 163.9365)">
		<stop  offset="0" style="stop-color:#F4AAA1"/>
		<stop  offset="0.5" style="stop-color:#E11B1C"/>
		<stop  offset="1" style="stop-color:#A10C11"/>
	</linearGradient>
	<path id="rect5308" class="st2" d="M76.9,60.9H122c1.1,0,2,0.9,2,2v45.1c0,1.1-0.9,2-2,2H76.9c-1.1,0-2-0.9-2-2V62.9
		C74.9,61.8,75.8,60.9,76.9,60.9z"/>
</g>
<radialGradient id="path5337_1_" cx="12.5948" cy="279.1181" r="15.5491" gradientTransform="matrix(2.1398 0 0 -2.3493 63.2166 730.0803)" gradientUnits="userSpaceOnUse">
	<stop  offset="0" style="stop-color:#FFFFFF"/>
	<stop  offset="0.1454" style="stop-color:#FFFFFF"/>
	<stop  offset="0.4281" style="stop-color:#CFCFCF"/>
	<stop  offset="0.6766" style="stop-color:#9F9F9F"/>
	<stop  offset="1" style="stop-color:#A0A0A0"/>
	<stop  offset="1" style="stop-color:#FFFFFF"/>
</radialGradient>
<path id="path5337" class="st3" d="M99.4,64.5c-7,0-15.1,12.5-15,25c0,7.9,4.1,16.7,15,16.9c11.4-0.2,15.1-9,15-16.9
	C114.5,76.6,106.1,64.4,99.4,64.5z"/>
<g id="layer4">
	<path id="path5431" class="st4" d="M140,99l2-26h6.9l7.1,14.6l7-14.6h6.9l2,26h-8l-1-13l-4.9,11L154,97l-5.8-11l-1,13H140z"/>
	<path id="path5461" class="st4" d="M183,99V79H175v-6h24v6h-7.9v20H183z"/>
	<path id="path5473" class="st4" d="M221,73.9c-1.6-0.9-3.8-0.9-6-0.9c-8.1,0-13.3,0.9-13.3,6.5v13.1c0,6.5,5.2,6.5,13.3,6.5
		c2.1,0.1,4.9,0,6-0.8v-5.6c-1.3,0.7-3,0.7-6,0.7c-3.2,0-6-0.7-6-4v-7.2c0-2.6,2.5-3.5,6-3.5c2.9,0,4.1-0.1,6,1V73.9z"/>
</g>
</svg>
