<?xml version="1.0" encoding="utf-8"?>
<!-- Generator: Adobe Illustrator 20.0.0, SVG Export Plug-In . SVG Version: 6.00 Build 0)  -->
<svg version="1.1" id="Layer_1" xmlns="http://www.w3.org/2000/svg" xmlns:xlink="http://www.w3.org/1999/xlink" x="0px" y="0px"
	 viewBox="0 0 996.3 253.5" style="enable-background:new 0 0 996.3 253.5;" xml:space="preserve">
<style type="text/css">
	.st0{clip-path:url(#SVGID_2_);}
	.st1{clip-path:url(#SVGID_2_);fill:#C4241A;}
	.st2{clip-path:url(#SVGID_4_);}
	.st3{clip-path:url(#SVGID_4_);fill:#F3CE11;}
</style>
<g>
	<path d="M531.4,94.6v2.8c0,21.4-1.6,32.7-3.5,40.8c-1.7,7.5-4.1,13.9-8,20.9h36.3V94.6H531.4 M508.5,159.1c1.9-3.5,6.4-12,8.9-22.7
		c2.3-10.1,2.8-21.9,2.8-38.3V84.5h47.6v74.5H578v28.8h-10.9v-18.7h-56.9v18.7h-10.9v-28.8H508.5z"/>
	<path d="M626.6,134.2c-0.4-3.6-2.1-8-4.5-10.5c-2.9-3-6.3-3.6-9.4-3.6c-3.5,0-6.5,0.7-9.3,3.4c-2.5,2.4-4.7,6.5-5.3,10.7H626.6
		 M636.7,161.5c-4.5,5.2-10.9,8.9-22,8.9c-6.8,0-13.9-1-20.2-7.5c-5-5.2-8.1-13-8.1-21.6c0-7.7,2.7-16.5,8.1-22.5
		c4.5-4.8,10.4-7.5,18.2-7.5c6.2,0,12,1.6,16.7,6c7,6.6,8.8,17.8,8.7,25.5h-40.6c0.1,5.3,2.2,11.1,5.6,14.6
		c3.5,3.5,7.6,4.2,11.1,4.2c3.4,0,9.7-0.5,15.7-6.2L636.7,161.5z"/>
	<polyline points="663.3,169.1 653.3,169.1 653.3,112.7 663.3,112.7 663.3,134.3 690.2,134.3 690.2,112.7 700.2,112.7 700.2,169.1 
		690.2,169.1 690.2,143 663.3,143 663.3,169.1 	"/>
	<path d="M738.4,160.4c2.4,0,6.9-0.2,9.7-2.4c1.6-1.2,3.5-3.5,3.5-7.6c0-3.9-1.8-6.2-3.3-7.4c-2.8-2.2-7.5-2.4-10.3-2.4h-8.9v19.8
		H738.4 M719.1,112.7h10v19.2h10.1c7.9,0,13.9,1.6,18,5.4c4.5,4.2,5.2,9.7,5.2,13.3c0,7-2.8,11-5.1,13.2c-4.8,4.6-12.2,5.3-19.7,5.3
		h-18.6V112.7z"/>
	<polyline points="786.1,169.1 776.1,169.1 776.1,112.7 812.2,112.7 812.2,121.6 786.1,121.6 786.1,169.1 	"/>
	<g>
		<defs>
			<rect id="SVGID_1_" x="0.2" width="996.1" height="253.4"/>
		</defs>
		<clipPath id="SVGID_2_">
			<use xlink:href="#SVGID_1_"  style="overflow:visible;"/>
		</clipPath>
		<polyline class="st0" points="861.7,118.4 861.7,112.7 871.8,112.7 871.8,169.1 861.7,169.1 861.7,130.7 834.9,163.3 834.9,169.1 
			824.9,169.1 824.9,112.7 834.9,112.7 834.9,151 861.7,118.4 		"/>
		<path class="st1" d="M58.7,58.4H39.5c-18.9,0-34.9,14.4-34.9,42.3c0,16.8,7.8,29.1,21.6,35.2L0.3,182.7c-0.8,1.5,0,2.7,1.3,2.7h12
			c1,0,1.7-0.3,2-1.2l23.5-45.9h8.4v45.9c0,0.5,0.5,1.2,1.2,1.2h10.5c1,0,1.3-0.5,1.3-1.3V60.1C60.6,58.9,59.9,58.4,58.7,58.4
			 M47.6,127.5h-7.1c-11.1,0-21.9-8.1-21.9-28.4c0-21.2,10.1-29.8,20.4-29.8h8.6V127.5z"/>
	</g>
	<path d="M122.2,100.5h-10.5c-0.8,0-1.3,0.7-1.3,1.2V134H90.9v-32.3c0-0.8-0.3-1.2-1.2-1.2H79.3c-0.8,0-1.3,0.5-1.3,1.2V184
		c0,0.8,0.3,1.4,1.2,1.4h10.6c0.7,0,1.2-0.5,1.2-1.4v-39.3h19.4V184c0,0.8,0.5,1.4,1.3,1.4h10.5c0.8,0,1.2-0.7,1.2-1.4v-82.3
		C123.4,101,122.9,100.5,122.2,100.5"/>
	<path d="M361.1,179.9l-1.4-5.8c-0.2-0.5-0.3-0.7-0.8-0.7c-0.8,0-5.4,1.9-12,1.9c-12.8,0-19.1-12.4-19.1-32c0-17.3,5.2-34.4,14-34.4
		c2.4,0,5.2,0.7,9.8,4.9c0.5,0.5,0.8,0.7,1.4,0.7c0.5,0,1-0.3,1.5-1.2l4.6-7.4c0.3-0.5,0.5-1,0.5-1.5c0-0.7-0.7-1.2-1.7-1.7
		c-6.9-3.6-11.6-4.2-15.7-4.2c-15.9,0-28.2,19-28.2,48.6c0,25.6,11.8,40.3,28.7,40.3c7.1,0,14.7-3.4,17.7-5.6
		C361.1,181.2,361.3,180.6,361.1,179.9"/>
	<path d="M287.7,138.7l20.3-37.1c0.3-0.5,0.2-1.2-0.5-1.2h-10c-2.9,0-3.9,1-4.9,3.2l-15.2,31.7c-0.8,1.9-1.7,3-2.5,3.6v-37.2
		c0-0.7-0.3-1.2-1-1.2h-11c-0.5,0-1,0.5-1,1.2v82.5c0,0.5,0.3,1.2,1,1.2h11c0.7,0,1-0.5,1-1.2v-42.5c0.5,0.3,0.8,0.8,1.2,1.5
		l19.2,39.6c1,2,2.5,2.5,4.7,2.5h10.8c0.7,0,0.8-0.7,0.5-1.2L287.7,138.7"/>
	<path d="M191,174.6h-2c-2.5,0-3.2-1-3.2-3v-69.9c0-0.8-0.3-1.2-1-1.2H151c-0.8,0-1.3,0.5-1.3,1.2v6.1c0,20.5-1.2,46.9-12,66.9H134
		c-1,0-1.3,0.5-1.3,1.4v24.7c0,0.8,0.7,1.2,1.2,1.2h8.1c1.9,0,2.5-1.4,2.5-2.5v-14.1h36.1v15.4c0,0.7,0.5,1.2,1.2,1.2h8.6
		c1,0,2-0.8,2-2.5V176C192.4,175.2,191.9,174.6,191,174.6 M172.8,174.6h-24.5c8.6-14.7,12-31.3,13.2-51.6c0.3-4.4,0.5-9,0.5-11.9
		h10.8V174.6z"/>
	<g>
		<defs>
			<rect id="SVGID_3_" x="0.2" width="996.1" height="253.4"/>
		</defs>
		<clipPath id="SVGID_4_">
			<use xlink:href="#SVGID_3_"  style="overflow:visible;"/>
		</clipPath>
		<path class="st2" d="M225.5,98.5c-18.2,0-26.3,23-26.3,48.1c0,25.6,11.5,40.8,28.4,40.8c8.3,0,15.5-3.2,19.2-5.6
			c0.7-0.3,0.8-0.8,0.7-1.5l-1.4-5.8c-0.2-0.7-0.5-1-1.4-1c-0.7,0-5.6,1.9-12.5,1.9c-13,0-19.1-11.3-19.1-26.2v-4
			c0,0,6.6,0.8,10.5,0.8h24.6v-7.1C248.3,112.5,239,98.5,225.5,98.5 M223.6,135.2c-3.9,0-10,0.7-10,0.7s0-2.5,0.3-5.3
			c1.5-14.4,5.1-21.7,11-21.7c5.4,0,8.8,7.4,9.6,20.5c0.2,2.7,0.2,5.8,0.2,5.8H223.6z"/>
		<path class="st3" d="M445.6,21.4h462.6l61,105.4l-61,105.4H445.6V21.4 M421.7,0v253.5h501.4l73.2-126.8L923.1,0H421.7z"/>
	</g>
</g>
</svg>
