<?xml version="1.0" encoding="utf-8"?>
<!-- Generator: Adobe Illustrator 20.0.0, SVG Export Plug-In . SVG Version: 6.00 Build 0)  -->
<svg version="1.1" id="Layer_1" xmlns="http://www.w3.org/2000/svg" xmlns:xlink="http://www.w3.org/1999/xlink" x="0px" y="0px"
	 viewBox="0 0 695.6 166.2" style="enable-background:new 0 0 695.6 166.2;" xml:space="preserve">
<style type="text/css">
	.st0{fill:#B6562E;}
	.st1{fill:#C76A2E;}
</style>
<g>
	<path class="st0" d="M687.5,12.3h-10.6c-6.8,0-11.8,4.5-15.7,10l-10.5,14.8c0,0,0,0,0,0l0,0l-22.8,32l-19.7-27.7
		c-0.1-0.1-0.1-0.3-0.2-0.4l-13.3-18.6c-3.9-5.5-9-10-15.8-10H569c-6.8,0-11.2,4.5-7.3,10L575.1,41c0,0,0.1,0.1,0.1,0.1l38,53v37
		v13.5v9.5c0,6.7,5.6,12.2,12.4,12.2l4.6,0c6.8,0,12.4-5.5,12.4-12.2v-9.5V131V94L683,37.6c0.1-0.2,0.3-0.3,0.4-0.5L694,22.3
		C698,16.8,694.3,12.3,687.5,12.3z"/>
	<path class="st1" d="M244,84.4l38.2-36.2c0.2-0.2,27-25.6,27-25.6c4.8-4.6-0.4-10.3-7-10.3h-14.5c-6.6,0-9.9,3.8-14.8,8.4l-28.3,27
		c0,0,0,0-0.1,0.1l-18.2,17.4V45.4h-0.1c0-0.3,0.1-0.5,0.1-0.8V24.5c0-6.7-5.4-12.2-12-12.2H209c-6.6,0-12,5.5-12,12.2v20.1
		c0,0.3,0.1,0.5,0.1,0.8H197v85.4v0.8V154c0,6.7,5.4,12.2,12,12.2h5.4c6.6,0,12-5.5,12-12.2v-22.3v-0.8v-25.5l25.9,26.3h0l25.5,25.9
		c4.7,4.7,7.9,8.6,14.5,8.6h14.5c6.6,0,9.4-7.9,4.7-12.7L244,84.4z"/>
	<path class="st0" d="M588.5,151L588.5,151L539,29.4h0l-2.3-5.7c-2.5-6.2-10.2-11.3-17-11.3h-4.9c-6.8,0-14.5,5.1-17,11.4l-2.3,5.7
		h-0.1l-49.4,121h0l-1.9,4.5c-2.6,6.2,1,11.3,7.8,11.3h11.1c6.8,0,10-5.2,12.4-11.5l1.7-4.4h0.1l10-26.2h60.4l0.8,2.1l0.6,1.2
		l8.9,23.5h0l1.4,3.8c2.4,6.3,6.6,11.5,13.4,11.5h9.8c6.8,0,10.3-5.1,7.8-11.3L588.5,151z M531.4,99.5H503c-3.4,0-5.2-2.5-3.9-5.7
		l15.7-38c1.3-3.1,3.4-3.1,4.7,0l15.8,38C536.6,96.9,534.8,99.5,531.4,99.5z"/>
	<path class="st0" d="M464.1,80.5c2.5-6,3.8-12.9,3.8-20.6c0-7.6-1.2-14.5-3.8-20.4c-2.5-6-6.3-11.1-11.3-15.2
		c-10-8.1-24.5-12.1-43-12.1h-8h-5.6h-26.5c-6.9,0-12.6,5.5-12.6,12.2v16.7v10.4v80.3v2.4V154c0,6.7,5.7,12.2,12.6,12.2h4.9
		c6.9,0,12.6-5.5,12.6-12.2v-19.7v-2.4v-24.1h22.5c18.5,0,33.1-3.9,43-12C457.8,91.6,461.6,86.5,464.1,80.5z M434.8,70
		c-1.1,2.8-2.8,5.2-5,7.2l0,0l0,0c-4.5,3.9-11.1,6-20.1,6h-11.6h-0.7h-3.9c-3.5,0-6.3-2.7-6.3-6.1V42.9c0-3.4,2.8-6.1,6.3-6.1h3.9
		h0.7h11.6c9,0,15.6,2.1,20.1,6c2.2,1.9,3.9,4.3,5,7.2c1.1,2.9,1.7,6.2,1.7,10C436.6,63.8,436,67.2,434.8,70z"/>
	<path class="st1" d="M163.8,22.8c-14-15.2-33-22.9-56-22.8C84.7,0,65.7,7.7,51.7,22.8C41.4,34,34.9,48,32.2,64.7v0L31,77.8v0.1
		c-0.1,1.7-0.2,3.4-0.2,5.2c0,2.8,0.1,5.4,0.3,8v0.1l1.7,13.1v0c2.9,15.4,9.2,28.5,18.9,39c14,15.1,33,22.8,56.1,22.8
		c23,0,42-7.7,56-22.8c13.9-15.1,20.9-35.4,20.9-60.2C184.7,58.3,177.7,37.9,163.8,22.8z M141,126c-4.1,5.1-8.9,8.8-14.3,11.3
		c-5.5,2.5-11.7,3.7-18.9,3.7c-7.2,0-13.4-1.3-18.9-3.7c-5.5-2.5-10.3-6.2-14.4-11.4c-4.9-6-8.4-13.4-10.4-22.2l-1.9-12.8
		c-0.1-0.8-0.1-2.4-0.1-4.1c0-1.8-0.1-3.9-0.1-5.5c0-1.4,0-2.6,0-3.1l1.5-12.8c1.9-10,5.6-18.4,11-25l0,0h0
		c4.2-5.2,8.9-8.9,14.4-11.4c5.5-2.5,11.7-3.7,18.9-3.7c7.1,0,13.4,1.3,18.9,3.7c5.5,2.5,10.2,6.2,14.3,11.3
		c8.3,10.2,12.6,24.6,12.6,42.9C153.6,101.4,149.3,115.7,141,126z"/>
	<polygon class="st1" points="107.4,73.9 6.2,73.9 15.7,55.4 117,55.4 	"/>
	<polygon class="st1" points="88.5,110.8 0,110.8 10,92.3 98.5,92.3 	"/>
</g>
</svg>
