<?xml version="1.0" encoding="utf-8"?>
<!-- Generator: Adobe Illustrator 20.0.0, SVG Export Plug-In . SVG Version: 6.00 Build 0)  -->
<svg version="1.1" id="Layer_1" xmlns="http://www.w3.org/2000/svg" xmlns:xlink="http://www.w3.org/1999/xlink" x="0px" y="0px"
	 width="798.4" height ="199.6" viewBox="0 0 798.4 199.6" style="enable-background:new 0 0 798.4 199.6;" xml:space="preserve">
<style type="text/css">
	.st0{fill-rule:evenodd;clip-rule:evenodd;fill:#2872B4;}
	.st1{fill:#2872B4;}
</style>
<g>
	<g>
		<path class="st0" d="M697.8,0c15.7,0,30.5,3.6,43.7,10.1c2.1,1,4.1,2.1,6.2,3.3l-9.2,8.2L724.8,7.3l-23.3,20.8L687.6,13
			l-43.4,39.1l27.8,30.7l-10.9,9.6l27.4,30.7l-10.9,9.6l39.2,43.6l23.2-21.4l20.1,22.9c-4,3.1-8.4,6-13.1,8.7
			c-14.5,8.3-31.3,13-49.2,13c-55,0-99.8-44.8-99.8-99.8C598,44.8,642.8,0,697.8,0L697.8,0z"/>
		<polygon class="st0" points="679.6,93.5 703.4,72.1 724.7,95.9 701,117.2 679.6,93.5 		"/>
		<polygon class="st0" points="696.5,134.5 720.2,113.2 741.6,136.9 717.9,158.3 696.5,134.5 		"/>
		<polygon class="st0" points="662.6,53 686.4,31.6 707.7,55.3 684,76.7 662.6,53 		"/>
		<polygon class="st0" points="706.2,41.5 724,25.4 740,43.2 722.2,59.3 706.2,41.5 		"/>
		<polygon class="st0" points="737.8,114.9 755.6,98.9 771.7,116.7 753.9,132.7 737.8,114.9 		"/>
		<polygon class="st0" points="753.5,150.8 771.3,134.8 787.3,152.6 769.5,168.6 753.5,150.8 		"/>
		<polygon class="st0" points="760.7,68.4 772.5,57.7 783.2,69.6 771.3,80.3 760.7,68.4 		"/>
		<polygon class="st0" points="745.5,33.2 757.4,22.5 768,34.4 756.2,45 745.5,33.2 		"/>
		<polygon class="st0" points="775.8,103.7 787.7,93 798.4,104.9 786.5,115.6 775.8,103.7 		"/>
		<polygon class="st0" points="722.6,77.3 740.4,61.2 756.4,79 738.6,95.1 722.6,77.3 		"/>
	</g>
	<g>
		<path class="st1" d="M46.6,82.6h-0.8l-15,56.8H18.5L0,58.7h12.8l12.8,60.2h0.8l14.8-60.2h10.1l15.8,60.2h0.8l11.6-60.2h13.3
			l-18.5,80.7H62.1L46.6,82.6z"/>
		<path class="st1" d="M143.3,126.9v8.7c-5.1,3-12,5.2-20.2,5.2c-19.1,0-27-11.8-27-29.8c0-17.3,8.8-29.8,25.9-29.8
			c14.2,0,23,9.2,23,27.8v4.2h-37.1c0,13.7,5.6,19.7,17.3,19.7C131.3,132.8,137,130.7,143.3,126.9z M108.1,105.5h26.1
			c-0.6-12-6.4-16.7-12.5-16.7C114.7,88.8,109.3,94.1,108.1,105.5z"/>
		<path class="st1" d="M167.2,85.3c3.4-1.8,9.2-4.2,15.4-4.2c14.1,0,21.8,9.8,21.8,28c0,21.3-10.2,31.7-26.8,31.7
			c-6,0-15.4-1.9-22.2-5.6V55.7l11.8-2.8V85.3z M167.1,131c3.6,1.6,7.6,1.8,10.5,1.8c8.4,0,14.8-5.2,14.8-23.7
			c0-14.5-5.2-19.1-12.9-19.1c-4.6,0-7.9,1.3-12.4,3.8V131z"/>
		<path class="st1" d="M256.1,122.4h0.6l24.4-63.7h14.1v80.7h-12.3V80.9h-1l-23.2,58.5h-7.3l-23.2-57.2h-1v57.2h-10.2V58.7h13.8
			L256.1,122.4z"/>
		<path class="st1" d="M307.7,111c0-19.9,10.9-29.8,26-29.8c15,0,26,9.9,26,29.8c0,19.5-10.4,29.8-26,29.8
			C318.1,140.8,307.7,130.4,307.7,111z M347.7,111c0-15.4-6.3-21.9-14-21.9c-7.5,0-14,6.5-14,21.9c0,15.6,5.9,21.9,14,21.9
			C341.8,132.8,347.7,126.6,347.7,111z"/>
		<path class="st1" d="M370.5,89.6c5.1-3.1,15.9-8.4,29-8.4c13.7,0,18.8,5.4,18.8,17.1v41.2h-11.8v-38.6c0-9-4.4-10.6-10.2-10.6
			c-4.6,0-10.4,2.1-13.9,4.1v45.1h-11.8V89.6z"/>
		<path class="st1" d="M476.1,126.9v8.7c-5.1,3-12,5.2-20.2,5.2c-19.1,0-27-11.8-27-29.8c0-17.3,8.8-29.8,25.9-29.8
			c14.2,0,23,9.2,23,27.8v4.2h-37.1c0,13.7,5.6,19.7,17.3,19.7C464.1,132.8,469.8,130.7,476.1,126.9z M440.9,105.5h26.1
			c-0.6-12-6.4-16.7-12.5-16.7C447.5,88.8,442.1,94.1,440.9,105.5z"/>
		<path class="st1" d="M522.1,83.1h12.2L513.6,140c-5.7,15.7-12.6,23.9-25.7,23.9v-9.3c7.7,0,12.5-6.2,15.3-14.6l-21.9-56.9h12.5
			l14.6,41.9h0.7L522.1,83.1z"/>
	</g>
</g>
</svg>
