<?xml version="1.0" encoding="utf-8"?>
<!-- Generator: Adobe Illustrator 20.0.0, SVG Export Plug-In . SVG Version: 6.00 Build 0)  -->
<svg version="1.1" id="Layer_1" xmlns="http://www.w3.org/2000/svg" xmlns:xlink="http://www.w3.org/1999/xlink" x="0px" y="0px"
	 width="726.9" height ="193.6" viewBox="0 0 726.9 193.6" style="enable-background:new 0 0 726.9 193.5;" xml:space="preserve">
<style type="text/css">
	.st0{fill-rule:evenodd;clip-rule:evenodd;fill:#4A7EAB;}
	.st1{fill-rule:evenodd;clip-rule:evenodd;fill:#375A7D;}
	.st2{fill:#375A7D;}
</style>
<g>
	<path class="st0" d="M567.9,30.5c-18.2,0-32.6,4.8-43.6,7l-3.4,27.6c5.5-2.6,22.8-7.5,37.2-7.9c14.4-0.4,22.8,2.6,19.9,14.9
		c-42.7,0-71.5,8.8-77.4,36.4c-8.5,47.4,43.6,46.1,64.3,25.5l-2.5,11.4h38.1L617,70C623.7,37.9,594.5,30.1,567.9,30.5z M570.4,107.7
		c-2.1,10.1-10.1,14.5-19.9,14.9c-8.5,0.4-16.1-7-10.6-15.8c4.2-7.5,16.1-9.2,23.3-9.2c3,0,6.4,0,9.3,0
		C571.7,101.1,571.2,104.2,570.4,107.7z"/>
	<polygon class="st0" points="649.5,0.6 618,145.5 656.7,145.5 688.6,0.6 649.5,0.6 649.5,0.6 	"/>
	<path class="st0" d="M471.8,1.1H401l-31.4,144.4h41.1l10.6-47.8h29.3c28.8,0,52.6-17.6,58.9-47.4C516.8,16.4,492.2,1.1,471.8,1.1z
		 M470.6,50.2C468,61.2,457,70,446.4,70h-19.1l8.5-39.5h20.4C466.7,30.5,473.1,39.3,470.6,50.2z"/>
	<path class="st1" d="M197,30.5c-18,0-32.2,4.8-42.6,7l-3.3,27.6c5-2.6,22.2-7.5,36.4-7.9c14.2-0.4,22.6,2.6,20.1,14.9
		c-42.2,0-70.6,8.8-76.5,36.4c-8.4,47.4,43,46.1,63.1,25.5l-2.5,11.4h38L245.9,70C252.6,37.9,223.4,30.1,197,30.5z M200,107.7
		c-2.1,10.1-10.4,14.5-20.1,14.9c-8.4,0.4-15.5-7-10-15.8c4.2-7.5,15.9-9.2,22.6-9.2c3.3,0,6.3,0,9.6,0
		C201.2,101.1,200.4,104.2,200,107.7z"/>
	<polygon class="st1" points="262.5,32.6 300.5,32.6 306.7,99.8 343.9,32.6 383.1,32.6 292.8,193.5 250.2,193.5 278,146.2 
		262.5,32.6 262.5,32.6 	"/>
	<path class="st1" d="M102.5,1.1h-71L0,145.5h41.7l10.2-47.8h29.8c28.5,0,52.3-17.6,58.7-47.4C147.5,16.4,123.3,1.1,102.5,1.1z
		 M101.2,50.2C98.6,61.2,88,70,77.4,70H57.8l8.9-39.5h20.4C97.4,30.5,104.2,39.3,101.2,50.2z"/>
	<path class="st2" d="M696.9,19.4V2.3h-6.4V0h15.3v2.3h-6.4v17.1H696.9z"/>
	<path class="st2" d="M708.5,19.4V0h3.8l4.6,13.7c0.4,1.3,0.7,2.2,0.9,2.9c0.2-0.7,0.6-1.7,1-3.1L723.5,0h3.4v19.4h-2.5V3.2
		l-5.6,16.2h-2.3l-5.6-16.5v16.5H708.5z"/>
</g>
</svg>
