<svg id="Layer_1" data-name="Layer 1" xmlns="http://www.w3.org/2000/svg" width="2.32mm" height="48.69mm" viewBox="0 0 6.59 138.01"><defs><style>.cls-1{fill:#5fbb28;}</style></defs><title>icon-social-sprite-top-green</title><path class="cls-1" d="M6.59,79.65a2.72,2.72,0,0,1-.78.21,1.35,1.35,0,0,0,.6-.75,2.71,2.71,0,0,1-.86.33,1.35,1.35,0,0,0-2.3,1.23A3.84,3.84,0,0,1,.46,79.26a1.35,1.35,0,0,0,.42,1.81,1.34,1.34,0,0,1-.61-.17h0a1.35,1.35,0,0,0,1.08,1.33,1.35,1.35,0,0,1-.35,0l-.25,0A1.35,1.35,0,0,0,2,83.19a2.71,2.71,0,0,1-1.69.6l-.32,0a3.83,3.83,0,0,0,2.07.61,3.82,3.82,0,0,0,3.85-3.8h0v-.22A2.76,2.76,0,0,0,6.59,79.65Z" transform="translate(0 0)"/><path class="cls-1" d="M1.76,27.47h.67v-.63a1.68,1.68,0,0,1,.21-1,1.15,1.15,0,0,1,1-.46,4.09,4.09,0,0,1,1.16.12l-.16.94a2.19,2.19,0,0,0-.52-.08c-.25,0-.48.09-.48.35v.73h1l-.07.94h-1v3.26H2.43V28.4H1.76Z" transform="translate(0 0)"/><polygon class="cls-1" points="2.6 104.37 2.07 104.37 1.75 105.71 1.72 105.71 1.38 104.37 0.86 104.37 0.86 104.37 1.48 106.39 1.48 107.72 1.99 107.72 1.99 106.33 2.6 104.37 2.6 104.37"/><path class="cls-1" d="M2.75,107.59a.64.64,0,0,0,.48.19h0a.66.66,0,0,0,.49-.18.68.68,0,0,0,.18-.5v-1.27a.62.62,0,0,0-.18-.46.64.64,0,0,0-.47-.18.71.71,0,0,0-.5.17.59.59,0,0,0-.19.46v1.28A.71.71,0,0,0,2.75,107.59ZM3,105.8H3a.17.17,0,0,1,.05-.13.19.19,0,0,1,.14,0,.21.21,0,0,1,.15,0,.17.17,0,0,1,.06.13v1.34a.22.22,0,0,1-.06.16.19.19,0,0,1-.15.06.18.18,0,0,1-.14-.06.23.23,0,0,1,0-.16Z" transform="translate(0 0)"/><path class="cls-1" d="M5.15,105.25v1.87a.66.66,0,0,1-.14.13.25.25,0,0,1-.13.05.11.11,0,0,1-.09,0,.22.22,0,0,1,0-.13v-1.89H4.3v2.06a.56.56,0,0,0,.08.33.28.28,0,0,0,.24.11.54.54,0,0,0,.27-.08,1,1,0,0,0,.26-.23v.27h.46v-2.47Z" transform="translate(0 0)"/><path class="cls-1" d="M3.85,109.51H3.79l-.06.05v1.06l.07.06h.07a.1.1,0,0,0,.08,0,.19.19,0,0,0,0-.12v-.87a.22.22,0,0,0,0-.13A.12.12,0,0,0,3.85,109.51Z" transform="translate(0 0)"/><path class="cls-1" d="M5,109.52a.12.12,0,0,0-.11,0,.27.27,0,0,0,0,.15v.17h.28v-.18a.27.27,0,0,0,0-.15A.12.12,0,0,0,5,109.52Z" transform="translate(0 0)"/><path class="cls-1" d="M5.85,108.87a.74.74,0,0,0-.75-.74q-.84,0-1.71,0H3.2q-.87,0-1.71,0a.74.74,0,0,0-.75.74c0,.32,0,.65,0,1a8.92,8.92,0,0,0,0,1,.74.74,0,0,0,.75.74q.84,0,1.72,0h.17q.88,0,1.72,0a.74.74,0,0,0,.75-.74c0-.32,0-.65,0-1S5.87,109.2,5.85,108.87Zm-4,2.08H1.49v-2H1.13v-.35H2.21V109H1.86Zm1.26,0H2.78v-.19a.68.68,0,0,1-.18.16.35.35,0,0,1-.18.05.19.19,0,0,1-.17-.07.38.38,0,0,1-.06-.23v-1.41h.31v1.29a.15.15,0,0,0,0,.09.07.07,0,0,0,.06,0l.09,0,.1-.09v-1.28h.31Zm1.21-.35a.44.44,0,0,1-.07.28A.25.25,0,0,1,4,111a.35.35,0,0,1-.17,0,.42.42,0,0,1-.13-.11V111H3.4v-2.3h.32v.74a.48.48,0,0,1,.13-.12.29.29,0,0,1,.14,0,.26.26,0,0,1,.24.13.53.53,0,0,1,.08.31Zm1.16-.46h-.6v.32a.39.39,0,0,0,0,.19.12.12,0,0,0,.11,0,.13.13,0,0,0,.11,0,.38.38,0,0,0,0-.19v-.12h.32v.13a.57.57,0,0,1-.12.39A.45.45,0,0,1,5,111a.42.42,0,0,1-.33-.14.57.57,0,0,1-.12-.38v-.77a.49.49,0,0,1,.13-.35.46.46,0,0,1,.35-.14.42.42,0,0,1,.33.13.53.53,0,0,1,.12.35Z" transform="translate(0 0)"/><path class="cls-1" d="M5.44,55.61c-.11-.21-.4-.38-.78-.08a2.54,2.54,0,0,1-1.36.41,2.54,2.54,0,0,1-1.36-.41c-.39-.3-.68-.13-.78.08s0,.55.49.85a3.13,3.13,0,0,0,1.3.39l-.3.3-1.1,1.1a.43.43,0,0,0,0,.6l0,0a.43.43,0,0,0,.3.12h0a.43.43,0,0,0,.3-.12l1.1-1.1,1.1,1.11a.43.43,0,0,0,.6,0l0,0a.43.43,0,0,0,0-.6L4,57.15l-.3-.3a3.11,3.11,0,0,0,1.28-.41c.47-.3.67-.48.49-.85Zm-2.14-3a.91.91,0,1,1-.91.91h0A.91.91,0,0,1,3.3,52.61Zm0,2.78a1.86,1.86,0,1,0-1.86-1.86A1.86,1.86,0,0,0,3.3,55.39Z" transform="translate(0 0)"/><path class="cls-1" d="M1.15,0H3.6c.8,0,1.49.4,1.49,1.19a1.21,1.21,0,0,1-.74,1.22s.33.12.42.17a1.15,1.15,0,0,1,.35.25,1.21,1.21,0,0,1,.34,1c0,1.06-1,1.56-2,1.56H1.14ZM2.47,1.41v.71c.63,0,1.22.08,1.22-.6S3,1,2.47,1Zm0,3C3.18,4.39,4,4.5,4,3.72s-.85-.66-1.56-.66Z" transform="translate(0 0)"/><path class="cls-1" d="M.91,131.58H5.68a.83.83,0,0,1,.83.83v4.78a.83.83,0,0,1-.83.83H.91a.83.83,0,0,1-.83-.83v-4.78A.83.83,0,0,1,.91,131.58Zm3.86.71h0a.29.29,0,0,0-.29.29h0v.71a.29.29,0,0,0,.29.29h.73a.29.29,0,0,0,.29-.29h0v-.71a.29.29,0,0,0-.29-.29H4.76Zm1,2H5.22a1.88,1.88,0,0,1,.08.55,2,2,0,0,1-2,1.94,2,2,0,0,1-2-1.93h0a1.87,1.87,0,0,1,.08-.55H.79V137a.26.26,0,0,0,.26.25H5.52a.26.26,0,0,0,.25-.25V134.3Zm-2.47-.77h0a1.25,1.25,0,0,0-.14,2.5h.13a1.25,1.25,0,0,0,.13-2.5Z" transform="translate(0 0)"/></svg>