<svg id="_лой_3" data-name="—лой_3" xmlns="http://www.w3.org/2000/svg" viewBox="0 0 57.39 57.39"><defs><style>.cls-1{fill:#faa61a;}.cls-2{fill:#fff;}</style></defs><title>kl-icon-7</title><circle class="cls-1" cx="28.7" cy="28.7" r="28.7"/><path class="cls-2" d="M37.5,40.81A2.88,2.88,0,0,1,36,40.39l-6.35-3.87a.54.54,0,0,1,.56-.92l6.35,3.87a1.86,1.86,0,0,0,1.48.2,2.16,2.16,0,0,0,1.27-1l2.91-4.77a2.17,2.17,0,0,0,.28-1.58,1.86,1.86,0,0,0-.85-1.22l-22-13.38a1.86,1.86,0,0,0-1.48-.2,2.15,2.15,0,0,0-1.27,1L14,23.29a2,2,0,0,0,.57,2.8l6.88,4.19a.54.54,0,1,1-.56.92L14,27a3.1,3.1,0,0,1-.93-4.27L16,18a3.23,3.23,0,0,1,1.9-1.45,2.93,2.93,0,0,1,2.32.31l22,13.38a2.92,2.92,0,0,1,1.34,1.92,3.22,3.22,0,0,1-.41,2.36l-2.91,4.77a3.22,3.22,0,0,1-1.9,1.45A3,3,0,0,1,37.5,40.81Z"/><path class="cls-2" d="M34,31.31a.53.53,0,0,1-.28-.08L33,30.75a.54.54,0,1,1,.56-.92l.79.48a.54.54,0,0,1-.28,1Z"/><path class="cls-2" d="M31.66,29.86a.53.53,0,0,1-.28-.08l-.79-.48a.54.54,0,0,1,.56-.92l.79.48a.54.54,0,0,1-.28,1Z"/><path class="cls-2" d="M28.75,28.09a.53.53,0,0,1-.28-.08l-5.29-3.22a.54.54,0,1,1,.56-.92L29,27.09a.54.54,0,0,1-.28,1Z"/><path class="cls-2" d="M21.74,35.16a.54.54,0,0,1-.54-.51l-.29-7a.54.54,0,0,1,.08-.3l1.93-3.18a.54.54,0,0,1,.92.56l-1.85,3,.29,6.83a.54.54,0,0,1-.51.56Z"/><path class="cls-2" d="M25.78,37.71a.54.54,0,0,1-.28-.08l-4.09-2.49a.54.54,0,0,1,.56-.92l3.84,2.34,6-2.81,1.85-3a.54.54,0,1,1,.92.56l-1.93,3.18a.53.53,0,0,1-.23.21l-6.38,3A.54.54,0,0,1,25.78,37.71Z"/><path class="cls-2" d="M21.54,36.94a.54.54,0,0,1-.46-.82l.56-.93a.54.54,0,0,1,.92.56l-.56.93A.54.54,0,0,1,21.54,36.94Z"/><path class="cls-2" d="M24.19,38.55a.54.54,0,0,1-.46-.82l.57-.93a.54.54,0,0,1,.91.56l-.56.93A.53.53,0,0,1,24.19,38.55Z"/><path class="cls-2" d="M18.8,49.78a.54.54,0,0,1-.46-.81l5.85-9.6L20.34,37l-5.85,9.6a.54.54,0,1,1-.92-.56L19.71,36a.54.54,0,0,1,.74-.18l4.76,2.9a.54.54,0,0,1,.18.74L19.26,49.53A.54.54,0,0,1,18.8,49.78Z"/><path class="cls-2" d="M34.91,46.06a5.36,5.36,0,0,1-5-3.45,8.78,8.78,0,0,1-6.84,2.83.54.54,0,0,1-.51-.56.54.54,0,0,1,.56-.51,7.7,7.7,0,0,0,6.61-3.22.54.54,0,0,1,1,.23,4.29,4.29,0,0,0,8.52-.73.54.54,0,0,1,.63-.54,5.14,5.14,0,0,0,4.69-8.56.54.54,0,0,1,.07-.79,2,2,0,0,0-.16-3.37l-.23-.12a.54.54,0,0,1-.18-.85,3.36,3.36,0,0,0,.8-3.08,3.36,3.36,0,0,0-5-2.08.54.54,0,0,1-.8-.59,6.81,6.81,0,0,0-11.94-5.86.54.54,0,0,1-.88-.06,4,4,0,0,0-7.17.37.54.54,0,0,1-.71.27,2.87,2.87,0,0,0-3.56,4.23.54.54,0,0,1-.64.8,3.6,3.6,0,1,0-2,6.87.54.54,0,0,1,.26.92,3.7,3.7,0,0,0,2.92,6.37.54.54,0,0,1,.58.63,7.71,7.71,0,0,0,.51,4.55.54.54,0,1,1-1,.43,8.79,8.79,0,0,1-.68-4.52,4.77,4.77,0,0,1-3.9-7.24c.07-.12.14-.23.22-.33a4.75,4.75,0,0,1-.66-.34,4.67,4.67,0,0,1,3-8.62,3.94,3.94,0,0,1,4.93-4.89l.07-.11a5.11,5.11,0,0,1,8.37-.51,7.88,7.88,0,0,1,13.54,6.3,4.43,4.43,0,0,1,5.09,6.54l-.13.2a3.11,3.11,0,0,1,.8,4.11,3.08,3.08,0,0,1-.37.49,6.22,6.22,0,0,1-5.41,10,5.36,5.36,0,0,1-4.07,4.67A5.41,5.41,0,0,1,34.91,46.06Z"/><path class="cls-2" d="M39.26,26.88a.52.52,0,0,1-.17,0,.54.54,0,0,1-.34-.68,3.8,3.8,0,0,0-3.42-5,.54.54,0,1,1,.05-1.07,4.88,4.88,0,0,1,4.38,6.41A.54.54,0,0,1,39.26,26.88Z"/><path class="cls-2" d="M32.89,21.71a.54.54,0,0,1-.32-1,.69.69,0,0,1,.47-.15.54.54,0,0,1,.37,1,.76.76,0,0,1-.35.09Z"/><path class="cls-2" d="M26.57,17.79a.53.53,0,0,1-.34-.12,2.44,2.44,0,0,0-2.55-.34.54.54,0,1,1-.45-1,3.51,3.51,0,0,1,3.68.48.54.54,0,0,1-.34.95Z"/><path class="cls-2" d="M43.57,18.59A3.37,3.37,0,1,1,46.45,17,3.36,3.36,0,0,1,43.57,18.59Zm0-5.67a2.3,2.3,0,1,0,1.19.34A2.29,2.29,0,0,0,43.57,12.92Z"/><path class="cls-2" d="M26.4,11.18a2.85,2.85,0,1,1,2.44-1.37A2.85,2.85,0,0,1,26.4,11.18Zm0-4.63a1.78,1.78,0,1,0,.92.26A1.77,1.77,0,0,0,26.41,6.55Z"/><path class="cls-2" d="M49.86,29.07a1.56,1.56,0,1,1,1.34-.75A1.56,1.56,0,0,1,49.86,29.07Zm0-2.05a.49.49,0,1,0,.25.07A.5.5,0,0,0,49.86,27Z"/><path class="cls-2" d="M30.44,51a1.93,1.93,0,1,1,1-3.58,1.93,1.93,0,0,1-1,3.58Zm0-2.79a.86.86,0,1,0,.45.13A.85.85,0,0,0,30.44,48.22Z"/></svg>