<svg id="_лой_3" data-name="—лой_3" xmlns="http://www.w3.org/2000/svg" width="21.4" height ="174.88" viewBox="0 0 21.4 174.88">
    <defs>
        <style>
            .cls-1,.cls-2{fill:none;stroke:#fff;stroke-linecap:round;stroke-miterlimit:10;}.cls-1{stroke-width:1.6px;}.cls-2{stroke-width:2px;}
        </style>
    </defs>
    <title>top-icons-sprite</title>
    <path class="cls-1" d="M3,14.42C3,7.6,10.25,1.09,10.25,1.09S17.5,7.9,17.5,14.42a7.25,7.25,0,0,1-14.5,0Z"/>
    <path class="cls-1" d="M7.49,17a4.52,4.52,0,0,1-.78-2.54A10.34,10.34,0,0,1,9,8.69"/>
    <circle class="cls-1" cx="10.24" cy="60.86" r="8.99"/>
    <line class="cls-1" x1="3.02" y1="66.21" x2="16.79" y2="54.71"/>
    <circle class="cls-1" cx="11.55" cy="108.22" r="8.15"/>
    <path class="cls-1" d="M7.26,108.22a4.28,4.28,0,0,1,4.28-4.28"/>
    <line class="cls-2" x1="4.68" y1="114.04" x2="1" y2="117.62"/>
    <path class="cls-1"
          d="M7.07,163.57c-1.54-.49-4.7-1.93-4.51-5.46.25-4.66,9-5.86,9.82-2.62.51,1.95-2,2.46-2.6,3.89a4.83,4.83,0,0,0-.09,2"/>
    <path class="cls-1"
          d="M11.7,162c1.16-1.09,4-3.19,7-1.25,3.92,2.53.63,10.7-2.59,9.83-1.94-.52-1.12-3-2.09-4.18a4.59,4.59,0,0,0-1.59-1"/>
    <path class="cls-1"
          d="M11,166.76c.46,1.55,1,5-2,6.8-4,2.4-9.88-4.14-7.68-6.65,1.33-1.51,3.17.3,4.68,0a4.84,4.84,0,0,0,1.71-1.05"/>
    <circle class="cls-1" cx="9.87" cy="164.13" r="2.57"/>
</svg>