<?xml version="1.0" encoding="utf-8"?>
<!-- Generator: Adobe Illustrator 20.0.0, SVG Export Plug-In . SVG Version: 6.00 Build 0)  -->
<svg version="1.1" id="_x2014_лой_x5F_3" xmlns="http://www.w3.org/2000/svg" xmlns:xlink="http://www.w3.org/1999/xlink"
	 x="0px" y="0px" viewBox="0 0 84.7 79.4" style="enable-background:new 0 0 84.7 79.4;" xml:space="preserve">
<style type="text/css">
	.st0{fill-rule:evenodd;clip-rule:evenodd;fill:#40BDA7;stroke:#40BDA7;stroke-miterlimit:10;}
</style>
<path class="st0" d="M22.7,62.7c1.6,0,3,0.6,4,1.7c1,1,1.7,2.5,1.7,4c0,1.6-0.6,3-1.7,4l-0.1,0.1c-1,1-2.4,1.6-4,1.6
	c-1.6,0-3-0.6-4-1.7c-1-1-1.7-2.5-1.7-4c0-1.6,0.6-3,1.7-4C19.7,63.3,21.1,62.7,22.7,62.7L22.7,62.7z M40,26.6v-0.2c0-0.5-0.4-1-1-1
	H6.4c-1.6,0-3.1,0.7-4.2,1.7c-1.1,1.1-1.7,2.6-1.7,4.2V73c0,1.6,0.7,3.1,1.7,4.2c1.1,1.1,2.6,1.7,4.2,1.7H39c0.5,0,1-0.4,1-1V77
	h22.3c6,0,11.5-2.5,15.5-6.4c4-4,6.4-9.4,6.4-15.5V35.6c0-1.6-0.7-3.1-1.7-4.2l0,0v0h0c-1.1-1.1-2.6-1.7-4.2-1.7H61.9L65,7.3
	c0.1-0.9,0.1-1.7-0.2-2.5c-0.2-0.8-0.7-1.5-1.2-2.2c-0.6-0.7-1.3-1.2-2-1.5v0c-0.8-0.3-1.6-0.5-2.5-0.5h-2c-1.1,0-2.2,0.3-3.1,0.9
	c-0.9,0.6-1.7,1.4-2.2,2.4L40,26.6L40,26.6z M53.6,4.6C54,3.9,54.5,3.4,55.1,3c0.6-0.4,1.3-0.6,2.1-0.6h2c0.6,0,1.2,0.1,1.7,0.3l0,0
	v0c0.5,0.2,0.9,0.6,1.3,1c0.4,0.4,0.7,0.9,0.8,1.5c0.2,0.5,0.2,1.1,0.1,1.7l-3.3,23.5c-0.1,0.5,0.3,1,0.8,1.1c0,0,0.1,0,0.1,0v0
	h17.4c1.1,0,2.1,0.4,2.8,1.2v0c0.7,0.7,1.2,1.7,1.2,2.8v19.5c0,5.5-2.2,10.5-5.8,14.1c-3.6,3.6-8.6,5.8-14.1,5.8H40V30.9L53.6,4.6
	L53.6,4.6z M38,27.4H6.4c-1.1,0-2.1,0.4-2.8,1.2c-0.7,0.7-1.2,1.7-1.2,2.8V73c0,1.1,0.4,2.1,1.2,2.8c0.7,0.7,1.7,1.2,2.8,1.2H38
	V27.4L38,27.4z M25.3,65.8c-0.7-0.7-1.6-1.1-2.6-1.1c-1,0-2,0.4-2.6,1.1c-0.7,0.7-1.1,1.6-1.1,2.6c0,1,0.4,2,1.1,2.6
	c0.7,0.7,1.6,1.1,2.6,1.1c1,0,1.9-0.4,2.6-1l0,0c0.7-0.7,1.1-1.6,1.1-2.6C26.4,67.4,26,66.4,25.3,65.8z"/>
</svg>
