<?xml version="1.0" encoding="utf-8"?>
<!-- Generator: Adobe Illustrator 20.0.0, SVG Export Plug-In . SVG Version: 6.00 Build 0)  -->
<svg version="1.1" id="_x2014_лой_x5F_3" xmlns="http://www.w3.org/2000/svg" xmlns:xlink="http://www.w3.org/1999/xlink"
	 x="0px" y="0px" viewBox="0 0 73.6 80.9" style="enable-background:new 0 0 73.6 80.9;" xml:space="preserve">
<style type="text/css">
	.st0{fill:#40BDA7;stroke:#40BDA7;stroke-width:0.75;stroke-miterlimit:10;}
</style>
<g>
	<g>
		<path class="st0" d="M66.8,11.4c-0.3,0-0.6-0.1-0.9-0.4c0,0-1.7-2-3.6-4c-0.8-0.9-2.4-1.9-2.9-2c-8.7-1-21.8-2.2-30-2.4
			c-1.1,0-2.2,0.1-3.1,0.2c-0.4,0-0.8,0.1-1.2,0.1c-1.3,0.5-2.3,1.1-3.2,2c-2.4,2.5-4,5.8-4,5.8c-0.3,0.6-1,0.8-1.5,0.5
			c-0.6-0.3-0.8-1-0.5-1.5c0.1-0.1,1.8-3.7,4.5-6.4c1.1-1.2,2.5-2,4.2-2.6c0.1,0,0.2-0.1,0.3-0.1c0.4,0,0.8-0.1,1.3-0.1
			c1-0.1,2.1-0.2,3.4-0.2C37.8,0.6,51,1.8,59.7,2.8C61.2,3,63.2,4.5,64,5.5c1.9,2,3.6,4,3.6,4c0.4,0.5,0.4,1.2-0.1,1.6
			C67.3,11.4,67.1,11.4,66.8,11.4z"/>
	</g>
	<g>
		<path class="st0" d="M22.6,80.5c-7.6,0-13.7-6.2-13.7-13.7c0-7.6,6.2-13.7,13.7-13.7c7.6,0,13.7,6.2,13.7,13.7
			C36.3,74.4,30.2,80.5,22.6,80.5z M22.6,55.4c-6.3,0-11.4,5.1-11.4,11.4c0,6.3,5.1,11.4,11.4,11.4S34,73.1,34,66.8
			C34,60.5,28.9,55.4,22.6,55.4z"/>
	</g>
	<g>
		<path class="st0" d="M22.6,71.6c-2.7,0-4.8-2.2-4.8-4.8c0-2.7,2.2-4.8,4.8-4.8c2.7,0,4.8,2.2,4.8,4.8
			C27.4,69.4,25.2,71.6,22.6,71.6z M22.6,64.3c-1.4,0-2.5,1.1-2.5,2.5c0,1.4,1.1,2.5,2.5,2.5c1.4,0,2.5-1.1,2.5-2.5
			C25.1,65.4,24,64.3,22.6,64.3z"/>
	</g>
	<g>
		<path class="st0" d="M56.3,76.3H35.1c-0.6,0-1.1-0.5-1.1-1.1c0-0.6,0.5-1.1,1.1-1.1h21.2c1.9,0,3.4-1.5,3.4-3.4c0,0,0-0.1,0-0.1
			L65.3,16c0.1-0.6,0.6-1,1.1-1h3.2c0.7,0,1.3-0.6,1.3-1.4c0-0.8-0.6-1.4-1.3-1.4l-51.3,0c-0.5,0-1.2,0-1.9-0.4c0,0-0.1,0-0.1-0.1
			c0,0,0,0,0,0L6.1,5.1C5.6,4.8,5,4.7,4.5,4.8C3.9,5,3.4,5.3,3.1,5.8L3,5.9C2.7,6.5,2.6,7.1,2.7,7.6c0.1,0.6,0.5,1,0.9,1.4l10.7,5.2
			c0.4,0.2,0.7,0.7,0.6,1.1c0,0.1,0,0.2,0,0.3c0.1,1,1.2,21.1,2,36.7c0,0.6-0.5,1.2-1.1,1.2c-0.6,0-1.2-0.5-1.2-1.1
			c-0.8-14.9-1.8-34.1-2-36.5L2.6,11c0,0-0.1,0-0.1-0.1c-1-0.6-1.7-1.6-2-2.8C0.2,7,0.4,5.8,1.1,4.7l0.1-0.1c0.6-1,1.6-1.8,2.8-2
			c1.2-0.3,2.4-0.1,3.4,0.6l10,6.5c0.2,0.1,0.4,0.1,0.9,0.1l0.2,0h51.2c2,0,3.6,1.7,3.6,3.7c0,2.1-1.6,3.7-3.6,3.7h-2.1L62,70.6
			C62,73.8,59.5,76.3,56.3,76.3z"/>
	</g>
	<g>
		<path class="st0" d="M62.3,17h-6.6c-0.6,0-1.1-0.5-1.1-1.1s0.5-1.1,1.1-1.1h6.6c0.6,0,1.1,0.5,1.1,1.1S63,17,62.3,17z"/>
	</g>
</g>
</svg>
