<svg id="_лой_3" data-name="—лой_3" xmlns="http://www.w3.org/2000/svg" viewBox="0 0 84.67 410.72"><defs><style>.cls-1{fill:none;stroke-width:3px;}.cls-1,.cls-2{stroke:#40bda7;}.cls-1,.cls-2,.cls-4{stroke-miterlimit:10;}.cls-2{fill:#40bda7;stroke-width:0.75px;}.cls-3{font-size:39px;fill:#32c7ac;font-family:ProximaNova-Bold, Proxima Nova;font-weight:700;}.cls-4{fill:#75bba5;stroke:#75bba5;fill-rule:evenodd;}</style></defs><title>about-icon-sprite</title><polyline class="cls-1" points="3.44 187.15 21.73 167.75 78.73 167.75 78.73 224.75 61.84 245.25"/><rect class="cls-1" x="4.03" y="187.75" width="57" height="57"/><line class="cls-1" x1="61.03" y1="187.75" x2="78.73" y2="167.75"/><path class="cls-2" d="M74.8,343.3a1.22,1.22,0,0,1-.9-.4s-1.7-2-3.6-4a8.38,8.38,0,0,0-2.9-2c-8.7-1-21.8-2.2-30-2.4a28.51,28.51,0,0,0-3.1.2c-.4,0-.8.1-1.2.1a8.71,8.71,0,0,0-3.2,2,25.93,25.93,0,0,0-4,5.8,1.12,1.12,0,1,1-2-1,28.57,28.57,0,0,1,4.5-6.4,10,10,0,0,1,4.2-2.6c.1,0,.2-.1.3-.1.4,0,.8-.1,1.3-.1a32.81,32.81,0,0,1,3.4-.2c8.3.2,21.4,1.4,30.2,2.4a9.29,9.29,0,0,1,4.3,2.7c1.9,2,3.6,4,3.6,4a1.12,1.12,0,0,1-.1,1.6A1,1,0,0,1,74.8,343.3Z" transform="translate(-3.27 -2.05)"/><path class="cls-2" d="M30.6,412.4a13.7,13.7,0,1,1,13.7-13.7A13.72,13.72,0,0,1,30.6,412.4Zm0-25.2A11.4,11.4,0,1,0,42,398.6,11.39,11.39,0,0,0,30.6,387.2Z" transform="translate(-3.27 -2.05)"/><path class="cls-2" d="M30.6,403.5a4.8,4.8,0,1,1,4.8-4.8A4.87,4.87,0,0,1,30.6,403.5Zm0-7.4a2.5,2.5,0,1,0,2.5,2.5A2.54,2.54,0,0,0,30.6,396.1Z" transform="translate(-3.27 -2.05)"/><path class="cls-2" d="M64.3,408.2H43.1a1.1,1.1,0,0,1,0-2.2H64.3a3.37,3.37,0,0,0,3.4-3.4v-.1L73.3,348a1.16,1.16,0,0,1,1.1-1h3.2a1.4,1.4,0,0,0,0-2.8H26.3a3.61,3.61,0,0,1-1.9-.4.1.1,0,0,1-.1-.1h0l-10.1-6.6a2.49,2.49,0,0,0-1.7-.3,2.07,2.07,0,0,0-1.4,1l-.1.1a2.49,2.49,0,0,0-.3,1.7,2.63,2.63,0,0,0,.9,1.4l10.7,5.2a1.08,1.08,0,0,1,.6,1.1v.3c.1,1,1.2,21.1,2,36.7a1.15,1.15,0,1,1-2.3.1c-.8-14.9-1.8-34.1-2-36.5L10.5,343a.1.1,0,0,1-.1-.1,4.47,4.47,0,0,1-2-2.8,4.09,4.09,0,0,1,.6-3.4l.1-.1a4.14,4.14,0,0,1,2.8-2,4.09,4.09,0,0,1,3.4.6l10,6.5a2,2,0,0,0,.9.1H77.6a3.67,3.67,0,0,1,3.6,3.7,3.61,3.61,0,0,1-3.6,3.7H75.5L70,402.5A5.7,5.7,0,0,1,64.3,408.2Z" transform="translate(-3.27 -2.05)"/><path class="cls-2" d="M70.3,348.8H63.7a1.1,1.1,0,0,1,0-2.2h6.6a1.11,1.11,0,0,1,1.1,1.1A1,1,0,0,1,70.3,348.8Z" transform="translate(-3.27 -2.05)"/><text x="-3.27" y="-2.05"></text><text class="cls-3" transform="translate(11.2 232.74)">м²</text><path class="cls-4" d="M26,64.75a5.72,5.72,0,0,1,4,9.77l-.06.06a5.72,5.72,0,1,1-4-9.82ZM43.24,28.65v-.16a1,1,0,0,0-1-1H9.71a6,6,0,0,0-5.95,5.94V75a6,6,0,0,0,5.95,5.94H42.25a1,1,0,0,0,1-1v-.91H65.56A21.92,21.92,0,0,0,87.43,57.18V37.66a5.94,5.94,0,0,0-1.73-4.19h0a5.92,5.92,0,0,0-4.2-1.75H65.19l3.1-22.4a6,6,0,0,0-3.42-6.25h0a5.91,5.91,0,0,0-2.47-.52h-2a5.88,5.88,0,0,0-5.28,3.2l-11.9,22.9Zm13.66-22a3.86,3.86,0,0,1,3.52-2.14h2a4,4,0,0,1,1.65.34h0a3.93,3.93,0,0,1,1.34,1,4,4,0,0,1,.83,1.47A4,4,0,0,1,66.33,9L63.07,32.57a1,1,0,0,0,.85,1.12H81.49a4,4,0,0,1,2.8,1.16h0a4,4,0,0,1,1.16,2.8V57.18a19.94,19.94,0,0,1-19.9,19.89H43.25V32.95L56.9,6.67ZM41.27,29.47H9.71a4,4,0,0,0-4,4V75a4,4,0,0,0,4,4H41.27V29.47ZM28.6,67.82a3.74,3.74,0,1,0,0,5.33l0,0a3.73,3.73,0,0,0,0-5.29Z" transform="translate(-3.27 -2.05)"/></svg>