<svg id="Layer_1" data-name="Layer 1" xmlns="http://www.w3.org/2000/svg" viewBox="0 0 18.68 172.19"><defs><style>.cls-1,.cls-2{fill:#fff;}.cls-2{fill-rule:evenodd;}</style></defs><title>icon-social-sprite</title><path class="cls-1" d="M18.37,95.64a7.71,7.71,0,0,1-2.2.6,3.84,3.84,0,0,0,1.69-2.12,7.67,7.67,0,0,1-2.43.93,3.84,3.84,0,0,0-6.53,3.5,10.88,10.88,0,0,1-7.9-4,3.83,3.83,0,0,0,1.19,5.12,3.81,3.81,0,0,1-1.74-.48v0A3.83,3.83,0,0,0,3.52,103a3.83,3.83,0,0,1-1,.13,3.9,3.9,0,0,1-.72-.07,3.84,3.84,0,0,0,3.58,2.66,7.68,7.68,0,0,1-4.76,1.64,7.85,7.85,0,0,1-.91-.05A10.86,10.86,0,0,0,5.57,109a10.83,10.83,0,0,0,10.9-10.9c0-.17,0-.33,0-.49a7.82,7.82,0,0,0,1.91-2Z" transform="translate(0.3 -2)"/><path class="cls-1" d="M4.74,32.8H6.58V31a4.77,4.77,0,0,1,.59-2.76A3.27,3.27,0,0,1,10,26.91a11.6,11.6,0,0,1,3.3.33L12.87,30a6.22,6.22,0,0,0-1.48-.22c-.72,0-1.36.26-1.36,1V32.8H13l-.2,2.66H10v9.25H6.58V35.46H4.74V32.8Z" transform="translate(0.3 -2)"/><polygon class="cls-1" points="7.36 121.27 5.87 121.27 4.96 125.06 4.87 125.06 3.92 121.27 2.44 121.27 2.44 121.27 4.18 127 4.18 130.76 5.65 130.76 5.65 126.82 7.36 121.27 7.36 121.27"/><path class="cls-1" d="M7.5,132.41a1.81,1.81,0,0,0,1.36.53h0a1.87,1.87,0,0,0,1.39-.51,1.92,1.92,0,0,0,.51-1.41V127.4a1.76,1.76,0,0,0-.52-1.31,1.81,1.81,0,0,0-1.32-.51,2,2,0,0,0-1.41.48A1.67,1.67,0,0,0,7,127.36V131a2,2,0,0,0,.51,1.42Zm.83-5.1h0a.49.49,0,0,1,.15-.37.54.54,0,0,1,.39-.14.6.6,0,0,1,.42.14.47.47,0,0,1,.16.37v3.81a.61.61,0,0,1-.16.44.55.55,0,0,1-.42.16.5.5,0,0,1-.4-.16.65.65,0,0,1-.14-.45v-3.81Z" transform="translate(0.3 -2)"/><path class="cls-1" d="M14.28,125.76v5.31a1.87,1.87,0,0,1-.4.38.71.71,0,0,1-.36.15.3.3,0,0,1-.26-.11.62.62,0,0,1-.08-.36v-5.37h-1.3v5.85a1.58,1.58,0,0,0,.23.93.79.79,0,0,0,.68.31,1.52,1.52,0,0,0,.76-.22,2.85,2.85,0,0,0,.75-.65v.77h1.3v-7Z" transform="translate(0.3 -2)"/><path class="cls-1" d="M10.62,137.86a.43.43,0,0,0-.19,0,.71.71,0,0,0-.18.15v3a.77.77,0,0,0,.21.17.44.44,0,0,0,.21.05.29.29,0,0,0,.24-.1.55.55,0,0,0,.08-.33v-2.47a.61.61,0,0,0-.1-.37A.33.33,0,0,0,10.62,137.86Z" transform="translate(0.3 -2)"/><path class="cls-1" d="M13.89,137.87a.35.35,0,0,0-.3.13.76.76,0,0,0-.09.43v.49h.79v-.49a.76.76,0,0,0-.09-.43A.34.34,0,0,0,13.89,137.87Z" transform="translate(0.3 -2)"/><path class="cls-1" d="M16.27,136A2.11,2.11,0,0,0,14.15,134q-2.38-.1-4.86-.1H8.78q-2.48,0-4.86.1A2.11,2.11,0,0,0,1.8,136c-.07.92-.1,1.83-.1,2.75s0,1.83.1,2.75a2.11,2.11,0,0,0,2.12,2.09q2.39.1,4.88.1h.47q2.49,0,4.88-.1a2.11,2.11,0,0,0,2.12-2.09c.07-.92.1-1.83.1-2.75S16.34,137,16.27,136Zm-11.36,5.9h-1V136.4h-1v-.94H6v.94h-1Zm3.56,0H7.59v-.53a1.94,1.94,0,0,1-.51.45,1,1,0,0,1-.52.15.54.54,0,0,1-.47-.21,1.08,1.08,0,0,1-.16-.64v-4h.89v3.67a.42.42,0,0,0,.06.25.21.21,0,0,0,.18.08.49.49,0,0,0,.25-.1,1.29,1.29,0,0,0,.27-.26v-3.63h.89Zm3.43-1a1.26,1.26,0,0,1-.21.78.72.72,0,0,1-.6.27,1,1,0,0,1-.47-.11,1.18,1.18,0,0,1-.38-.32v.37h-.9v-6.49h.9v2.09a1.37,1.37,0,0,1,.38-.33.82.82,0,0,1,.41-.12.75.75,0,0,1,.64.31,1.5,1.5,0,0,1,.22.89Zm3.29-1.29h-1.7v.9a1.1,1.1,0,0,0,.09.53.33.33,0,0,0,.3.14.36.36,0,0,0,.31-.12,1.09,1.09,0,0,0,.09-.55v-.33h.92v.36a1.61,1.61,0,0,1-.33,1.11,1.27,1.27,0,0,1-1,.37,1.19,1.19,0,0,1-.94-.39,1.61,1.61,0,0,1-.34-1.09v-2.15a1.4,1.4,0,0,1,.38-1,1.29,1.29,0,0,1,1-.39,1.2,1.2,0,0,1,.94.36,1.5,1.5,0,0,1,.33,1Z" transform="translate(0.3 -2)"/><path class="cls-2" d="M15.11,70c-.3-.6-1.12-1.09-2.22-.23A7.19,7.19,0,0,1,9,71a7.19,7.19,0,0,1-3.86-1.17C4.08,69,3.25,69.45,3,70c-.52,1,.07,1.55,1.39,2.4A8.87,8.87,0,0,0,8,73.54l-.84.84L4.09,77.49a1.21,1.21,0,0,0,0,1.71l.14.14a1.21,1.21,0,0,0,.85.35h0a1.21,1.21,0,0,0,.85-.35L9,76.23l3.11,3.11a1.21,1.21,0,0,0,1.71,0l.14-.14a1.21,1.21,0,0,0,0-1.71L10.9,74.38l-.84-.84a8.81,8.81,0,0,0,3.66-1.09c1.32-.85,1.91-1.35,1.39-2.4ZM9,61.54a2.59,2.59,0,1,1-2.59,2.59A2.59,2.59,0,0,1,9,61.54ZM9,69.4a5.27,5.27,0,1,0-5.27-5.27A5.27,5.27,0,0,0,9,69.4Z" transform="translate(0.3 -2)"/><path class="cls-2" d="M3,2H9.9c2.28,0,4.23,1.12,4.22,3.38A3.43,3.43,0,0,1,12,8.83c.12.1.93.34,1.2.47a3.27,3.27,0,0,1,1,.72,3.44,3.44,0,0,1,.95,2.82c0,3-2.85,4.43-5.6,4.43H2.93L3,2ZM6.73,6V8c1.79,0,3.47.24,3.47-1.7S8.29,4.8,6.72,4.8V6Zm0,8.45c2,0,4.38.32,4.42-1.9s-2.49-1.9-4.42-1.9v3.8Z" transform="translate(0.3 -2)"/><path class="cls-2" d="M2.27,156H15.8a2.34,2.34,0,0,1,2.34,2.34v13.54a2.34,2.34,0,0,1-2.34,2.34H2.27a2.34,2.34,0,0,1-2.34-2.34V158.31A2.34,2.34,0,0,1,2.27,156Zm10.93,2h0a.82.82,0,0,0-.82.82v2a.82.82,0,0,0,.82.82h2.06a.82.82,0,0,0,.82-.82v-2a.82.82,0,0,0-.82-.82Zm2.89,5.68h-1.6a5.32,5.32,0,0,1,.23,1.56,5.58,5.58,0,0,1-5.66,5.49,5.57,5.57,0,0,1-5.66-5.49,5.29,5.29,0,0,1,.23-1.56H2v7.69a.73.73,0,0,0,.73.72H15.36a.73.73,0,0,0,.72-.72v-7.69Zm-7-2.18h0a3.55,3.55,0,1,0,0,7.09,3.55,3.55,0,1,0,0-7.09Z" transform="translate(0.3 -2)"/></svg>