<svg id="Layer_1" data-name="Layer 1" xmlns="http://www.w3.org/2000/svg" preserveAspectRatio="none" width="18.68" height="391.22" viewBox="0 0 18.68 391.22">
    <defs>
        <style>.cls-1,.cls-2{fill:#fff;}.cls-2{fill-rule:evenodd;}</style>
    </defs>
    <title>icon-social-sprite-top</title>
    <path class="cls-1"
          d="M18.68,225.78a7.71,7.71,0,0,1-2.2.6,3.84,3.84,0,0,0,1.69-2.12,7.67,7.67,0,0,1-2.43.93,3.84,3.84,0,0,0-6.53,3.5,10.88,10.88,0,0,1-7.9-4,3.83,3.83,0,0,0,1.19,5.12,3.81,3.81,0,0,1-1.74-.48v0a3.83,3.83,0,0,0,3.07,3.76,3.83,3.83,0,0,1-1,.13,3.9,3.9,0,0,1-.72-.07,3.84,3.84,0,0,0,3.58,2.66A7.68,7.68,0,0,1,.91,237.5a7.85,7.85,0,0,1-.91-.05,10.86,10.86,0,0,0,5.87,1.72,10.83,10.83,0,0,0,10.9-10.9c0-.17,0-.33,0-.49a7.82,7.82,0,0,0,1.91-2Z"/>
    <path class="cls-1"
          d="M5,77.86H6.89V76.07a4.77,4.77,0,0,1,.59-2.76A3.27,3.27,0,0,1,10.33,72a11.6,11.6,0,0,1,3.3.33L13.17,75a6.22,6.22,0,0,0-1.48-.22c-.72,0-1.36.26-1.36,1v2.08h2.93l-.2,2.66H10.33v9.25H6.89V80.52H5V77.86Z"/>
    <polygon class="cls-1"
             points="7.36 295.86 5.87 295.86 4.96 299.65 4.87 299.65 3.92 295.86 2.44 295.86 2.44 295.86 4.18 301.59 4.18 305.35 5.65 305.35 5.65 301.41 7.36 295.86 7.36 295.86"/>
    <path class="cls-1"
          d="M7.8,305a1.81,1.81,0,0,0,1.36.53h0a1.87,1.87,0,0,0,1.39-.51,1.92,1.92,0,0,0,.51-1.41V300a1.76,1.76,0,0,0-.52-1.31,1.81,1.81,0,0,0-1.32-.51,2,2,0,0,0-1.41.48,1.67,1.67,0,0,0-.53,1.29v3.63A2,2,0,0,0,7.8,305Zm.83-5.1h0a.49.49,0,0,1,.15-.37.54.54,0,0,1,.39-.14.6.6,0,0,1,.42.14.47.47,0,0,1,.16.37v3.81a.61.61,0,0,1-.16.44.55.55,0,0,1-.42.16.5.5,0,0,1-.4-.16.65.65,0,0,1-.14-.45V299.9Z"/>
    <path class="cls-1"
          d="M14.59,298.35v5.31a1.87,1.87,0,0,1-.4.38.71.71,0,0,1-.36.15.3.3,0,0,1-.26-.11.62.62,0,0,1-.08-.36v-5.37h-1.3v5.85a1.58,1.58,0,0,0,.23.93.79.79,0,0,0,.68.31,1.52,1.52,0,0,0,.76-.22,2.85,2.85,0,0,0,.75-.65v.77h1.3v-7Z"/>
    <path class="cls-1"
          d="M10.92,310.44a.43.43,0,0,0-.19,0,.71.71,0,0,0-.18.15v3a.77.77,0,0,0,.21.17.44.44,0,0,0,.21.05.29.29,0,0,0,.24-.1.55.55,0,0,0,.08-.33v-2.47a.61.61,0,0,0-.1-.37A.33.33,0,0,0,10.92,310.44Z"/>
    <path class="cls-1"
          d="M14.19,310.46a.35.35,0,0,0-.3.13.76.76,0,0,0-.09.43v.49h.79V311a.76.76,0,0,0-.09-.43A.34.34,0,0,0,14.19,310.46Z"/>
    <path class="cls-1"
          d="M16.57,308.63a2.11,2.11,0,0,0-2.12-2.09q-2.38-.1-4.86-.1H9.08q-2.48,0-4.86.1a2.11,2.11,0,0,0-2.12,2.09c-.07.92-.1,1.83-.1,2.75s0,1.83.1,2.75a2.11,2.11,0,0,0,2.12,2.09q2.39.1,4.88.1h.47q2.49,0,4.88-.1a2.11,2.11,0,0,0,2.12-2.09c.07-.92.1-1.83.1-2.75S16.65,309.55,16.57,308.63Zm-11.36,5.9h-1V309h-1V308H6.26V309h-1Zm3.56,0H7.89V314a1.94,1.94,0,0,1-.51.45,1,1,0,0,1-.52.15.54.54,0,0,1-.47-.21,1.08,1.08,0,0,1-.16-.64v-4h.89v3.67a.42.42,0,0,0,.06.25.21.21,0,0,0,.18.08.49.49,0,0,0,.25-.1,1.29,1.29,0,0,0,.27-.26v-3.63h.89Zm3.43-1a1.26,1.26,0,0,1-.21.78.72.72,0,0,1-.61.27,1,1,0,0,1-.47-.11,1.18,1.18,0,0,1-.38-.32v.37h-.9V308h.9v2.09a1.37,1.37,0,0,1,.38-.33.82.82,0,0,1,.41-.12A.75.75,0,0,1,12,310a1.5,1.5,0,0,1,.22.89Zm3.29-1.29H13.8v.9a1.1,1.1,0,0,0,.09.53.33.33,0,0,0,.3.14.36.36,0,0,0,.31-.12,1.09,1.09,0,0,0,.09-.55v-.33h.92v.36a1.61,1.61,0,0,1-.33,1.11,1.27,1.27,0,0,1-1,.37,1.19,1.19,0,0,1-.94-.39,1.61,1.61,0,0,1-.34-1.09V311a1.4,1.4,0,0,1,.38-1,1.29,1.29,0,0,1,1-.39,1.2,1.2,0,0,1,.94.36,1.5,1.5,0,0,1,.33,1Z"/>
    <path class="cls-2"
          d="M15.42,157.65c-.3-.6-1.12-1.09-2.22-.23a7.19,7.19,0,0,1-3.86,1.17,7.19,7.19,0,0,1-3.86-1.17c-1.1-.86-1.92-.37-2.22.23-.52,1,.07,1.55,1.39,2.4a8.87,8.87,0,0,0,3.69,1.1L7.5,162l-3.11,3.11a1.21,1.21,0,0,0,0,1.71l.14.14a1.21,1.21,0,0,0,.85.35h0a1.21,1.21,0,0,0,.85-.35l3.11-3.11,3.11,3.11a1.21,1.21,0,0,0,1.71,0l.14-.14a1.21,1.21,0,0,0,0-1.71L11.21,162l-.84-.84A8.81,8.81,0,0,0,14,160c1.32-.85,1.91-1.35,1.39-2.4Zm-6.08-8.51a2.59,2.59,0,1,1-2.59,2.59,2.59,2.59,0,0,1,2.59-2.59Zm0,7.87a5.27,5.27,0,1,0-5.27-5.27A5.27,5.27,0,0,0,9.34,157Z"/>
    <path class="cls-2"
          d="M3.26,0H10.2c2.28,0,4.23,1.12,4.22,3.38a3.43,3.43,0,0,1-2.09,3.45c.12.1.93.34,1.2.47a3.27,3.27,0,0,1,1,.72,3.44,3.44,0,0,1,.95,2.82c0,3-2.85,4.43-5.6,4.43H3.23L3.26,0ZM7,4V6c1.79,0,3.47.24,3.47-1.7S8.6,2.8,7,2.8V4Zm0,8.45c2,0,4.38.32,4.42-1.9S9,8.67,7,8.67v3.8Z"/>
    <path class="cls-2"
          d="M2.57,373H16.11a2.34,2.34,0,0,1,2.34,2.34v13.54a2.34,2.34,0,0,1-2.34,2.34H2.57a2.34,2.34,0,0,1-2.34-2.34V375.34A2.34,2.34,0,0,1,2.57,373Zm10.93,2h0a.82.82,0,0,0-.82.82v2a.82.82,0,0,0,.82.82h2.06a.82.82,0,0,0,.82-.82v-2a.82.82,0,0,0-.82-.82Zm2.89,5.68h-1.6a5.32,5.32,0,0,1,.23,1.56,5.58,5.58,0,0,1-5.66,5.49,5.57,5.57,0,0,1-5.66-5.49,5.29,5.29,0,0,1,.23-1.56H2.25v7.69a.73.73,0,0,0,.73.72H15.66a.73.73,0,0,0,.72-.72v-7.69Zm-7-2.18h0a3.55,3.55,0,1,0,0,7.09,3.55,3.55,0,1,0,0-7.09Z"/>
</svg>