<svg id="Layer_1" data-name="Layer 1" xmlns="http://www.w3.org/2000/svg" viewBox="0 0 50.06 50.59"><defs><style>.cls-1{fill:#f7a62e;}</style></defs><title>icon-phone</title><path class="cls-1" d="M49.66,29.86c-.21,2.88-2.21,1.85-2.45,1.68,0,0-.93-.52-1.72-1s-1-1.2-.84-2.6a19,19,0,0,0,.16-2.57A20.15,20.15,0,0,0,24.7,5.24q-.86,0-1.69.07c-1.41.13-2.17,0-3-1.46-.28-.52-.54-1.08-.76-1.51l-.4-.8A2.2,2.2,0,0,1,20.5.35a25.37,25.37,0,0,1,29.56,25C50.06,26.9,49.77,28.38,49.66,29.86ZM38.59,26.49c-.61-.3-1.25-.75-1.84-1.08-1.81-1-1.3-1.33-1.87-3-1.25-3.66-4.07-7-7.95-7.42a2.41,2.41,0,0,1-2-1.34c-.43-.89-1.12-2.05-1.46-2.89s.32-1,1.18-1A15.57,15.57,0,0,1,40.25,25.37c0,.14,0,.29,0,.43C40.15,27.17,39.35,26.86,38.59,26.49ZM23.41,38.63c2.52,1.42,4.87-.06,5.74-.74l-.88.83,3-3.36s.58-1.1,2.39-.18S41,39.62,41,39.62l3.74,2.58s1.86,1.27-.65,4.18l-3.53,2.93a2.58,2.58,0,0,1-.31.17h0c-6,3.29-15.88-1.91-15.88-1.91C3,36.66.55,20.61.3,18.17.17,17.59.08,17,0,16.61a7.37,7.37,0,0,1,1.14-4.19L3.55,9.5c2.85-2.74,4.26-.9,4.26-.9L10.53,12S15,17.29,16,19.1s-.05,2.47-.05,2.47L12.7,24.5C11,26.76,13.8,29.76,13.8,29.76,19.84,37.08,21.11,37.34,23.41,38.63Z"/></svg>