<?xml version="1.0" encoding="utf-8"?>
<!-- Generator: Adobe Illustrator 20.0.0, SVG Export Plug-In . SVG Version: 6.00 Build 0)  -->
<svg version="1.1" id="Layer_1" xmlns="http://www.w3.org/2000/svg" xmlns:xlink="http://www.w3.org/1999/xlink" x="0px" y="0px"
	 viewBox="0 0 155.3 24.6" style="enable-background:new 0 0 155.3 24.6;" xml:space="preserve">
<style type="text/css">
	.st0{fill:none;}
	.st1{fill:#E5A42F;}
	.st2{fill:#929496;}
	.st3{fill:#939597;}
	.st4{fill:#949598;}
	.st5{fill:#959699;}
	.st6{fill:#959799;}
	.st7{fill:#96989A;}
	.st8{fill:#97989B;}
	.st9{fill:#98999C;}
	.st10{fill:#989A9C;}
	.st11{fill:#999B9D;}
	.st12{fill:#9A9B9E;}
	.st13{fill:#9B9C9F;}
	.st14{fill:#9B9D9F;}
	.st15{fill:#9C9EA0;}
	.st16{fill:#9D9EA1;}
	.st17{fill:#9E9FA2;}
	.st18{fill:#9EA0A2;}
	.st19{fill:#9FA1A3;}
	.st20{fill:#A0A2A4;}
	.st21{fill:#A1A2A5;}
	.st22{fill:#A2A3A6;}
	.st23{fill:#A2A4A6;}
	.st24{fill:#A3A5A7;}
	.st25{fill:#A4A5A8;}
	.st26{fill:#A5A6A9;}
	.st27{fill:#A6A7AA;}
	.st28{fill:#A6A8AA;}
	.st29{fill:#A7A9AB;}
	.st30{fill:#A8A9AC;}
	.st31{fill:#A9AAAD;}
	.st32{fill:#AAABAD;}
	.st33{fill:#AAACAE;}
	.st34{fill:#ABADAF;}
	.st35{fill:#ACADB0;}
	.st36{fill:#ADAEB1;}
	.st37{fill:#AEAFB1;}
	.st38{fill:#AEB0B2;}
	.st39{fill:#AFB1B3;}
	.st40{fill:#B0B1B4;}
	.st41{fill:#B1B2B5;}
	.st42{fill:#B2B3B5;}
	.st43{fill:#B2B4B6;}
	.st44{fill:#B3B5B7;}
	.st45{fill:#B4B5B8;}
	.st46{fill:#B5B6B9;}
	.st47{fill:#B6B7B9;}
	.st48{fill:#B7B8BA;}
	.st49{fill:#B7B9BB;}
	.st50{fill:#B8BABC;}
	.st51{fill:#B9BABD;}
	.st52{fill:#BABBBD;}
	.st53{fill:#BBBCBE;}
	.st54{fill:#BCBDBF;}
	.st55{fill:#BCBEC0;}
	.st56{fill:#BDBFC1;}
	.st57{fill:#BEBFC1;}
	.st58{fill:#BFC0C2;}
	.st59{fill:#C0C1C3;}
	.st60{fill:#C1C2C4;}
	.st61{fill:#C1C3C5;}
	.st62{fill:#C2C3C5;}
	.st63{fill:#C3C4C6;}
	.st64{fill:#C4C5C7;}
	.st65{fill:#C5C6C8;}
	.st66{fill:#C6C7C9;}
	.st67{fill:#C6C8C9;}
	.st68{fill:#C7C8CA;}
	.st69{fill:#C8C9CB;}
	.st70{fill:#C9CACC;}
	.st71{fill:#CACBCD;}
	.st72{fill:#CBCCCD;}
	.st73{fill:#CBCDCE;}
	.st74{fill:#CCCDCF;}
	.st75{fill:#CDCED0;}
	.st76{fill:#CECFD1;}
	.st77{fill:#CFD0D1;}
	.st78{fill:#D0D1D2;}
	.st79{fill:#D0D1D3;}
	.st80{fill:none;stroke:#D0D1D3;stroke-width:0.5634;stroke-linecap:round;}
	.st81{fill:#FFFFFF;stroke:#FFFFFF;stroke-width:1.1266;stroke-linecap:round;}
</style>
<g>
	<g>
		<path class="st0" d="M77.3,15.2h-2.9c-0.9,0-1.4,0.1-1.4,1.4v2c0,1.3,0.5,1.4,1.4,1.4h2.9c0.8,0,1.4-0.1,1.4-1.4v-2
			C78.7,15.3,78.1,15.2,77.3,15.2z"/>
		<polygon class="st0" points="102.4,18.7 106.1,18.7 104.2,15 		"/>
		<path class="st0" d="M65.9,15.2h-3.7v2.5h3.7c0.9,0,1.1-0.1,1.1-1.3C67,15.5,66.8,15.2,65.9,15.2z"/>
		<polygon class="st0" points="144.7,18.7 148.4,18.7 146.6,15 		"/>
		<path d="M77.3,13.1h-2.9c-2,0-3.8,0.5-3.8,3.2v2.5c0,2.7,1.8,3.2,3.8,3.2h2.9c2,0,3.8-0.5,3.8-3.2v-2.5
			C81.1,13.6,79.2,13.1,77.3,13.1z M78.7,18.6c0,1.3-0.6,1.4-1.4,1.4h-2.9c-0.9,0-1.4-0.1-1.4-1.4v-2c0-1.3,0.5-1.4,1.4-1.4h2.9
			c0.8,0,1.4,0.1,1.4,1.4V18.6z"/>
		<path d="M61,13.2c-0.8,0-1.5,0.7-1.5,1.5V22h2.3v-2.3h4.1c2.5,0,3-0.8,3-3.3c0-2.3-0.8-3.2-3-3.2H61z M65.5,17.7h-3.7v-2.5h3.7
			c0.9,0,1.1,0.3,1.1,1.2C66.5,17.5,66.4,17.7,65.5,17.7z"/>
		<polygon points="139.7,13.2 136.3,13.2 132.5,16.3 131.7,16.3 131.7,13.2 129.4,13.2 129.4,22 131.7,22 131.7,18.3 132.5,18.3 
			136.7,22 139.9,22 134.6,17.2 		"/>
		<g>
			<path d="M127.4,13.2h-2.3v6.8h-4.6v-6.8h-2.3v6.8h-4.6v-6.8h-2.3v7.3c0,0.8,0.7,1.5,1.5,1.5h12h2.7v-2.4V13.2z"/>
		</g>
		<path d="M94.9,13.2h-0.3c-0.9,0-1.4,0.6-1.8,1.4L90,19.7l-2.7-5.1c-0.4-0.7-0.8-1.4-1.6-1.4h-0.6h-0.5c-0.8,0-1.5,0.7-1.5,1.5v1.6
			V22h2.3v-6.5l3.5,6.5h2.2l3.5-6.5V22h2.3v-5.6v-1.7c0-0.8-0.7-1.5-1.5-1.5H94.9z"/>
		<path d="M106.5,14.5c-0.4-0.7-0.9-1.3-1.7-1.3h-1.3c-0.8,0-1.3,0.5-1.7,1.3l-0.8,1.6L98,22h2.6l0.8-1.5h5.6l0.8,1.5h2.6
			L106.5,14.5z M102.4,18.7l1.9-3.6l1.9,3.6H102.4z"/>
		<path d="M148.8,14.5c-0.4-0.7-0.9-1.3-1.7-1.3h-1.3c-0.8,0-1.3,0.5-1.7,1.3l-0.8,1.6l-3,5.9h2.6l0.8-1.5h5.6L150,22h2.6
			L148.8,14.5z M144.6,18.7l1.9-3.6l1.9,3.6H144.6z"/>
	</g>
	<g>
		<path class="st1" d="M36.8,12.3v2.3c4,0.8,6.6,1.9,6.6,3.3c0,2.3-7.6,4.1-17,4.1c-9.4,0-17-1.8-17-4.1c0-1.3,2.6-2.5,6.6-3.3v-2.3
			c-9.4,1-16,3.2-16,5.9c0,3.5,11.8,6.4,26.4,6.4c14.6,0,26.4-2.9,26.4-6.4C52.7,15.5,46.2,13.3,36.8,12.3z"/>
		<g>
			<path class="st2" d="M18.1,19.2c2.1,0.4,5,0.7,8.3,0.7c3.2,0,6.2-0.3,8.3-0.7V8.4h4.3V7.9L26.4,0L13.9,7.9v0.5h4.3V19.2z"/>
			<g>
				<path class="st2" d="M34,7.4v11.2c-1.9,0.4-4.7,0.7-7.7,0.7c-3,0-5.7-0.3-7.7-0.7v-7.3c0,0,1.9-5.5,8.9-5.5
					C31.6,5.9,34,7.4,34,7.4z"/>
				<path class="st3" d="M18.7,11.4c0,0,1.9-5.4,8.8-5.4C31.6,6,34,7.5,34,7.5v11.1c-1.9,0.4-4.6,0.7-7.6,0.7c-3,0-5.7-0.3-7.6-0.7
					V11.4z"/>
				<path class="st4" d="M18.8,11.5c0,0,1.9-5.3,8.8-5.3c4.1,0,6.4,1.5,6.4,1.5v11c-1.9,0.4-4.6,0.7-7.6,0.7c-3,0-5.7-0.3-7.6-0.7
					V11.5z"/>
				<path class="st5" d="M18.8,11.6c0,0,1.9-5.3,8.8-5.3c4,0,6.4,1.5,6.4,1.5v10.8c-1.9,0.4-4.6,0.7-7.6,0.7c-3,0-5.7-0.3-7.6-0.7
					V11.6z"/>
				<path class="st6" d="M18.8,11.6c0,0,1.9-5.2,8.8-5.2c4,0,6.3,1.5,6.3,1.5v10.7c-1.8,0.4-4.5,0.7-7.6,0.7c-3,0-5.7-0.3-7.6-0.7
					V11.6z"/>
				<path class="st7" d="M18.8,11.7c0,0,1.9-5.2,8.8-5.2c4,0,6.3,1.4,6.3,1.4v10.6c-1.8,0.4-4.5,0.7-7.5,0.7c-3,0-5.7-0.3-7.5-0.7
					V11.7z"/>
				<path class="st8" d="M18.9,11.8c0,0,2-5.1,8.8-5.1c4,0,6.3,1.4,6.3,1.4v10.5c-1.8,0.4-4.5,0.6-7.5,0.6c-3,0-5.7-0.3-7.5-0.6
					V11.8z"/>
				<path class="st9" d="M18.9,11.9c0,0,2-5.1,8.7-5.1c4,0,6.2,1.4,6.2,1.4v10.3c-1.8,0.4-4.5,0.6-7.5,0.6c-3,0-5.7-0.3-7.5-0.6
					V11.9z"/>
				<path class="st10" d="M18.9,11.9c0,0,2-5,8.7-5c3.9,0,6.2,1.4,6.2,1.4v10.2c-1.7,0.4-4.4,0.6-7.4,0.6c-3,0-5.7-0.3-7.5-0.6V11.9
					z"/>
				<path class="st11" d="M18.9,12c0,0,2-5,8.7-5c3.9,0,6.2,1.4,6.2,1.4v10.1c-1.7,0.4-4.4,0.6-7.4,0.6c-3,0-5.7-0.3-7.5-0.6V12z"/>
				<path class="st12" d="M19,12.1c0,0,2-4.9,8.7-4.9c3.9,0,6.1,1.4,6.1,1.4v10c-1.7,0.4-4.4,0.6-7.4,0.6c-3,0-5.7-0.3-7.4-0.6V12.1
					z"/>
				<path class="st13" d="M19,12.1c0,0,2-4.8,8.7-4.8c3.9,0,6.1,1.3,6.1,1.3v9.8c-1.7,0.4-4.3,0.6-7.4,0.6c-3,0-5.7-0.3-7.4-0.6
					V12.1z"/>
				<path class="st14" d="M19,12.2c0,0,2-4.8,8.6-4.8c3.9,0,6.1,1.3,6.1,1.3v9.7c-1.6,0.4-4.3,0.6-7.3,0.6c-3,0-5.7-0.3-7.4-0.6
					V12.2z"/>
				<path class="st15" d="M19.1,12.3c0,0,2.1-4.7,8.6-4.7c3.8,0,6,1.3,6,1.3v9.6c-1.6,0.3-4.3,0.6-7.3,0.6c-3,0-5.8-0.3-7.4-0.6
					V12.3z"/>
				<path class="st16" d="M19.1,12.3c0,0,2.1-4.7,8.6-4.7c3.8,0,6,1.3,6,1.3v9.5c-1.6,0.3-4.3,0.6-7.3,0.6c-3,0-5.8-0.3-7.3-0.6
					V12.3z"/>
				<path class="st17" d="M19.1,12.4c0,0,2.1-4.6,8.6-4.6c3.8,0,6,1.3,6,1.3v9.3c-1.6,0.3-4.2,0.6-7.3,0.6c-3,0-5.8-0.3-7.3-0.6
					V12.4z"/>
				<path class="st18" d="M19.1,12.5c0,0,2.1-4.6,8.6-4.6c3.8,0,5.9,1.3,5.9,1.3v9.2c-1.5,0.3-4.2,0.6-7.2,0.6c-3,0-5.8-0.3-7.3-0.6
					V12.5z"/>
				<path class="st19" d="M19.2,12.6c0,0,2.1-4.5,8.6-4.5c3.8,0,5.9,1.2,5.9,1.2v9.1c-1.5,0.3-4.2,0.6-7.2,0.6c-3,0-5.8-0.3-7.3-0.6
					V12.6z"/>
				<path class="st20" d="M19.2,12.6c0,0,2.1-4.5,8.5-4.5c3.8,0,5.9,1.2,5.9,1.2v9c-1.5,0.3-4.1,0.6-7.2,0.6c-3,0-5.8-0.3-7.2-0.6
					V12.6z"/>
				<path class="st21" d="M19.2,12.7c0,0,2.1-4.4,8.5-4.4c3.7,0,5.8,1.2,5.8,1.2v8.8c-1.5,0.3-4.1,0.6-7.1,0.6c-3,0-5.8-0.3-7.2-0.6
					V12.7z"/>
				<path class="st22" d="M19.2,12.8c0,0,2.1-4.3,8.5-4.3c3.7,0,5.8,1.2,5.8,1.2v8.7c-1.4,0.3-4.1,0.6-7.1,0.6c-3,0-5.8-0.3-7.2-0.6
					V12.8z"/>
				<path class="st23" d="M19.3,12.8c0,0,2.2-4.3,8.5-4.3c3.7,0,5.8,1.2,5.8,1.2v8.6c-1.4,0.3-4.1,0.6-7.1,0.6c-3,0-5.8-0.3-7.2-0.6
					V12.8z"/>
				<path class="st24" d="M19.3,12.9c0,0,2.2-4.2,8.5-4.2c3.7,0,5.7,1.2,5.7,1.2v8.5c-1.4,0.3-4,0.6-7.1,0.6c-3,0-5.8-0.3-7.1-0.6
					V12.9z"/>
				<path class="st25" d="M19.3,13c0,0,2.2-4.2,8.5-4.2c3.7,0,5.7,1.1,5.7,1.1v8.3c-1.4,0.3-4,0.6-7,0.6c-3,0-5.8-0.3-7.1-0.6V13z"
					/>
				<path class="st26" d="M19.3,13c0,0,2.2-4.1,8.4-4.1c3.6,0,5.7,1.1,5.7,1.1v8.2c-1.3,0.3-4,0.6-7,0.6c-3,0-5.8-0.3-7.1-0.6V13z"
					/>
				<path class="st27" d="M19.4,13.1c0,0,2.2-4.1,8.4-4.1c3.6,0,5.6,1.1,5.6,1.1v8.1c-1.3,0.3-3.9,0.6-7,0.6c-3,0-5.8-0.3-7.1-0.6
					V13.1z"/>
				<path class="st28" d="M19.4,13.2c0,0,2.2-4,8.4-4c3.6,0,5.6,1.1,5.6,1.1v8c-1.3,0.3-3.9,0.5-6.9,0.5c-3,0-5.8-0.3-7.1-0.5V13.2z
					"/>
				<path class="st29" d="M19.4,13.3c0,0,2.2-4,8.4-4c3.6,0,5.6,1.1,5.6,1.1v7.8c-1.3,0.3-3.9,0.5-6.9,0.5c-3,0-5.8-0.3-7-0.5V13.3z
					"/>
				<path class="st30" d="M19.5,13.3c0,0,2.3-3.9,8.4-3.9c3.6,0,5.5,1.1,5.5,1.1v7.7c-1.2,0.3-3.9,0.5-6.9,0.5c-3,0-5.8-0.3-7-0.5
					V13.3z"/>
				<path class="st31" d="M19.5,13.4c0,0,2.3-3.8,8.4-3.8c3.5,0,5.5,1.1,5.5,1.1v7.6c-1.2,0.3-3.8,0.5-6.9,0.5c-3,0-5.8-0.3-7-0.5
					V13.4z"/>
				<path class="st32" d="M19.5,13.5c0,0,2.3-3.8,8.3-3.8c3.5,0,5.5,1,5.5,1v7.5c-1.2,0.3-3.8,0.5-6.8,0.5c-3,0-5.8-0.3-7-0.5V13.5z
					"/>
				<path class="st33" d="M19.5,13.5c0,0,2.3-3.7,8.3-3.7c3.5,0,5.4,1,5.4,1v7.3c-1.2,0.2-3.8,0.5-6.8,0.5c-3,0-5.8-0.3-6.9-0.5
					V13.5z"/>
				<path class="st34" d="M19.6,13.6c0,0,2.3-3.7,8.3-3.7c3.5,0,5.4,1,5.4,1v7.2c-1.1,0.2-3.7,0.5-6.8,0.5c-3,0-5.8-0.3-6.9-0.5
					V13.6z"/>
				<path class="st35" d="M19.6,13.7c0,0,2.3-3.6,8.3-3.6c3.5,0,5.4,1,5.4,1v7.1c-1.1,0.2-3.7,0.5-6.8,0.5c-3,0-5.8-0.3-6.9-0.5
					V13.7z"/>
				<path class="st36" d="M19.6,13.7c0,0,2.3-3.6,8.3-3.6c3.4,0,5.3,1,5.3,1v7c-1.1,0.2-3.7,0.5-6.7,0.5c-3,0-5.8-0.3-6.9-0.5V13.7z
					"/>
				<path class="st37" d="M19.6,13.8c0,0,2.4-3.5,8.3-3.5c3.4,0,5.3,1,5.3,1v6.8c-1.1,0.2-3.7,0.5-6.7,0.5c-3,0-5.8-0.3-6.8-0.5
					V13.8z"/>
				<path class="st38" d="M19.7,13.9c0,0,2.4-3.5,8.2-3.5c3.4,0,5.3,0.9,5.3,0.9v6.7c-1,0.2-3.6,0.5-6.7,0.5c-3,0-5.8-0.3-6.8-0.5
					V13.9z"/>
				<path class="st39" d="M19.7,14c0,0,2.4-3.4,8.2-3.4c3.4,0,5.2,0.9,5.2,0.9v6.6c-1,0.2-3.6,0.5-6.6,0.5c-3,0-5.8-0.3-6.8-0.5V14z
					"/>
				<path class="st40" d="M19.7,14c0,0,2.4-3.3,8.2-3.3c3.4,0,5.2,0.9,5.2,0.9V18c-1,0.2-3.6,0.5-6.6,0.5c-3,0-5.8-0.3-6.8-0.5V14z"
					/>
				<path class="st41" d="M19.8,14.1c0,0,2.4-3.3,8.2-3.3c3.3,0,5.1,0.9,5.1,0.9V18c-1,0.2-3.5,0.5-6.6,0.5c-3,0-5.8-0.3-6.7-0.5
					V14.1z"/>
				<path class="st42" d="M19.8,14.2c0,0,2.4-3.2,8.2-3.2c3.3,0,5.1,0.9,5.1,0.9V18c-0.9,0.2-3.5,0.5-6.6,0.5c-3,0-5.8-0.3-6.7-0.5
					V14.2z"/>
				<path class="st43" d="M19.8,14.2c0,0,2.4-3.2,8.2-3.2c3.3,0,5.1,0.9,5.1,0.9V18c-0.9,0.2-3.5,0.5-6.5,0.5
					c-3.1,0-5.8-0.3-6.7-0.5V14.2z"/>
				<path class="st44" d="M19.8,14.3c0,0,2.4-3.1,8.1-3.1c3.3,0,5,0.8,5,0.8V18c-0.9,0.2-3.5,0.5-6.5,0.5c-3.1,0-5.8-0.3-6.7-0.5
					V14.3z"/>
				<path class="st45" d="M19.9,14.4c0,0,2.5-3.1,8.1-3.1c3.3,0,5,0.8,5,0.8V18c-0.9,0.2-3.4,0.5-6.5,0.5c-3.1,0-5.8-0.3-6.7-0.5
					V14.4z"/>
				<path class="st46" d="M19.9,14.4c0,0,2.5-3,8.1-3c3.3,0,5,0.8,5,0.8V18c-0.8,0.2-3.4,0.5-6.5,0.5c-3.1,0-5.8-0.3-6.6-0.5V14.4z"
					/>
				<path class="st47" d="M19.9,14.5c0,0,2.5-2.9,8.1-2.9c3.2,0,4.9,0.8,4.9,0.8v5.6c-0.8,0.2-3.4,0.5-6.4,0.5
					c-3.1,0-5.8-0.3-6.6-0.5V14.5z"/>
				<path class="st48" d="M19.9,14.6c0,0,2.5-2.9,8.1-2.9c3.2,0,4.9,0.8,4.9,0.8v5.4c-0.8,0.2-3.3,0.4-6.4,0.4
					c-3.1,0-5.8-0.3-6.6-0.4V14.6z"/>
				<path class="st49" d="M20,14.7c0,0,2.5-2.8,8.1-2.8c3.2,0,4.9,0.8,4.9,0.8v5.3c-0.8,0.2-3.3,0.4-6.4,0.4c-3.1,0-5.8-0.3-6.6-0.4
					V14.7z"/>
				<path class="st50" d="M20,14.7c0,0,2.5-2.8,8-2.8c3.2,0,4.8,0.8,4.8,0.8v5.2c-0.7,0.2-3.3,0.4-6.3,0.4c-3.1,0-5.8-0.3-6.5-0.4
					V14.7z"/>
				<path class="st51" d="M20,14.8c0,0,2.5-2.7,8-2.7c3.2,0,4.8,0.7,4.8,0.7v5.1c-0.7,0.2-3.3,0.4-6.3,0.4c-3.1,0-5.8-0.3-6.5-0.4
					V14.8z"/>
				<path class="st52" d="M20.1,14.9c0,0,2.6-2.7,8-2.7c3.1,0,4.8,0.7,4.8,0.7v4.9c-0.7,0.1-3.2,0.4-6.3,0.4c-3.1,0-5.8-0.3-6.5-0.4
					V14.9z"/>
				<path class="st53" d="M20.1,14.9c0,0,2.6-2.6,8-2.6c3.1,0,4.7,0.7,4.7,0.7v4.8c-0.7,0.1-3.2,0.4-6.3,0.4c-3.1,0-5.8-0.3-6.5-0.4
					V14.9z"/>
				<path class="st54" d="M20.1,15c0,0,2.6-2.6,8-2.6c3.1,0,4.7,0.7,4.7,0.7v4.7c-0.6,0.1-3.2,0.4-6.2,0.4c-3.1,0-5.8-0.3-6.4-0.4
					V15z"/>
				<path class="st55" d="M20.1,15.1c0,0,2.6-2.5,8-2.5c3.1,0,4.7,0.7,4.7,0.7v4.6c-0.6,0.1-3.1,0.4-6.2,0.4c-3.1,0-5.8-0.3-6.4-0.4
					V15.1z"/>
				<path class="st56" d="M20.2,15.1c0,0,2.6-2.4,7.9-2.4c3.1,0,4.6,0.7,4.6,0.7v4.4c-0.6,0.1-3.1,0.4-6.2,0.4
					c-3.1,0-5.8-0.3-6.4-0.4V15.1z"/>
				<path class="st57" d="M20.2,15.2c0,0,2.6-2.4,7.9-2.4c3,0,4.6,0.6,4.6,0.6v4.3c-0.6,0.1-3.1,0.4-6.2,0.4c-3.1,0-5.8-0.3-6.4-0.4
					V15.2z"/>
				<path class="st58" d="M20.2,15.3c0,0,2.6-2.3,7.9-2.3c3,0,4.6,0.6,4.6,0.6v4.2c-0.5,0.1-3.1,0.4-6.1,0.4c-3.1,0-5.8-0.3-6.4-0.4
					V15.3z"/>
				<path class="st59" d="M20.2,15.4c0,0,2.7-2.3,7.9-2.3c3,0,4.5,0.6,4.5,0.6v4.1c-0.5,0.1-3,0.4-6.1,0.4c-3.1,0-5.8-0.3-6.3-0.4
					V15.4z"/>
				<path class="st60" d="M20.3,15.4c0,0,2.7-2.2,7.9-2.2c3,0,4.5,0.6,4.5,0.6v3.9c-0.5,0.1-3,0.4-6.1,0.4c-3.1,0-5.8-0.3-6.3-0.4
					V15.4z"/>
				<path class="st61" d="M20.3,15.5c0,0,2.7-2.2,7.9-2.2c3,0,4.5,0.6,4.5,0.6v3.8c-0.5,0.1-3,0.4-6,0.4c-3.1,0-5.8-0.3-6.3-0.4
					V15.5z"/>
				<path class="st62" d="M20.3,15.6c0,0,2.7-2.1,7.8-2.1c2.9,0,4.4,0.6,4.4,0.6v3.7c-0.4,0.1-2.9,0.4-6,0.4c-3.1,0-5.8-0.3-6.3-0.4
					V15.6z"/>
				<path class="st63" d="M20.4,15.6c0,0,2.7-2.1,7.8-2.1c2.9,0,4.4,0.5,4.4,0.5v3.6c-0.4,0.1-2.9,0.4-6,0.4c-3.1,0-5.8-0.3-6.2-0.4
					V15.6z"/>
				<path class="st64" d="M20.4,15.7c0,0,2.7-2,7.8-2c2.9,0,4.4,0.5,4.4,0.5v3.4c-0.4,0.1-2.9,0.4-6,0.4c-3.1,0-5.8-0.3-6.2-0.4
					V15.7z"/>
				<path class="st65" d="M20.4,15.8c0,0,2.7-1.9,7.8-1.9c2.9,0,4.3,0.5,4.3,0.5v3.3c-0.4,0.1-2.9,0.4-5.9,0.4
					c-3.1,0-5.8-0.3-6.2-0.4V15.8z"/>
				<path class="st66" d="M20.4,15.9c0,0,2.8-1.9,7.8-1.9c2.9,0,4.3,0.5,4.3,0.5v3.2c-0.3,0.1-2.8,0.4-5.9,0.4
					c-3.1,0-5.8-0.3-6.2-0.4V15.9z"/>
				<path class="st67" d="M20.5,15.9c0,0,2.8-1.8,7.8-1.8c2.9,0,4.3,0.5,4.3,0.5v3.1c-0.3,0.1-2.8,0.4-5.9,0.4
					c-3.1,0-5.8-0.3-6.1-0.4V15.9z"/>
				<path class="st68" d="M20.5,16c0,0,2.8-1.8,7.7-1.8c2.8,0,4.2,0.5,4.2,0.5v2.9c-0.3,0.1-2.8,0.3-5.8,0.3c-3.1,0-5.8-0.3-6.1-0.3
					V16z"/>
				<path class="st69" d="M20.5,16.1c0,0,2.8-1.7,7.7-1.7c2.8,0,4.2,0.4,4.2,0.4v2.8c-0.3,0.1-2.8,0.3-5.8,0.3
					c-3.1,0-5.8-0.3-6.1-0.3V16.1z"/>
				<path class="st70" d="M20.5,16.1c0,0,2.8-1.7,7.7-1.7c2.8,0,4.2,0.4,4.2,0.4v2.7c-0.2,0-2.7,0.3-5.8,0.3c-3.1,0-5.8-0.3-6.1-0.3
					V16.1z"/>
				<path class="st71" d="M20.6,16.2c0,0,2.8-1.6,7.7-1.6c2.8,0,4.1,0.4,4.1,0.4v2.6c-0.2,0-2.7,0.3-5.8,0.3c-3.1,0-5.8-0.3-6-0.3
					V16.2z"/>
				<path class="st72" d="M20.6,16.3c0,0,2.8-1.6,7.7-1.6c2.8,0,4.1,0.4,4.1,0.4v2.4c-0.2,0-2.7,0.3-5.7,0.3c-3.1,0-5.8-0.3-6-0.3
					V16.3z"/>
				<path class="st73" d="M20.6,16.3c0,0,2.8-1.5,7.7-1.5c2.7,0,4.1,0.4,4.1,0.4v2.3c-0.2,0-2.6,0.3-5.7,0.3c-3.1,0-5.8-0.3-6-0.3
					V16.3z"/>
				<path class="st74" d="M20.7,16.4c0,0,2.9-1.4,7.6-1.4c2.7,0,4,0.4,4,0.4v2.2c-0.1,0-2.6,0.3-5.7,0.3c-3.1,0-5.8-0.3-6-0.3V16.4z
					"/>
				<path class="st75" d="M20.7,16.5c0,0,2.9-1.4,7.6-1.4c2.7,0,4,0.4,4,0.4v2.1c-0.1,0-2.6,0.3-5.7,0.3c-3.1,0-5.9-0.3-6-0.3V16.5z
					"/>
				<path class="st76" d="M20.7,16.6c0,0,2.9-1.3,7.6-1.3c2.7,0,4,0.3,4,0.3v1.9c-0.1,0-2.6,0.3-5.6,0.3c-3.1,0-5.9-0.3-5.9-0.3
					V16.6z"/>
				<path class="st77" d="M20.7,16.6c0,0,2.9-1.3,7.6-1.3c2.7,0,3.9,0.3,3.9,0.3v1.8c-0.1,0-2.5,0.3-5.6,0.3c-3.1,0-5.9-0.3-5.9-0.3
					V16.6z"/>
				<path class="st78" d="M20.8,16.7c0,0,2.9-1.2,7.6-1.2c2.6,0,3.9,0.3,3.9,0.3v1.7c0,0-2.5,0.3-5.6,0.3c-3.1,0-5.9-0.3-5.9-0.3
					V16.7z"/>
				<path class="st79" d="M20.8,16.8v0.7c0,0,2.8,0.3,5.9,0.3c3.1,0,5.5-0.3,5.5-0.3v-1.6c0,0-1.2-0.3-3.9-0.3
					C23.7,15.6,20.8,16.8,20.8,16.8z"/>
			</g>
			<line class="st80" x1="26.4" y1="1.7" x2="35" y2="7"/>
			<line class="st81" x1="17.6" y1="7.3" x2="26.3" y2="1.8"/>
			<line class="st80" x1="19.2" y1="8.7" x2="19.2" y2="18.2"/>
		</g>
	</g>
	<g>
		<path d="M60.9,5.3h0.8c0.6,0,0.7-0.3,0.8-0.7l0.3-0.8c0.1-0.3,0.2-0.6,0.5-0.7C63.5,3,63.6,3,63.8,3c0.1,0,0.3,0,0.4,0L64,3.6
			c-0.1,0-0.3,0-0.4,0c-0.2,0.1-0.2,0.4-0.3,0.6l-0.2,0.6C63.1,5,63,5.4,62.5,5.5v0c0.5,0.1,0.7,0.5,0.8,0.8l0.9,2h-0.8l-0.7-1.7
			c-0.1-0.2-0.2-0.4-0.3-0.6c-0.2-0.1-0.4-0.2-0.6-0.2h-0.8v2.5h-0.7V3.1h0.7V5.3z"/>
		<path d="M69.1,8.4h-0.7V5.2h-1.1l0,0.4c0,0.4,0,1-0.1,1.4c0,0.4-0.1,0.8-0.5,1.1c-0.2,0.2-0.5,0.3-0.7,0.3l-0.2-0.5
			c0.2,0,0.4-0.1,0.6-0.2c0.2-0.2,0.3-0.6,0.3-0.7c0.1-0.7,0.1-1,0.1-1.6l0-0.6h2.3V8.4z"/>
		<path d="M74.9,8.4h-0.7V5.5l-1.8,2.8h-0.7V4.7h0.7v2.8l1.8-2.8h0.7V8.4z"/>
		<path d="M80.4,8.4h-0.7V6.7h-1.7v1.7h-0.7V4.7h0.7v1.5h1.7V4.7h0.7V8.4z"/>
		<path d="M86.2,8.4h-0.7V5.5l-1.8,2.8H83V4.7h0.7v2.8l1.8-2.8h0.7V8.4z"/>
		<path d="M91.8,8.4h-0.7V6.7h-1.7v1.7h-0.7V4.7h0.7v1.5h1.7V4.7h0.7V8.4z"/>
		<path d="M96.7,4.7v0.5H95v3.1h-0.7V4.7H96.7z"/>
	</g>
</g>
<g>
	<g>
		<path d="M151.7,9.5c0.2,0,0.5-0.1,0.8-0.1c0.5,0,0.8,0.1,1,0.3c0.2,0.1,0.3,0.4,0.3,0.6c0,0.4-0.3,0.7-0.6,0.8v0
			c0.2,0.1,0.4,0.3,0.5,0.7c0.1,0.5,0.2,0.8,0.3,0.9h-0.4c-0.1-0.1-0.1-0.4-0.2-0.8c-0.1-0.5-0.3-0.6-0.7-0.6h-0.4v1.4h-0.4V9.5z
			 M152.1,11h0.4c0.5,0,0.7-0.2,0.7-0.6c0-0.4-0.3-0.6-0.8-0.6c-0.2,0-0.3,0-0.4,0V11z"/>
	</g>
	<path d="M152.7,13.6c-1.4,0-2.6-1.2-2.6-2.6c0-1.4,1.2-2.6,2.6-2.6c1.4,0,2.6,1.2,2.6,2.6C155.3,12.5,154.2,13.6,152.7,13.6z
		 M152.7,8.8c-1.2,0-2.2,1-2.2,2.2c0,1.2,1,2.2,2.2,2.2c1.2,0,2.2-1,2.2-2.2C155,9.8,154,8.8,152.7,8.8z"/>
</g>
</svg>
